%TF.GenerationSoftware,KiCad,Pcbnew,5.1.9-73d0e3b20d~88~ubuntu20.04.1*%
%TF.CreationDate,2021-04-29T00:31:08+02:00*%
%TF.ProjectId,Node,4e6f6465-2e6b-4696-9361-645f70636258,rev?*%
%TF.SameCoordinates,Original*%
%TF.FileFunction,Copper,L2,Bot*%
%TF.FilePolarity,Positive*%
%FSLAX46Y46*%
G04 Gerber Fmt 4.6, Leading zero omitted, Abs format (unit mm)*
G04 Created by KiCad (PCBNEW 5.1.9-73d0e3b20d~88~ubuntu20.04.1) date 2021-04-29 00:31:08*
%MOMM*%
%LPD*%
G01*
G04 APERTURE LIST*
%TA.AperFunction,ComponentPad*%
%ADD10O,1.400000X1.400000*%
%TD*%
%TA.AperFunction,ComponentPad*%
%ADD11C,1.400000*%
%TD*%
%TA.AperFunction,ComponentPad*%
%ADD12R,1.998980X1.524000*%
%TD*%
%TA.AperFunction,ComponentPad*%
%ADD13O,1.998980X1.524000*%
%TD*%
%TA.AperFunction,ComponentPad*%
%ADD14R,1.500000X1.500000*%
%TD*%
%TA.AperFunction,ComponentPad*%
%ADD15C,1.500000*%
%TD*%
%TA.AperFunction,ComponentPad*%
%ADD16R,1.524000X2.199640*%
%TD*%
%TA.AperFunction,ComponentPad*%
%ADD17O,1.524000X2.199640*%
%TD*%
%TA.AperFunction,ComponentPad*%
%ADD18O,1.300000X0.800000*%
%TD*%
%TA.AperFunction,ComponentPad*%
%ADD19R,1.508000X1.508000*%
%TD*%
%TA.AperFunction,ComponentPad*%
%ADD20C,1.508000*%
%TD*%
%TA.AperFunction,ComponentPad*%
%ADD21R,1.905000X2.000000*%
%TD*%
%TA.AperFunction,ComponentPad*%
%ADD22O,1.905000X2.000000*%
%TD*%
%TA.AperFunction,ComponentPad*%
%ADD23C,1.727200*%
%TD*%
%TA.AperFunction,ComponentPad*%
%ADD24R,1.727200X1.727200*%
%TD*%
%TA.AperFunction,ViaPad*%
%ADD25C,0.889000*%
%TD*%
%TA.AperFunction,ViaPad*%
%ADD26C,1.143000*%
%TD*%
%TA.AperFunction,Conductor*%
%ADD27C,0.762000*%
%TD*%
%TA.AperFunction,Conductor*%
%ADD28C,0.381000*%
%TD*%
%TA.AperFunction,Conductor*%
%ADD29C,0.500000*%
%TD*%
%TA.AperFunction,Conductor*%
%ADD30C,0.300000*%
%TD*%
%TA.AperFunction,Conductor*%
%ADD31C,0.254000*%
%TD*%
%TA.AperFunction,Conductor*%
%ADD32C,0.100000*%
%TD*%
G04 APERTURE END LIST*
D10*
%TO.P,R1,2*%
%TO.N,/1WIRE*%
X107100000Y-117880000D03*
D11*
%TO.P,R1,1*%
%TO.N,/5V*%
X107100000Y-125500000D03*
%TD*%
D12*
%TO.P,J1,1*%
%TO.N,+12V*%
X108318920Y-88970000D03*
D13*
%TO.P,J1,2*%
%TO.N,/5V*%
X105281080Y-88970000D03*
%TO.P,J1,3*%
%TO.N,+12V*%
X108318920Y-86430000D03*
%TO.P,J1,4*%
%TO.N,/12V_IN*%
X105281080Y-86430000D03*
%TD*%
D12*
%TO.P,J2,1*%
%TO.N,/RX_B*%
X98981080Y-126570000D03*
D13*
%TO.P,J2,2*%
%TO.N,Net-(J2-Pad2)*%
X102018920Y-126570000D03*
%TO.P,J2,3*%
%TO.N,/RX_B*%
X98981080Y-124030000D03*
%TO.P,J2,4*%
%TO.N,/TX*%
X102018920Y-124030000D03*
%TD*%
D12*
%TO.P,J3,1*%
%TO.N,/TX_A*%
X98981080Y-120870000D03*
D13*
%TO.P,J3,2*%
%TO.N,/RX*%
X102018920Y-120870000D03*
%TO.P,J3,3*%
%TO.N,/TX_A*%
X98981080Y-118330000D03*
%TO.P,J3,4*%
%TO.N,Net-(J3-Pad4)*%
X102018920Y-118330000D03*
%TD*%
D14*
%TO.P,J4,1*%
%TO.N,GND*%
X96500000Y-95900000D03*
D15*
%TO.P,J4,2*%
%TO.N,+12V*%
X97770000Y-93360000D03*
%TO.P,J4,3*%
%TO.N,/REQ*%
X99040000Y-95900000D03*
%TO.P,J4,4*%
%TO.N,/RES*%
X100310000Y-93360000D03*
%TO.P,J4,5*%
%TO.N,/D2*%
X101580000Y-95900000D03*
%TO.P,J4,6*%
%TO.N,/RST*%
X102850000Y-93360000D03*
%TO.P,J4,7*%
%TO.N,/TX_A*%
X104120000Y-95900000D03*
%TO.P,J4,8*%
%TO.N,/RX_B*%
X105390000Y-93360000D03*
%TD*%
D16*
%TO.P,JP1,1*%
%TO.N,/GND_MAX485*%
X127730000Y-127100000D03*
D17*
%TO.P,JP1,2*%
%TO.N,GND*%
X130270000Y-127100000D03*
%TD*%
%TO.P,JP2,2*%
%TO.N,/5V_MAX485*%
X113670000Y-127100000D03*
D16*
%TO.P,JP2,1*%
%TO.N,/5V*%
X111130000Y-127100000D03*
%TD*%
%TO.P,OUT1,1*%
%TO.N,GND*%
%TA.AperFunction,ComponentPad*%
G36*
G01*
X130050000Y-89200000D02*
X130950000Y-89200000D01*
G75*
G02*
X131150000Y-89400000I0J-200000D01*
G01*
X131150000Y-89800000D01*
G75*
G02*
X130950000Y-90000000I-200000J0D01*
G01*
X130050000Y-90000000D01*
G75*
G02*
X129850000Y-89800000I0J200000D01*
G01*
X129850000Y-89400000D01*
G75*
G02*
X130050000Y-89200000I200000J0D01*
G01*
G37*
%TD.AperFunction*%
D18*
%TO.P,OUT1,2*%
%TO.N,/A3*%
X130500000Y-90850000D03*
%TO.P,OUT1,3*%
%TO.N,/A2*%
X130500000Y-92100000D03*
%TO.P,OUT1,4*%
%TO.N,/5V*%
X130500000Y-93350000D03*
%TD*%
%TO.P,OUT2,4*%
%TO.N,/5V*%
X130500000Y-103650000D03*
%TO.P,OUT2,3*%
%TO.N,/A0*%
X130500000Y-102400000D03*
%TO.P,OUT2,2*%
%TO.N,/A1*%
X130500000Y-101150000D03*
%TO.P,OUT2,1*%
%TO.N,GND*%
%TA.AperFunction,ComponentPad*%
G36*
G01*
X130050000Y-99500000D02*
X130950000Y-99500000D01*
G75*
G02*
X131150000Y-99700000I0J-200000D01*
G01*
X131150000Y-100100000D01*
G75*
G02*
X130950000Y-100300000I-200000J0D01*
G01*
X130050000Y-100300000D01*
G75*
G02*
X129850000Y-100100000I0J200000D01*
G01*
X129850000Y-99700000D01*
G75*
G02*
X130050000Y-99500000I200000J0D01*
G01*
G37*
%TD.AperFunction*%
%TD*%
%TO.P,OUT3,1*%
%TO.N,GND*%
%TA.AperFunction,ComponentPad*%
G36*
G01*
X130050000Y-109800000D02*
X130950000Y-109800000D01*
G75*
G02*
X131150000Y-110000000I0J-200000D01*
G01*
X131150000Y-110400000D01*
G75*
G02*
X130950000Y-110600000I-200000J0D01*
G01*
X130050000Y-110600000D01*
G75*
G02*
X129850000Y-110400000I0J200000D01*
G01*
X129850000Y-110000000D01*
G75*
G02*
X130050000Y-109800000I200000J0D01*
G01*
G37*
%TD.AperFunction*%
%TO.P,OUT3,2*%
%TO.N,/SCL*%
X130500000Y-111450000D03*
%TO.P,OUT3,3*%
%TO.N,/SDA*%
X130500000Y-112700000D03*
%TO.P,OUT3,4*%
%TO.N,/5V*%
X130500000Y-113950000D03*
%TD*%
%TO.P,OUT4,1*%
%TO.N,GND*%
%TA.AperFunction,ComponentPad*%
G36*
G01*
X130050000Y-120100000D02*
X130950000Y-120100000D01*
G75*
G02*
X131150000Y-120300000I0J-200000D01*
G01*
X131150000Y-120700000D01*
G75*
G02*
X130950000Y-120900000I-200000J0D01*
G01*
X130050000Y-120900000D01*
G75*
G02*
X129850000Y-120700000I0J200000D01*
G01*
X129850000Y-120300000D01*
G75*
G02*
X130050000Y-120100000I200000J0D01*
G01*
G37*
%TD.AperFunction*%
%TO.P,OUT4,2*%
%TO.N,/1WIRE*%
X130500000Y-121750000D03*
%TO.P,OUT4,3*%
%TO.N,/5V*%
X130500000Y-123000000D03*
%TD*%
D19*
%TO.P,U1,J1.1*%
%TO.N,/TX*%
X124610000Y-86380000D03*
D20*
%TO.P,U1,J1.2*%
%TO.N,/RS485_DE*%
X122070000Y-86380000D03*
%TO.P,U1,J1.3*%
X119530000Y-86380000D03*
%TO.P,U1,J1.4*%
%TO.N,/RX*%
X116990000Y-86380000D03*
D19*
%TO.P,U1,J2.1*%
%TO.N,/5V_MAX485*%
X116990000Y-127020000D03*
D20*
%TO.P,U1,J2.2*%
%TO.N,Net-(J2-Pad2)*%
X119530000Y-127020000D03*
%TO.P,U1,J2.3*%
%TO.N,Net-(J3-Pad4)*%
X122070000Y-127020000D03*
%TO.P,U1,J2.4*%
%TO.N,/GND_MAX485*%
X124610000Y-127020000D03*
%TD*%
D21*
%TO.P,U2,1*%
%TO.N,/12V_IN*%
X95800000Y-88700000D03*
D22*
%TO.P,U2,2*%
%TO.N,GND*%
X98340000Y-88700000D03*
%TO.P,U2,3*%
%TO.N,/5V*%
X100880000Y-88700000D03*
%TD*%
D23*
%TO.P,XA1,A4*%
%TO.N,/SDA*%
X123980000Y-107430000D03*
%TO.P,XA1,A5*%
%TO.N,/SCL*%
X123980000Y-104890000D03*
D24*
%TO.P,XA1,GND3*%
%TO.N,Net-(XA1-PadGND3)*%
X118900000Y-123940000D03*
D23*
%TO.P,XA1,A6*%
%TO.N,Net-(XA1-PadA6)*%
X121440000Y-123940000D03*
%TO.P,XA1,A7*%
%TO.N,Net-(XA1-PadA7)*%
X123980000Y-123940000D03*
%TO.P,XA1,D10*%
%TO.N,/1WIRE*%
X126520000Y-123940000D03*
%TO.P,XA1,D11*%
%TO.N,Net-(XA1-PadD11)*%
X126520000Y-121400000D03*
%TO.P,XA1,D12*%
%TO.N,Net-(XA1-PadD12)*%
X126520000Y-118860000D03*
%TO.P,XA1,D13*%
%TO.N,Net-(XA1-PadD13)*%
X126520000Y-116320000D03*
%TO.P,XA1,A0*%
%TO.N,/A0*%
X126520000Y-113780000D03*
%TO.P,XA1,A1*%
%TO.N,/A1*%
X126520000Y-111240000D03*
%TO.P,XA1,A2*%
%TO.N,/A2*%
X126520000Y-108700000D03*
%TO.P,XA1,A3*%
%TO.N,/A3*%
X126520000Y-106160000D03*
%TO.P,XA1,Vcc1*%
%TO.N,/5V*%
X126520000Y-103620000D03*
%TO.P,XA1,RST2*%
%TO.N,Net-(XA1-PadRST2)*%
X126520000Y-101080000D03*
D24*
%TO.P,XA1,GND2*%
%TO.N,GND*%
X126520000Y-98540000D03*
D23*
%TO.P,XA1,RAW*%
%TO.N,Net-(XA1-PadRAW)*%
X126520000Y-96000000D03*
D24*
%TO.P,XA1,GND5*%
%TO.N,N/C*%
X125250000Y-93460000D03*
%TO.P,XA1,GND4*%
%TO.N,Net-(XA1-PadGND4)*%
X122710000Y-93460000D03*
D23*
%TO.P,XA1,Vcc2*%
%TO.N,Net-(XA1-PadVcc2)*%
X120170000Y-93460000D03*
%TO.P,XA1,RXI*%
%TO.N,Net-(XA1-PadRXI)*%
X117630000Y-93460000D03*
%TO.P,XA1,TXO*%
%TO.N,Net-(XA1-PadTXO)*%
X115090000Y-93460000D03*
%TO.P,XA1,DTR*%
%TO.N,Net-(XA1-PadDTR)*%
X112550000Y-93460000D03*
%TO.P,XA1,D1*%
%TO.N,/TX*%
X111280000Y-96000000D03*
%TO.P,XA1,D0*%
%TO.N,/RX*%
X111280000Y-98540000D03*
%TO.P,XA1,RST1*%
%TO.N,/RST*%
X111280000Y-101080000D03*
D24*
%TO.P,XA1,GND1*%
%TO.N,GND*%
X111280000Y-103620000D03*
D23*
%TO.P,XA1,D2*%
%TO.N,/D2*%
X111280000Y-106160000D03*
%TO.P,XA1,D3*%
%TO.N,/REQ*%
X111280000Y-108700000D03*
%TO.P,XA1,D4*%
%TO.N,/RES*%
X111280000Y-111240000D03*
%TO.P,XA1,D5*%
%TO.N,Net-(XA1-PadD5)*%
X111280000Y-113780000D03*
%TO.P,XA1,D6*%
%TO.N,Net-(XA1-PadD6)*%
X111280000Y-116320000D03*
%TO.P,XA1,D7*%
%TO.N,Net-(XA1-PadD7)*%
X111280000Y-118860000D03*
%TO.P,XA1,D8*%
%TO.N,/RS485_DE*%
X111280000Y-121400000D03*
%TO.P,XA1,D9*%
%TO.N,Net-(XA1-PadD9)*%
X111280000Y-123940000D03*
%TD*%
D25*
%TO.N,*%
X121000000Y-110200000D03*
X119700000Y-120600000D03*
X122100000Y-117100000D03*
D26*
%TO.N,/5V*%
X112700000Y-89800000D03*
X118357000Y-90500000D03*
X120800000Y-90400000D03*
X128100000Y-91000000D03*
%TO.N,/RX_B*%
X100600000Y-103300000D03*
X97896500Y-105800000D03*
%TO.N,/TX*%
X104800000Y-123100000D03*
X106400000Y-121300000D03*
D25*
X115313001Y-118409101D03*
X115313001Y-116700000D03*
D26*
%TO.N,/RX*%
X104300000Y-119200000D03*
D25*
%TO.N,GND*%
X121000000Y-102100000D03*
X95700000Y-111400000D03*
X95900000Y-118900000D03*
X129400000Y-86200000D03*
X105000000Y-127300000D03*
X96400000Y-125300000D03*
X123800000Y-99300000D03*
X120800000Y-96400000D03*
X130400000Y-97400000D03*
X102700000Y-87700000D03*
X116900000Y-101100000D03*
X108300000Y-112600000D03*
X101400000Y-106400000D03*
X94700000Y-107300000D03*
X108000000Y-104700000D03*
%TO.N,/REQ*%
X104200000Y-101900000D03*
D26*
%TO.N,/RES*%
X98000000Y-91100000D03*
X102542927Y-103242927D03*
X99400000Y-99900000D03*
%TO.N,/D2*%
X107300000Y-99600000D03*
D25*
%TO.N,/A3*%
X124900000Y-89193500D03*
X121337308Y-91689541D03*
%TO.N,/A2*%
X123435000Y-97100000D03*
X121700000Y-99000000D03*
X122300000Y-108900000D03*
%TO.N,/RS485_DE*%
X119500000Y-89606500D03*
X118700000Y-118600000D03*
X118700000Y-116600000D03*
%TD*%
D27*
%TO.N,/5V*%
X112005999Y-90494001D02*
X112700000Y-89800000D01*
X106709829Y-90494001D02*
X112005999Y-90494001D01*
X105530000Y-89314172D02*
X106709829Y-90494001D01*
X105530000Y-88970000D02*
X105530000Y-89314172D01*
X120128501Y-91071499D02*
X120800000Y-90400000D01*
X118928499Y-91071499D02*
X120128501Y-91071499D01*
X118357000Y-90500000D02*
X118928499Y-91071499D01*
X128145601Y-101994399D02*
X126520000Y-103620000D01*
X128145601Y-91045601D02*
X128145601Y-101994399D01*
X128100000Y-91000000D02*
X128145601Y-91045601D01*
X129801202Y-103650000D02*
X130500000Y-103650000D01*
X128145601Y-101994399D02*
X129801202Y-103650000D01*
X114106501Y-124123499D02*
X111130000Y-127100000D01*
X114106501Y-112357609D02*
X114106501Y-124123499D01*
X125656401Y-102756401D02*
X123707709Y-102756401D01*
X123707709Y-102756401D02*
X114106501Y-112357609D01*
X126520000Y-103620000D02*
X125656401Y-102756401D01*
%TO.N,/RX_B*%
X100396500Y-103300000D02*
X97896500Y-105800000D01*
X100600000Y-103300000D02*
X100396500Y-103300000D01*
%TO.N,/TX*%
X104800000Y-123000000D02*
X106428224Y-121371776D01*
X104800000Y-123100000D02*
X104800000Y-123000000D01*
X106428224Y-121328224D02*
X106400000Y-121300000D01*
X106428224Y-121371776D02*
X106428224Y-121328224D01*
D28*
X115313001Y-118409101D02*
X115313001Y-116700000D01*
D27*
%TO.N,/RX*%
X102630000Y-120870000D02*
X104300000Y-119200000D01*
X101770000Y-120870000D02*
X102630000Y-120870000D01*
%TO.N,/REQ*%
X104200000Y-101060000D02*
X104200000Y-101900000D01*
X99040000Y-95900000D02*
X104200000Y-101060000D01*
%TO.N,/RES*%
X100260000Y-93360000D02*
X98000000Y-91100000D01*
X100310000Y-93360000D02*
X100260000Y-93360000D01*
X100100000Y-100800000D02*
X102542927Y-103242927D01*
X100100000Y-100600000D02*
X100100000Y-100800000D01*
X99400000Y-99900000D02*
X100100000Y-100600000D01*
%TO.N,/D2*%
X105280000Y-99600000D02*
X107300000Y-99600000D01*
X101580000Y-95900000D02*
X105280000Y-99600000D01*
D29*
%TO.N,/RST*%
X104231001Y-91978999D02*
X106052881Y-91978999D01*
X102850000Y-93360000D02*
X104231001Y-91978999D01*
X106052881Y-91978999D02*
X108878999Y-91978999D01*
D28*
X108878999Y-91978999D02*
X111200000Y-94300000D01*
D30*
X111943471Y-94723601D02*
X112523601Y-94723601D01*
X111519870Y-94300000D02*
X111943471Y-94723601D01*
X111200000Y-94300000D02*
X111519870Y-94300000D01*
X112523601Y-94723601D02*
X112800000Y-95000000D01*
D29*
X112800000Y-99560000D02*
X111280000Y-101080000D01*
X112800000Y-95000000D02*
X112800000Y-99560000D01*
D28*
%TO.N,/A3*%
X123833349Y-89193500D02*
X121337308Y-91689541D01*
X124900000Y-89193500D02*
X123833349Y-89193500D01*
%TO.N,/A2*%
X123435000Y-97265000D02*
X121700000Y-99000000D01*
X123435000Y-97100000D02*
X123435000Y-97265000D01*
X125220000Y-110000000D02*
X126520000Y-108700000D01*
X123400000Y-110000000D02*
X125220000Y-110000000D01*
X122300000Y-108900000D02*
X123400000Y-110000000D01*
%TO.N,/RS485_DE*%
X119530000Y-89576500D02*
X119500000Y-89606500D01*
X119530000Y-86380000D02*
X119530000Y-89576500D01*
X118700000Y-118600000D02*
X118700000Y-116600000D01*
%TD*%
D31*
%TO.N,GND*%
X104050982Y-85437392D02*
X103876407Y-85650113D01*
X103746686Y-85892805D01*
X103666804Y-86156140D01*
X103639831Y-86430000D01*
X103666804Y-86703860D01*
X103746686Y-86967195D01*
X103876407Y-87209887D01*
X104050982Y-87422608D01*
X104263703Y-87597183D01*
X104456061Y-87700000D01*
X104263703Y-87802817D01*
X104050982Y-87977392D01*
X103876407Y-88190113D01*
X103746686Y-88432805D01*
X103666804Y-88696140D01*
X103639831Y-88970000D01*
X103666804Y-89243860D01*
X103746686Y-89507195D01*
X103876407Y-89749887D01*
X104050982Y-89962608D01*
X104263703Y-90137183D01*
X104506395Y-90266904D01*
X104769730Y-90346786D01*
X104974965Y-90367000D01*
X105145988Y-90367000D01*
X105872986Y-91093999D01*
X104274466Y-91093999D01*
X104231000Y-91089718D01*
X104187534Y-91093999D01*
X104187524Y-91093999D01*
X104057511Y-91106804D01*
X103890688Y-91157410D01*
X103736942Y-91239588D01*
X103727049Y-91247707D01*
X103635954Y-91322467D01*
X103635952Y-91322469D01*
X103602184Y-91350182D01*
X103574471Y-91383950D01*
X102983421Y-91975000D01*
X102713589Y-91975000D01*
X102446011Y-92028225D01*
X102193957Y-92132629D01*
X101967114Y-92284201D01*
X101774201Y-92477114D01*
X101622629Y-92703957D01*
X101580000Y-92806873D01*
X101537371Y-92703957D01*
X101385799Y-92477114D01*
X101192886Y-92284201D01*
X100966043Y-92132629D01*
X100713989Y-92028225D01*
X100446411Y-91975000D01*
X100311841Y-91975000D01*
X99178812Y-90841972D01*
X99160135Y-90748077D01*
X99069187Y-90528508D01*
X98937150Y-90330901D01*
X98851671Y-90245422D01*
X98931094Y-90219571D01*
X99206923Y-90075969D01*
X99449437Y-89881315D01*
X99604837Y-89696101D01*
X99752037Y-89875463D01*
X99993766Y-90073845D01*
X100269552Y-90221255D01*
X100568797Y-90312030D01*
X100880000Y-90342681D01*
X101191204Y-90312030D01*
X101490449Y-90221255D01*
X101766235Y-90073845D01*
X102007963Y-89875463D01*
X102206345Y-89633734D01*
X102353755Y-89357948D01*
X102444530Y-89058703D01*
X102467500Y-88825485D01*
X102467500Y-88574514D01*
X102444530Y-88341296D01*
X102353755Y-88042051D01*
X102206345Y-87766265D01*
X102007963Y-87524537D01*
X101766234Y-87326155D01*
X101490448Y-87178745D01*
X101191203Y-87087970D01*
X100880000Y-87057319D01*
X100568796Y-87087970D01*
X100269551Y-87178745D01*
X99993765Y-87326155D01*
X99752037Y-87524537D01*
X99604838Y-87703900D01*
X99449437Y-87518685D01*
X99206923Y-87324031D01*
X98931094Y-87180429D01*
X98712980Y-87109437D01*
X98467000Y-87229406D01*
X98467000Y-88573000D01*
X98487000Y-88573000D01*
X98487000Y-88827000D01*
X98467000Y-88827000D01*
X98467000Y-88847000D01*
X98213000Y-88847000D01*
X98213000Y-88827000D01*
X98193000Y-88827000D01*
X98193000Y-88573000D01*
X98213000Y-88573000D01*
X98213000Y-87229406D01*
X97967020Y-87109437D01*
X97748906Y-87180429D01*
X97473077Y-87324031D01*
X97332059Y-87437219D01*
X97283037Y-87345506D01*
X97203685Y-87248815D01*
X97106994Y-87169463D01*
X96996680Y-87110498D01*
X96876982Y-87074188D01*
X96752500Y-87061928D01*
X94847500Y-87061928D01*
X94723018Y-87074188D01*
X94603320Y-87110498D01*
X94493006Y-87169463D01*
X94396315Y-87248815D01*
X94316963Y-87345506D01*
X94257998Y-87455820D01*
X94221688Y-87575518D01*
X94209428Y-87700000D01*
X94209428Y-89700000D01*
X94221688Y-89824482D01*
X94257998Y-89944180D01*
X94316963Y-90054494D01*
X94396315Y-90151185D01*
X94493006Y-90230537D01*
X94603320Y-90289502D01*
X94723018Y-90325812D01*
X94847500Y-90338072D01*
X96752500Y-90338072D01*
X96876982Y-90325812D01*
X96996680Y-90289502D01*
X97106994Y-90230537D01*
X97203685Y-90151185D01*
X97283037Y-90054494D01*
X97332059Y-89962781D01*
X97422129Y-90035075D01*
X97230901Y-90162850D01*
X97062850Y-90330901D01*
X96930813Y-90528508D01*
X96839865Y-90748077D01*
X96793500Y-90981170D01*
X96793500Y-91218830D01*
X96839865Y-91451923D01*
X96930813Y-91671492D01*
X97062850Y-91869099D01*
X97230901Y-92037150D01*
X97274360Y-92066188D01*
X97113957Y-92132629D01*
X96887114Y-92284201D01*
X96694201Y-92477114D01*
X96542629Y-92703957D01*
X96438225Y-92956011D01*
X96385000Y-93223589D01*
X96385000Y-93496411D01*
X96438225Y-93763989D01*
X96542629Y-94016043D01*
X96694201Y-94242886D01*
X96887114Y-94435799D01*
X97003490Y-94513559D01*
X96785750Y-94515000D01*
X96627000Y-94673750D01*
X96627000Y-95773000D01*
X96647000Y-95773000D01*
X96647000Y-96027000D01*
X96627000Y-96027000D01*
X96627000Y-97126250D01*
X96785750Y-97285000D01*
X97250000Y-97288072D01*
X97374482Y-97275812D01*
X97494180Y-97239502D01*
X97604494Y-97180537D01*
X97701185Y-97101185D01*
X97780537Y-97004494D01*
X97839502Y-96894180D01*
X97875812Y-96774482D01*
X97886445Y-96666517D01*
X97964201Y-96782886D01*
X98157114Y-96975799D01*
X98383957Y-97127371D01*
X98636011Y-97231775D01*
X98903589Y-97285000D01*
X98988160Y-97285000D01*
X103184000Y-101480841D01*
X103184000Y-101531973D01*
X103161985Y-101585122D01*
X103120500Y-101793679D01*
X103120500Y-102006321D01*
X103159839Y-102204089D01*
X103114419Y-102173740D01*
X102894850Y-102082792D01*
X102800956Y-102064115D01*
X101085461Y-100348621D01*
X101043202Y-100209313D01*
X100948860Y-100032810D01*
X100821896Y-99878104D01*
X100783133Y-99846292D01*
X100578812Y-99641971D01*
X100560135Y-99548077D01*
X100469187Y-99328508D01*
X100337150Y-99130901D01*
X100169099Y-98962850D01*
X99971492Y-98830813D01*
X99751923Y-98739865D01*
X99518830Y-98693500D01*
X99281170Y-98693500D01*
X99048077Y-98739865D01*
X98828508Y-98830813D01*
X98630901Y-98962850D01*
X98462850Y-99130901D01*
X98330813Y-99328508D01*
X98239865Y-99548077D01*
X98193500Y-99781170D01*
X98193500Y-100018830D01*
X98239865Y-100251923D01*
X98330813Y-100471492D01*
X98462850Y-100669099D01*
X98630901Y-100837150D01*
X98828508Y-100969187D01*
X99048077Y-101060135D01*
X99121634Y-101074766D01*
X99156798Y-101190687D01*
X99251140Y-101367190D01*
X99378104Y-101521896D01*
X99416871Y-101553711D01*
X100074799Y-102211639D01*
X100028508Y-102230813D01*
X99830901Y-102362850D01*
X99662850Y-102530901D01*
X99530813Y-102728508D01*
X99530574Y-102729085D01*
X97638472Y-104621188D01*
X97544577Y-104639865D01*
X97325008Y-104730813D01*
X97127401Y-104862850D01*
X96959350Y-105030901D01*
X96827313Y-105228508D01*
X96736365Y-105448077D01*
X96690000Y-105681170D01*
X96690000Y-105918830D01*
X96736365Y-106151923D01*
X96827313Y-106371492D01*
X96959350Y-106569099D01*
X97127401Y-106737150D01*
X97325008Y-106869187D01*
X97544577Y-106960135D01*
X97777670Y-107006500D01*
X98015330Y-107006500D01*
X98248423Y-106960135D01*
X98467992Y-106869187D01*
X98665599Y-106737150D01*
X98833650Y-106569099D01*
X98965687Y-106371492D01*
X99056635Y-106151923D01*
X99075312Y-106058028D01*
X100626841Y-104506500D01*
X100718830Y-104506500D01*
X100951923Y-104460135D01*
X101171492Y-104369187D01*
X101369099Y-104237150D01*
X101537150Y-104069099D01*
X101590531Y-103989209D01*
X101605777Y-104012026D01*
X101773828Y-104180077D01*
X101971435Y-104312114D01*
X102191004Y-104403062D01*
X102424097Y-104449427D01*
X102661757Y-104449427D01*
X102894850Y-104403062D01*
X103114419Y-104312114D01*
X103312026Y-104180077D01*
X103480077Y-104012026D01*
X103612114Y-103814419D01*
X103703062Y-103594850D01*
X103749427Y-103361757D01*
X103749427Y-103124097D01*
X103703062Y-102891004D01*
X103688862Y-102856722D01*
X103885122Y-102938015D01*
X104093679Y-102979500D01*
X104306321Y-102979500D01*
X104514878Y-102938015D01*
X104524234Y-102934140D01*
X104679369Y-103308669D01*
X104923962Y-103674729D01*
X105235271Y-103986038D01*
X105601331Y-104230631D01*
X106008075Y-104399110D01*
X106439872Y-104485000D01*
X106880128Y-104485000D01*
X107311925Y-104399110D01*
X107718669Y-104230631D01*
X108084729Y-103986038D01*
X108396038Y-103674729D01*
X108640631Y-103308669D01*
X108809110Y-102901925D01*
X108895000Y-102470128D01*
X108895000Y-102029872D01*
X108809110Y-101598075D01*
X108640631Y-101191331D01*
X108396038Y-100825271D01*
X108088508Y-100517741D01*
X108237150Y-100369099D01*
X108369187Y-100171492D01*
X108460135Y-99951923D01*
X108506500Y-99718830D01*
X108506500Y-99481170D01*
X108460135Y-99248077D01*
X108369187Y-99028508D01*
X108237150Y-98830901D01*
X108069099Y-98662850D01*
X107871492Y-98530813D01*
X107651923Y-98439865D01*
X107418830Y-98393500D01*
X107181170Y-98393500D01*
X106948077Y-98439865D01*
X106728508Y-98530813D01*
X106648908Y-98584000D01*
X105700841Y-98584000D01*
X104377712Y-97260872D01*
X104523989Y-97231775D01*
X104776043Y-97127371D01*
X105002886Y-96975799D01*
X105195799Y-96782886D01*
X105347371Y-96556043D01*
X105451775Y-96303989D01*
X105505000Y-96036411D01*
X105505000Y-95763589D01*
X105451775Y-95496011D01*
X105347371Y-95243957D01*
X105195799Y-95017114D01*
X105002886Y-94824201D01*
X104776043Y-94672629D01*
X104523989Y-94568225D01*
X104256411Y-94515000D01*
X103983589Y-94515000D01*
X103716011Y-94568225D01*
X103463957Y-94672629D01*
X103237114Y-94824201D01*
X103044201Y-95017114D01*
X102892629Y-95243957D01*
X102850000Y-95346873D01*
X102807371Y-95243957D01*
X102655799Y-95017114D01*
X102462886Y-94824201D01*
X102236043Y-94672629D01*
X101983989Y-94568225D01*
X101716411Y-94515000D01*
X101443589Y-94515000D01*
X101176011Y-94568225D01*
X100923957Y-94672629D01*
X100697114Y-94824201D01*
X100504201Y-95017114D01*
X100352629Y-95243957D01*
X100310000Y-95346873D01*
X100267371Y-95243957D01*
X100115799Y-95017114D01*
X99922886Y-94824201D01*
X99696043Y-94672629D01*
X99443989Y-94568225D01*
X99176411Y-94515000D01*
X98903589Y-94515000D01*
X98636011Y-94568225D01*
X98383957Y-94672629D01*
X98157114Y-94824201D01*
X97964201Y-95017114D01*
X97886445Y-95133483D01*
X97875812Y-95025518D01*
X97839502Y-94905820D01*
X97780537Y-94795506D01*
X97739088Y-94745000D01*
X97906411Y-94745000D01*
X98173989Y-94691775D01*
X98426043Y-94587371D01*
X98652886Y-94435799D01*
X98845799Y-94242886D01*
X98997371Y-94016043D01*
X99040000Y-93913127D01*
X99082629Y-94016043D01*
X99234201Y-94242886D01*
X99427114Y-94435799D01*
X99653957Y-94587371D01*
X99906011Y-94691775D01*
X100173589Y-94745000D01*
X100446411Y-94745000D01*
X100713989Y-94691775D01*
X100966043Y-94587371D01*
X101192886Y-94435799D01*
X101385799Y-94242886D01*
X101537371Y-94016043D01*
X101580000Y-93913127D01*
X101622629Y-94016043D01*
X101774201Y-94242886D01*
X101967114Y-94435799D01*
X102193957Y-94587371D01*
X102446011Y-94691775D01*
X102713589Y-94745000D01*
X102986411Y-94745000D01*
X103253989Y-94691775D01*
X103506043Y-94587371D01*
X103732886Y-94435799D01*
X103925799Y-94242886D01*
X104077371Y-94016043D01*
X104120000Y-93913127D01*
X104162629Y-94016043D01*
X104314201Y-94242886D01*
X104507114Y-94435799D01*
X104733957Y-94587371D01*
X104986011Y-94691775D01*
X105253589Y-94745000D01*
X105526411Y-94745000D01*
X105793989Y-94691775D01*
X106046043Y-94587371D01*
X106272886Y-94435799D01*
X106465799Y-94242886D01*
X106617371Y-94016043D01*
X106721775Y-93763989D01*
X106775000Y-93496411D01*
X106775000Y-93223589D01*
X106721775Y-92956011D01*
X106683662Y-92863999D01*
X108596567Y-92863999D01*
X110470864Y-94738297D01*
X110324698Y-94835961D01*
X110115961Y-95044698D01*
X109951958Y-95290147D01*
X109838990Y-95562875D01*
X109781400Y-95852401D01*
X109781400Y-96147599D01*
X109838990Y-96437125D01*
X109951958Y-96709853D01*
X110115961Y-96955302D01*
X110324698Y-97164039D01*
X110483281Y-97270000D01*
X110324698Y-97375961D01*
X110115961Y-97584698D01*
X109951958Y-97830147D01*
X109838990Y-98102875D01*
X109781400Y-98392401D01*
X109781400Y-98687599D01*
X109838990Y-98977125D01*
X109951958Y-99249853D01*
X110115961Y-99495302D01*
X110324698Y-99704039D01*
X110483281Y-99810000D01*
X110324698Y-99915961D01*
X110115961Y-100124698D01*
X109951958Y-100370147D01*
X109838990Y-100642875D01*
X109781400Y-100932401D01*
X109781400Y-101227599D01*
X109838990Y-101517125D01*
X109951958Y-101789853D01*
X110115961Y-102035302D01*
X110230023Y-102149364D01*
X110172220Y-102166898D01*
X110061906Y-102225863D01*
X109965215Y-102305215D01*
X109885863Y-102401906D01*
X109826898Y-102512220D01*
X109790588Y-102631918D01*
X109778328Y-102756400D01*
X109781400Y-103334250D01*
X109940150Y-103493000D01*
X111153000Y-103493000D01*
X111153000Y-103473000D01*
X111407000Y-103473000D01*
X111407000Y-103493000D01*
X112619850Y-103493000D01*
X112778600Y-103334250D01*
X112781672Y-102756400D01*
X112769412Y-102631918D01*
X112733102Y-102512220D01*
X112674137Y-102401906D01*
X112594785Y-102305215D01*
X112498094Y-102225863D01*
X112387780Y-102166898D01*
X112329977Y-102149364D01*
X112444039Y-102035302D01*
X112608042Y-101789853D01*
X112721010Y-101517125D01*
X112778600Y-101227599D01*
X112778600Y-100932401D01*
X112762105Y-100849474D01*
X113395049Y-100216530D01*
X113428817Y-100188817D01*
X113500978Y-100100890D01*
X113539411Y-100054059D01*
X113621589Y-99900314D01*
X113672195Y-99733490D01*
X113673639Y-99718830D01*
X113685000Y-99603477D01*
X113685000Y-99603469D01*
X113689281Y-99560000D01*
X113685000Y-99516531D01*
X113685000Y-98893679D01*
X120620500Y-98893679D01*
X120620500Y-99106321D01*
X120661985Y-99314878D01*
X120743360Y-99511335D01*
X120861498Y-99688141D01*
X121011859Y-99838502D01*
X121188665Y-99956640D01*
X121385122Y-100038015D01*
X121593679Y-100079500D01*
X121806321Y-100079500D01*
X122014878Y-100038015D01*
X122211335Y-99956640D01*
X122388141Y-99838502D01*
X122538502Y-99688141D01*
X122656640Y-99511335D01*
X122738015Y-99314878D01*
X122779500Y-99106321D01*
X122779500Y-99087933D01*
X123724338Y-98143095D01*
X123749878Y-98138015D01*
X123946335Y-98056640D01*
X124123141Y-97938502D01*
X124273502Y-97788141D01*
X124391640Y-97611335D01*
X124473015Y-97414878D01*
X124514500Y-97206321D01*
X124514500Y-96993679D01*
X124473015Y-96785122D01*
X124391640Y-96588665D01*
X124273502Y-96411859D01*
X124123141Y-96261498D01*
X123946335Y-96143360D01*
X123749878Y-96061985D01*
X123541321Y-96020500D01*
X123328679Y-96020500D01*
X123120122Y-96061985D01*
X122923665Y-96143360D01*
X122746859Y-96261498D01*
X122596498Y-96411859D01*
X122478360Y-96588665D01*
X122396985Y-96785122D01*
X122355500Y-96993679D01*
X122355500Y-97177067D01*
X121612067Y-97920500D01*
X121593679Y-97920500D01*
X121385122Y-97961985D01*
X121188665Y-98043360D01*
X121011859Y-98161498D01*
X120861498Y-98311859D01*
X120743360Y-98488665D01*
X120661985Y-98685122D01*
X120620500Y-98893679D01*
X113685000Y-98893679D01*
X113685000Y-94956523D01*
X113672195Y-94826510D01*
X113621589Y-94659687D01*
X113568666Y-94560675D01*
X113714039Y-94415302D01*
X113820000Y-94256719D01*
X113925961Y-94415302D01*
X114134698Y-94624039D01*
X114380147Y-94788042D01*
X114652875Y-94901010D01*
X114942401Y-94958600D01*
X115237599Y-94958600D01*
X115527125Y-94901010D01*
X115799853Y-94788042D01*
X116045302Y-94624039D01*
X116254039Y-94415302D01*
X116360000Y-94256719D01*
X116465961Y-94415302D01*
X116674698Y-94624039D01*
X116920147Y-94788042D01*
X117192875Y-94901010D01*
X117482401Y-94958600D01*
X117777599Y-94958600D01*
X118067125Y-94901010D01*
X118339853Y-94788042D01*
X118585302Y-94624039D01*
X118794039Y-94415302D01*
X118900000Y-94256719D01*
X119005961Y-94415302D01*
X119214698Y-94624039D01*
X119460147Y-94788042D01*
X119732875Y-94901010D01*
X120022401Y-94958600D01*
X120317599Y-94958600D01*
X120607125Y-94901010D01*
X120879853Y-94788042D01*
X121125302Y-94624039D01*
X121239364Y-94509977D01*
X121256898Y-94567780D01*
X121315863Y-94678094D01*
X121395215Y-94774785D01*
X121491906Y-94854137D01*
X121602220Y-94913102D01*
X121721918Y-94949412D01*
X121846400Y-94961672D01*
X123573600Y-94961672D01*
X123698082Y-94949412D01*
X123817780Y-94913102D01*
X123928094Y-94854137D01*
X123980000Y-94811539D01*
X124031906Y-94854137D01*
X124142220Y-94913102D01*
X124261918Y-94949412D01*
X124386400Y-94961672D01*
X125438987Y-94961672D01*
X125355961Y-95044698D01*
X125191958Y-95290147D01*
X125078990Y-95562875D01*
X125021400Y-95852401D01*
X125021400Y-96147599D01*
X125078990Y-96437125D01*
X125191958Y-96709853D01*
X125355961Y-96955302D01*
X125470023Y-97069364D01*
X125412220Y-97086898D01*
X125301906Y-97145863D01*
X125205215Y-97225215D01*
X125125863Y-97321906D01*
X125066898Y-97432220D01*
X125030588Y-97551918D01*
X125018328Y-97676400D01*
X125021400Y-98254250D01*
X125180150Y-98413000D01*
X126393000Y-98413000D01*
X126393000Y-98393000D01*
X126647000Y-98393000D01*
X126647000Y-98413000D01*
X126667000Y-98413000D01*
X126667000Y-98667000D01*
X126647000Y-98667000D01*
X126647000Y-98687000D01*
X126393000Y-98687000D01*
X126393000Y-98667000D01*
X125180150Y-98667000D01*
X125021400Y-98825750D01*
X125018328Y-99403600D01*
X125030588Y-99528082D01*
X125066898Y-99647780D01*
X125125863Y-99758094D01*
X125205215Y-99854785D01*
X125301906Y-99934137D01*
X125412220Y-99993102D01*
X125470023Y-100010636D01*
X125355961Y-100124698D01*
X125191958Y-100370147D01*
X125078990Y-100642875D01*
X125021400Y-100932401D01*
X125021400Y-101227599D01*
X125078990Y-101517125D01*
X125171474Y-101740401D01*
X123757611Y-101740401D01*
X123707709Y-101735486D01*
X123657807Y-101740401D01*
X123508538Y-101755103D01*
X123317022Y-101813199D01*
X123140519Y-101907541D01*
X122985813Y-102034505D01*
X122954001Y-102073268D01*
X113423373Y-111603897D01*
X113384605Y-111635713D01*
X113257641Y-111790419D01*
X113163299Y-111966923D01*
X113144833Y-112027797D01*
X113105203Y-112158439D01*
X113085586Y-112357609D01*
X113090501Y-112407511D01*
X113090502Y-123702657D01*
X112778600Y-124014559D01*
X112778600Y-123792401D01*
X112721010Y-123502875D01*
X112608042Y-123230147D01*
X112444039Y-122984698D01*
X112235302Y-122775961D01*
X112076719Y-122670000D01*
X112235302Y-122564039D01*
X112444039Y-122355302D01*
X112608042Y-122109853D01*
X112721010Y-121837125D01*
X112778600Y-121547599D01*
X112778600Y-121252401D01*
X112721010Y-120962875D01*
X112608042Y-120690147D01*
X112444039Y-120444698D01*
X112235302Y-120235961D01*
X112076719Y-120130000D01*
X112235302Y-120024039D01*
X112444039Y-119815302D01*
X112608042Y-119569853D01*
X112721010Y-119297125D01*
X112778600Y-119007599D01*
X112778600Y-118712401D01*
X112721010Y-118422875D01*
X112608042Y-118150147D01*
X112444039Y-117904698D01*
X112235302Y-117695961D01*
X112076719Y-117590000D01*
X112235302Y-117484039D01*
X112444039Y-117275302D01*
X112608042Y-117029853D01*
X112721010Y-116757125D01*
X112778600Y-116467599D01*
X112778600Y-116172401D01*
X112721010Y-115882875D01*
X112608042Y-115610147D01*
X112444039Y-115364698D01*
X112235302Y-115155961D01*
X112076719Y-115050000D01*
X112235302Y-114944039D01*
X112444039Y-114735302D01*
X112608042Y-114489853D01*
X112721010Y-114217125D01*
X112778600Y-113927599D01*
X112778600Y-113632401D01*
X112721010Y-113342875D01*
X112608042Y-113070147D01*
X112444039Y-112824698D01*
X112235302Y-112615961D01*
X112076719Y-112510000D01*
X112235302Y-112404039D01*
X112444039Y-112195302D01*
X112608042Y-111949853D01*
X112721010Y-111677125D01*
X112778600Y-111387599D01*
X112778600Y-111092401D01*
X112721010Y-110802875D01*
X112608042Y-110530147D01*
X112444039Y-110284698D01*
X112235302Y-110075961D01*
X112076719Y-109970000D01*
X112235302Y-109864039D01*
X112444039Y-109655302D01*
X112608042Y-109409853D01*
X112721010Y-109137125D01*
X112778600Y-108847599D01*
X112778600Y-108552401D01*
X112721010Y-108262875D01*
X112608042Y-107990147D01*
X112444039Y-107744698D01*
X112235302Y-107535961D01*
X112076719Y-107430000D01*
X112235302Y-107324039D01*
X112444039Y-107115302D01*
X112608042Y-106869853D01*
X112721010Y-106597125D01*
X112778600Y-106307599D01*
X112778600Y-106012401D01*
X112721010Y-105722875D01*
X112608042Y-105450147D01*
X112444039Y-105204698D01*
X112329977Y-105090636D01*
X112387780Y-105073102D01*
X112498094Y-105014137D01*
X112594785Y-104934785D01*
X112674137Y-104838094D01*
X112733102Y-104727780D01*
X112769412Y-104608082D01*
X112781672Y-104483600D01*
X112778600Y-103905750D01*
X112619850Y-103747000D01*
X111407000Y-103747000D01*
X111407000Y-103767000D01*
X111153000Y-103767000D01*
X111153000Y-103747000D01*
X109940150Y-103747000D01*
X109781400Y-103905750D01*
X109778328Y-104483600D01*
X109790588Y-104608082D01*
X109826898Y-104727780D01*
X109885863Y-104838094D01*
X109965215Y-104934785D01*
X110061906Y-105014137D01*
X110172220Y-105073102D01*
X110230023Y-105090636D01*
X110115961Y-105204698D01*
X109951958Y-105450147D01*
X109838990Y-105722875D01*
X109781400Y-106012401D01*
X109781400Y-106307599D01*
X109838990Y-106597125D01*
X109951958Y-106869853D01*
X110115961Y-107115302D01*
X110324698Y-107324039D01*
X110483281Y-107430000D01*
X110324698Y-107535961D01*
X110115961Y-107744698D01*
X109951958Y-107990147D01*
X109838990Y-108262875D01*
X109781400Y-108552401D01*
X109781400Y-108847599D01*
X109838990Y-109137125D01*
X109951958Y-109409853D01*
X110115961Y-109655302D01*
X110324698Y-109864039D01*
X110483281Y-109970000D01*
X110324698Y-110075961D01*
X110115961Y-110284698D01*
X109951958Y-110530147D01*
X109838990Y-110802875D01*
X109781400Y-111092401D01*
X109781400Y-111387599D01*
X109838990Y-111677125D01*
X109951958Y-111949853D01*
X110115961Y-112195302D01*
X110324698Y-112404039D01*
X110483281Y-112510000D01*
X110324698Y-112615961D01*
X110115961Y-112824698D01*
X109951958Y-113070147D01*
X109838990Y-113342875D01*
X109781400Y-113632401D01*
X109781400Y-113927599D01*
X109838990Y-114217125D01*
X109951958Y-114489853D01*
X110115961Y-114735302D01*
X110324698Y-114944039D01*
X110483281Y-115050000D01*
X110324698Y-115155961D01*
X110115961Y-115364698D01*
X109951958Y-115610147D01*
X109838990Y-115882875D01*
X109781400Y-116172401D01*
X109781400Y-116467599D01*
X109838990Y-116757125D01*
X109951958Y-117029853D01*
X110115961Y-117275302D01*
X110324698Y-117484039D01*
X110483281Y-117590000D01*
X110324698Y-117695961D01*
X110115961Y-117904698D01*
X109951958Y-118150147D01*
X109838990Y-118422875D01*
X109781400Y-118712401D01*
X109781400Y-119007599D01*
X109838990Y-119297125D01*
X109951958Y-119569853D01*
X110115961Y-119815302D01*
X110324698Y-120024039D01*
X110483281Y-120130000D01*
X110324698Y-120235961D01*
X110115961Y-120444698D01*
X109951958Y-120690147D01*
X109838990Y-120962875D01*
X109781400Y-121252401D01*
X109781400Y-121547599D01*
X109838990Y-121837125D01*
X109951958Y-122109853D01*
X110115961Y-122355302D01*
X110324698Y-122564039D01*
X110483281Y-122670000D01*
X110324698Y-122775961D01*
X110115961Y-122984698D01*
X109951958Y-123230147D01*
X109838990Y-123502875D01*
X109781400Y-123792401D01*
X109781400Y-124087599D01*
X109838990Y-124377125D01*
X109951958Y-124649853D01*
X110115961Y-124895302D01*
X110324698Y-125104039D01*
X110570147Y-125268042D01*
X110797242Y-125362108D01*
X110368000Y-125362108D01*
X110243518Y-125374368D01*
X110123820Y-125410678D01*
X110013506Y-125469643D01*
X109916815Y-125548995D01*
X109837463Y-125645686D01*
X109778498Y-125756000D01*
X109742188Y-125875698D01*
X109729928Y-126000180D01*
X109729928Y-128040000D01*
X93360000Y-128040000D01*
X93360000Y-124030000D01*
X97339831Y-124030000D01*
X97366804Y-124303860D01*
X97446686Y-124567195D01*
X97576407Y-124809887D01*
X97750982Y-125022608D01*
X97935968Y-125174421D01*
X97857108Y-125182188D01*
X97737410Y-125218498D01*
X97627096Y-125277463D01*
X97530405Y-125356815D01*
X97451053Y-125453506D01*
X97392088Y-125563820D01*
X97355778Y-125683518D01*
X97343518Y-125808000D01*
X97343518Y-127332000D01*
X97355778Y-127456482D01*
X97392088Y-127576180D01*
X97451053Y-127686494D01*
X97530405Y-127783185D01*
X97627096Y-127862537D01*
X97737410Y-127921502D01*
X97857108Y-127957812D01*
X97981590Y-127970072D01*
X99980570Y-127970072D01*
X100105052Y-127957812D01*
X100224750Y-127921502D01*
X100335064Y-127862537D01*
X100431755Y-127783185D01*
X100511107Y-127686494D01*
X100570072Y-127576180D01*
X100606382Y-127456482D01*
X100616598Y-127352752D01*
X100788822Y-127562608D01*
X101001543Y-127737183D01*
X101244235Y-127866904D01*
X101507570Y-127946786D01*
X101712805Y-127967000D01*
X102325035Y-127967000D01*
X102530270Y-127946786D01*
X102793605Y-127866904D01*
X103036297Y-127737183D01*
X103249018Y-127562608D01*
X103423593Y-127349887D01*
X103553314Y-127107195D01*
X103633196Y-126843860D01*
X103660169Y-126570000D01*
X103633196Y-126296140D01*
X103553314Y-126032805D01*
X103423593Y-125790113D01*
X103249018Y-125577392D01*
X103036297Y-125402817D01*
X102972121Y-125368514D01*
X105765000Y-125368514D01*
X105765000Y-125631486D01*
X105816304Y-125889405D01*
X105916939Y-126132359D01*
X106063038Y-126351013D01*
X106248987Y-126536962D01*
X106467641Y-126683061D01*
X106710595Y-126783696D01*
X106968514Y-126835000D01*
X107231486Y-126835000D01*
X107489405Y-126783696D01*
X107732359Y-126683061D01*
X107951013Y-126536962D01*
X108136962Y-126351013D01*
X108283061Y-126132359D01*
X108383696Y-125889405D01*
X108435000Y-125631486D01*
X108435000Y-125368514D01*
X108383696Y-125110595D01*
X108283061Y-124867641D01*
X108136962Y-124648987D01*
X107951013Y-124463038D01*
X107732359Y-124316939D01*
X107489405Y-124216304D01*
X107231486Y-124165000D01*
X106968514Y-124165000D01*
X106710595Y-124216304D01*
X106467641Y-124316939D01*
X106248987Y-124463038D01*
X106063038Y-124648987D01*
X105916939Y-124867641D01*
X105816304Y-125110595D01*
X105765000Y-125368514D01*
X102972121Y-125368514D01*
X102843939Y-125300000D01*
X103036297Y-125197183D01*
X103249018Y-125022608D01*
X103423593Y-124809887D01*
X103553314Y-124567195D01*
X103633196Y-124303860D01*
X103660169Y-124030000D01*
X103633196Y-123756140D01*
X103553314Y-123492805D01*
X103423593Y-123250113D01*
X103249018Y-123037392D01*
X103180512Y-122981170D01*
X103593500Y-122981170D01*
X103593500Y-123218830D01*
X103639865Y-123451923D01*
X103730813Y-123671492D01*
X103862850Y-123869099D01*
X104030901Y-124037150D01*
X104228508Y-124169187D01*
X104448077Y-124260135D01*
X104681170Y-124306500D01*
X104918830Y-124306500D01*
X105151923Y-124260135D01*
X105371492Y-124169187D01*
X105569099Y-124037150D01*
X105737150Y-123869099D01*
X105869187Y-123671492D01*
X105960135Y-123451923D01*
X106003642Y-123233198D01*
X106794230Y-122442611D01*
X106971492Y-122369187D01*
X107169099Y-122237150D01*
X107337150Y-122069099D01*
X107469187Y-121871492D01*
X107560135Y-121651923D01*
X107606500Y-121418830D01*
X107606500Y-121181170D01*
X107560135Y-120948077D01*
X107469187Y-120728508D01*
X107337150Y-120530901D01*
X107169099Y-120362850D01*
X106971492Y-120230813D01*
X106751923Y-120139865D01*
X106518830Y-120093500D01*
X106281170Y-120093500D01*
X106048077Y-120139865D01*
X105828508Y-120230813D01*
X105630901Y-120362850D01*
X105462850Y-120530901D01*
X105330813Y-120728508D01*
X105239865Y-120948077D01*
X105196358Y-121166801D01*
X104405771Y-121957389D01*
X104228508Y-122030813D01*
X104030901Y-122162850D01*
X103862850Y-122330901D01*
X103730813Y-122528508D01*
X103639865Y-122748077D01*
X103593500Y-122981170D01*
X103180512Y-122981170D01*
X103036297Y-122862817D01*
X102793605Y-122733096D01*
X102530270Y-122653214D01*
X102325035Y-122633000D01*
X101712805Y-122633000D01*
X101507570Y-122653214D01*
X101244235Y-122733096D01*
X101001543Y-122862817D01*
X100788822Y-123037392D01*
X100614247Y-123250113D01*
X100500000Y-123463855D01*
X100385753Y-123250113D01*
X100211178Y-123037392D01*
X99998457Y-122862817D01*
X99755765Y-122733096D01*
X99492430Y-122653214D01*
X99287195Y-122633000D01*
X98674965Y-122633000D01*
X98469730Y-122653214D01*
X98206395Y-122733096D01*
X97963703Y-122862817D01*
X97750982Y-123037392D01*
X97576407Y-123250113D01*
X97446686Y-123492805D01*
X97366804Y-123756140D01*
X97339831Y-124030000D01*
X93360000Y-124030000D01*
X93360000Y-118330000D01*
X97339831Y-118330000D01*
X97366804Y-118603860D01*
X97446686Y-118867195D01*
X97576407Y-119109887D01*
X97750982Y-119322608D01*
X97935968Y-119474421D01*
X97857108Y-119482188D01*
X97737410Y-119518498D01*
X97627096Y-119577463D01*
X97530405Y-119656815D01*
X97451053Y-119753506D01*
X97392088Y-119863820D01*
X97355778Y-119983518D01*
X97343518Y-120108000D01*
X97343518Y-121632000D01*
X97355778Y-121756482D01*
X97392088Y-121876180D01*
X97451053Y-121986494D01*
X97530405Y-122083185D01*
X97627096Y-122162537D01*
X97737410Y-122221502D01*
X97857108Y-122257812D01*
X97981590Y-122270072D01*
X99980570Y-122270072D01*
X100105052Y-122257812D01*
X100224750Y-122221502D01*
X100335064Y-122162537D01*
X100431755Y-122083185D01*
X100511107Y-121986494D01*
X100570072Y-121876180D01*
X100606382Y-121756482D01*
X100616598Y-121652752D01*
X100788822Y-121862608D01*
X101001543Y-122037183D01*
X101244235Y-122166904D01*
X101507570Y-122246786D01*
X101712805Y-122267000D01*
X102325035Y-122267000D01*
X102530270Y-122246786D01*
X102793605Y-122166904D01*
X103036297Y-122037183D01*
X103249018Y-121862608D01*
X103423593Y-121649887D01*
X103553314Y-121407195D01*
X103563620Y-121373220D01*
X104558029Y-120378812D01*
X104651923Y-120360135D01*
X104871492Y-120269187D01*
X105069099Y-120137150D01*
X105237150Y-119969099D01*
X105369187Y-119771492D01*
X105460135Y-119551923D01*
X105506500Y-119318830D01*
X105506500Y-119081170D01*
X105460135Y-118848077D01*
X105369187Y-118628508D01*
X105237150Y-118430901D01*
X105069099Y-118262850D01*
X104871492Y-118130813D01*
X104651923Y-118039865D01*
X104418830Y-117993500D01*
X104181170Y-117993500D01*
X103948077Y-118039865D01*
X103728508Y-118130813D01*
X103645982Y-118185955D01*
X103633196Y-118056140D01*
X103553314Y-117792805D01*
X103529641Y-117748514D01*
X105765000Y-117748514D01*
X105765000Y-118011486D01*
X105816304Y-118269405D01*
X105916939Y-118512359D01*
X106063038Y-118731013D01*
X106248987Y-118916962D01*
X106467641Y-119063061D01*
X106710595Y-119163696D01*
X106968514Y-119215000D01*
X107231486Y-119215000D01*
X107489405Y-119163696D01*
X107732359Y-119063061D01*
X107951013Y-118916962D01*
X108136962Y-118731013D01*
X108283061Y-118512359D01*
X108383696Y-118269405D01*
X108435000Y-118011486D01*
X108435000Y-117748514D01*
X108383696Y-117490595D01*
X108283061Y-117247641D01*
X108136962Y-117028987D01*
X107951013Y-116843038D01*
X107732359Y-116696939D01*
X107489405Y-116596304D01*
X107231486Y-116545000D01*
X106968514Y-116545000D01*
X106710595Y-116596304D01*
X106467641Y-116696939D01*
X106248987Y-116843038D01*
X106063038Y-117028987D01*
X105916939Y-117247641D01*
X105816304Y-117490595D01*
X105765000Y-117748514D01*
X103529641Y-117748514D01*
X103423593Y-117550113D01*
X103249018Y-117337392D01*
X103036297Y-117162817D01*
X102793605Y-117033096D01*
X102530270Y-116953214D01*
X102325035Y-116933000D01*
X101712805Y-116933000D01*
X101507570Y-116953214D01*
X101244235Y-117033096D01*
X101001543Y-117162817D01*
X100788822Y-117337392D01*
X100614247Y-117550113D01*
X100500000Y-117763855D01*
X100385753Y-117550113D01*
X100211178Y-117337392D01*
X99998457Y-117162817D01*
X99755765Y-117033096D01*
X99492430Y-116953214D01*
X99287195Y-116933000D01*
X98674965Y-116933000D01*
X98469730Y-116953214D01*
X98206395Y-117033096D01*
X97963703Y-117162817D01*
X97750982Y-117337392D01*
X97576407Y-117550113D01*
X97446686Y-117792805D01*
X97366804Y-118056140D01*
X97339831Y-118330000D01*
X93360000Y-118330000D01*
X93360000Y-103474240D01*
X93493962Y-103674729D01*
X93805271Y-103986038D01*
X94171331Y-104230631D01*
X94578075Y-104399110D01*
X95009872Y-104485000D01*
X95450128Y-104485000D01*
X95881925Y-104399110D01*
X96288669Y-104230631D01*
X96654729Y-103986038D01*
X96966038Y-103674729D01*
X97210631Y-103308669D01*
X97379110Y-102901925D01*
X97465000Y-102470128D01*
X97465000Y-102029872D01*
X97379110Y-101598075D01*
X97210631Y-101191331D01*
X96966038Y-100825271D01*
X96654729Y-100513962D01*
X96288669Y-100269369D01*
X95881925Y-100100890D01*
X95450128Y-100015000D01*
X95009872Y-100015000D01*
X94578075Y-100100890D01*
X94171331Y-100269369D01*
X93805271Y-100513962D01*
X93493962Y-100825271D01*
X93360000Y-101025760D01*
X93360000Y-96650000D01*
X95111928Y-96650000D01*
X95124188Y-96774482D01*
X95160498Y-96894180D01*
X95219463Y-97004494D01*
X95298815Y-97101185D01*
X95395506Y-97180537D01*
X95505820Y-97239502D01*
X95625518Y-97275812D01*
X95750000Y-97288072D01*
X96214250Y-97285000D01*
X96373000Y-97126250D01*
X96373000Y-96027000D01*
X95273750Y-96027000D01*
X95115000Y-96185750D01*
X95111928Y-96650000D01*
X93360000Y-96650000D01*
X93360000Y-95150000D01*
X95111928Y-95150000D01*
X95115000Y-95614250D01*
X95273750Y-95773000D01*
X96373000Y-95773000D01*
X96373000Y-94673750D01*
X96214250Y-94515000D01*
X95750000Y-94511928D01*
X95625518Y-94524188D01*
X95505820Y-94560498D01*
X95395506Y-94619463D01*
X95298815Y-94698815D01*
X95219463Y-94795506D01*
X95160498Y-94905820D01*
X95124188Y-95025518D01*
X95111928Y-95150000D01*
X93360000Y-95150000D01*
X93360000Y-85360000D01*
X104145285Y-85360000D01*
X104050982Y-85437392D01*
%TA.AperFunction,Conductor*%
D32*
G36*
X104050982Y-85437392D02*
G01*
X103876407Y-85650113D01*
X103746686Y-85892805D01*
X103666804Y-86156140D01*
X103639831Y-86430000D01*
X103666804Y-86703860D01*
X103746686Y-86967195D01*
X103876407Y-87209887D01*
X104050982Y-87422608D01*
X104263703Y-87597183D01*
X104456061Y-87700000D01*
X104263703Y-87802817D01*
X104050982Y-87977392D01*
X103876407Y-88190113D01*
X103746686Y-88432805D01*
X103666804Y-88696140D01*
X103639831Y-88970000D01*
X103666804Y-89243860D01*
X103746686Y-89507195D01*
X103876407Y-89749887D01*
X104050982Y-89962608D01*
X104263703Y-90137183D01*
X104506395Y-90266904D01*
X104769730Y-90346786D01*
X104974965Y-90367000D01*
X105145988Y-90367000D01*
X105872986Y-91093999D01*
X104274466Y-91093999D01*
X104231000Y-91089718D01*
X104187534Y-91093999D01*
X104187524Y-91093999D01*
X104057511Y-91106804D01*
X103890688Y-91157410D01*
X103736942Y-91239588D01*
X103727049Y-91247707D01*
X103635954Y-91322467D01*
X103635952Y-91322469D01*
X103602184Y-91350182D01*
X103574471Y-91383950D01*
X102983421Y-91975000D01*
X102713589Y-91975000D01*
X102446011Y-92028225D01*
X102193957Y-92132629D01*
X101967114Y-92284201D01*
X101774201Y-92477114D01*
X101622629Y-92703957D01*
X101580000Y-92806873D01*
X101537371Y-92703957D01*
X101385799Y-92477114D01*
X101192886Y-92284201D01*
X100966043Y-92132629D01*
X100713989Y-92028225D01*
X100446411Y-91975000D01*
X100311841Y-91975000D01*
X99178812Y-90841972D01*
X99160135Y-90748077D01*
X99069187Y-90528508D01*
X98937150Y-90330901D01*
X98851671Y-90245422D01*
X98931094Y-90219571D01*
X99206923Y-90075969D01*
X99449437Y-89881315D01*
X99604837Y-89696101D01*
X99752037Y-89875463D01*
X99993766Y-90073845D01*
X100269552Y-90221255D01*
X100568797Y-90312030D01*
X100880000Y-90342681D01*
X101191204Y-90312030D01*
X101490449Y-90221255D01*
X101766235Y-90073845D01*
X102007963Y-89875463D01*
X102206345Y-89633734D01*
X102353755Y-89357948D01*
X102444530Y-89058703D01*
X102467500Y-88825485D01*
X102467500Y-88574514D01*
X102444530Y-88341296D01*
X102353755Y-88042051D01*
X102206345Y-87766265D01*
X102007963Y-87524537D01*
X101766234Y-87326155D01*
X101490448Y-87178745D01*
X101191203Y-87087970D01*
X100880000Y-87057319D01*
X100568796Y-87087970D01*
X100269551Y-87178745D01*
X99993765Y-87326155D01*
X99752037Y-87524537D01*
X99604838Y-87703900D01*
X99449437Y-87518685D01*
X99206923Y-87324031D01*
X98931094Y-87180429D01*
X98712980Y-87109437D01*
X98467000Y-87229406D01*
X98467000Y-88573000D01*
X98487000Y-88573000D01*
X98487000Y-88827000D01*
X98467000Y-88827000D01*
X98467000Y-88847000D01*
X98213000Y-88847000D01*
X98213000Y-88827000D01*
X98193000Y-88827000D01*
X98193000Y-88573000D01*
X98213000Y-88573000D01*
X98213000Y-87229406D01*
X97967020Y-87109437D01*
X97748906Y-87180429D01*
X97473077Y-87324031D01*
X97332059Y-87437219D01*
X97283037Y-87345506D01*
X97203685Y-87248815D01*
X97106994Y-87169463D01*
X96996680Y-87110498D01*
X96876982Y-87074188D01*
X96752500Y-87061928D01*
X94847500Y-87061928D01*
X94723018Y-87074188D01*
X94603320Y-87110498D01*
X94493006Y-87169463D01*
X94396315Y-87248815D01*
X94316963Y-87345506D01*
X94257998Y-87455820D01*
X94221688Y-87575518D01*
X94209428Y-87700000D01*
X94209428Y-89700000D01*
X94221688Y-89824482D01*
X94257998Y-89944180D01*
X94316963Y-90054494D01*
X94396315Y-90151185D01*
X94493006Y-90230537D01*
X94603320Y-90289502D01*
X94723018Y-90325812D01*
X94847500Y-90338072D01*
X96752500Y-90338072D01*
X96876982Y-90325812D01*
X96996680Y-90289502D01*
X97106994Y-90230537D01*
X97203685Y-90151185D01*
X97283037Y-90054494D01*
X97332059Y-89962781D01*
X97422129Y-90035075D01*
X97230901Y-90162850D01*
X97062850Y-90330901D01*
X96930813Y-90528508D01*
X96839865Y-90748077D01*
X96793500Y-90981170D01*
X96793500Y-91218830D01*
X96839865Y-91451923D01*
X96930813Y-91671492D01*
X97062850Y-91869099D01*
X97230901Y-92037150D01*
X97274360Y-92066188D01*
X97113957Y-92132629D01*
X96887114Y-92284201D01*
X96694201Y-92477114D01*
X96542629Y-92703957D01*
X96438225Y-92956011D01*
X96385000Y-93223589D01*
X96385000Y-93496411D01*
X96438225Y-93763989D01*
X96542629Y-94016043D01*
X96694201Y-94242886D01*
X96887114Y-94435799D01*
X97003490Y-94513559D01*
X96785750Y-94515000D01*
X96627000Y-94673750D01*
X96627000Y-95773000D01*
X96647000Y-95773000D01*
X96647000Y-96027000D01*
X96627000Y-96027000D01*
X96627000Y-97126250D01*
X96785750Y-97285000D01*
X97250000Y-97288072D01*
X97374482Y-97275812D01*
X97494180Y-97239502D01*
X97604494Y-97180537D01*
X97701185Y-97101185D01*
X97780537Y-97004494D01*
X97839502Y-96894180D01*
X97875812Y-96774482D01*
X97886445Y-96666517D01*
X97964201Y-96782886D01*
X98157114Y-96975799D01*
X98383957Y-97127371D01*
X98636011Y-97231775D01*
X98903589Y-97285000D01*
X98988160Y-97285000D01*
X103184000Y-101480841D01*
X103184000Y-101531973D01*
X103161985Y-101585122D01*
X103120500Y-101793679D01*
X103120500Y-102006321D01*
X103159839Y-102204089D01*
X103114419Y-102173740D01*
X102894850Y-102082792D01*
X102800956Y-102064115D01*
X101085461Y-100348621D01*
X101043202Y-100209313D01*
X100948860Y-100032810D01*
X100821896Y-99878104D01*
X100783133Y-99846292D01*
X100578812Y-99641971D01*
X100560135Y-99548077D01*
X100469187Y-99328508D01*
X100337150Y-99130901D01*
X100169099Y-98962850D01*
X99971492Y-98830813D01*
X99751923Y-98739865D01*
X99518830Y-98693500D01*
X99281170Y-98693500D01*
X99048077Y-98739865D01*
X98828508Y-98830813D01*
X98630901Y-98962850D01*
X98462850Y-99130901D01*
X98330813Y-99328508D01*
X98239865Y-99548077D01*
X98193500Y-99781170D01*
X98193500Y-100018830D01*
X98239865Y-100251923D01*
X98330813Y-100471492D01*
X98462850Y-100669099D01*
X98630901Y-100837150D01*
X98828508Y-100969187D01*
X99048077Y-101060135D01*
X99121634Y-101074766D01*
X99156798Y-101190687D01*
X99251140Y-101367190D01*
X99378104Y-101521896D01*
X99416871Y-101553711D01*
X100074799Y-102211639D01*
X100028508Y-102230813D01*
X99830901Y-102362850D01*
X99662850Y-102530901D01*
X99530813Y-102728508D01*
X99530574Y-102729085D01*
X97638472Y-104621188D01*
X97544577Y-104639865D01*
X97325008Y-104730813D01*
X97127401Y-104862850D01*
X96959350Y-105030901D01*
X96827313Y-105228508D01*
X96736365Y-105448077D01*
X96690000Y-105681170D01*
X96690000Y-105918830D01*
X96736365Y-106151923D01*
X96827313Y-106371492D01*
X96959350Y-106569099D01*
X97127401Y-106737150D01*
X97325008Y-106869187D01*
X97544577Y-106960135D01*
X97777670Y-107006500D01*
X98015330Y-107006500D01*
X98248423Y-106960135D01*
X98467992Y-106869187D01*
X98665599Y-106737150D01*
X98833650Y-106569099D01*
X98965687Y-106371492D01*
X99056635Y-106151923D01*
X99075312Y-106058028D01*
X100626841Y-104506500D01*
X100718830Y-104506500D01*
X100951923Y-104460135D01*
X101171492Y-104369187D01*
X101369099Y-104237150D01*
X101537150Y-104069099D01*
X101590531Y-103989209D01*
X101605777Y-104012026D01*
X101773828Y-104180077D01*
X101971435Y-104312114D01*
X102191004Y-104403062D01*
X102424097Y-104449427D01*
X102661757Y-104449427D01*
X102894850Y-104403062D01*
X103114419Y-104312114D01*
X103312026Y-104180077D01*
X103480077Y-104012026D01*
X103612114Y-103814419D01*
X103703062Y-103594850D01*
X103749427Y-103361757D01*
X103749427Y-103124097D01*
X103703062Y-102891004D01*
X103688862Y-102856722D01*
X103885122Y-102938015D01*
X104093679Y-102979500D01*
X104306321Y-102979500D01*
X104514878Y-102938015D01*
X104524234Y-102934140D01*
X104679369Y-103308669D01*
X104923962Y-103674729D01*
X105235271Y-103986038D01*
X105601331Y-104230631D01*
X106008075Y-104399110D01*
X106439872Y-104485000D01*
X106880128Y-104485000D01*
X107311925Y-104399110D01*
X107718669Y-104230631D01*
X108084729Y-103986038D01*
X108396038Y-103674729D01*
X108640631Y-103308669D01*
X108809110Y-102901925D01*
X108895000Y-102470128D01*
X108895000Y-102029872D01*
X108809110Y-101598075D01*
X108640631Y-101191331D01*
X108396038Y-100825271D01*
X108088508Y-100517741D01*
X108237150Y-100369099D01*
X108369187Y-100171492D01*
X108460135Y-99951923D01*
X108506500Y-99718830D01*
X108506500Y-99481170D01*
X108460135Y-99248077D01*
X108369187Y-99028508D01*
X108237150Y-98830901D01*
X108069099Y-98662850D01*
X107871492Y-98530813D01*
X107651923Y-98439865D01*
X107418830Y-98393500D01*
X107181170Y-98393500D01*
X106948077Y-98439865D01*
X106728508Y-98530813D01*
X106648908Y-98584000D01*
X105700841Y-98584000D01*
X104377712Y-97260872D01*
X104523989Y-97231775D01*
X104776043Y-97127371D01*
X105002886Y-96975799D01*
X105195799Y-96782886D01*
X105347371Y-96556043D01*
X105451775Y-96303989D01*
X105505000Y-96036411D01*
X105505000Y-95763589D01*
X105451775Y-95496011D01*
X105347371Y-95243957D01*
X105195799Y-95017114D01*
X105002886Y-94824201D01*
X104776043Y-94672629D01*
X104523989Y-94568225D01*
X104256411Y-94515000D01*
X103983589Y-94515000D01*
X103716011Y-94568225D01*
X103463957Y-94672629D01*
X103237114Y-94824201D01*
X103044201Y-95017114D01*
X102892629Y-95243957D01*
X102850000Y-95346873D01*
X102807371Y-95243957D01*
X102655799Y-95017114D01*
X102462886Y-94824201D01*
X102236043Y-94672629D01*
X101983989Y-94568225D01*
X101716411Y-94515000D01*
X101443589Y-94515000D01*
X101176011Y-94568225D01*
X100923957Y-94672629D01*
X100697114Y-94824201D01*
X100504201Y-95017114D01*
X100352629Y-95243957D01*
X100310000Y-95346873D01*
X100267371Y-95243957D01*
X100115799Y-95017114D01*
X99922886Y-94824201D01*
X99696043Y-94672629D01*
X99443989Y-94568225D01*
X99176411Y-94515000D01*
X98903589Y-94515000D01*
X98636011Y-94568225D01*
X98383957Y-94672629D01*
X98157114Y-94824201D01*
X97964201Y-95017114D01*
X97886445Y-95133483D01*
X97875812Y-95025518D01*
X97839502Y-94905820D01*
X97780537Y-94795506D01*
X97739088Y-94745000D01*
X97906411Y-94745000D01*
X98173989Y-94691775D01*
X98426043Y-94587371D01*
X98652886Y-94435799D01*
X98845799Y-94242886D01*
X98997371Y-94016043D01*
X99040000Y-93913127D01*
X99082629Y-94016043D01*
X99234201Y-94242886D01*
X99427114Y-94435799D01*
X99653957Y-94587371D01*
X99906011Y-94691775D01*
X100173589Y-94745000D01*
X100446411Y-94745000D01*
X100713989Y-94691775D01*
X100966043Y-94587371D01*
X101192886Y-94435799D01*
X101385799Y-94242886D01*
X101537371Y-94016043D01*
X101580000Y-93913127D01*
X101622629Y-94016043D01*
X101774201Y-94242886D01*
X101967114Y-94435799D01*
X102193957Y-94587371D01*
X102446011Y-94691775D01*
X102713589Y-94745000D01*
X102986411Y-94745000D01*
X103253989Y-94691775D01*
X103506043Y-94587371D01*
X103732886Y-94435799D01*
X103925799Y-94242886D01*
X104077371Y-94016043D01*
X104120000Y-93913127D01*
X104162629Y-94016043D01*
X104314201Y-94242886D01*
X104507114Y-94435799D01*
X104733957Y-94587371D01*
X104986011Y-94691775D01*
X105253589Y-94745000D01*
X105526411Y-94745000D01*
X105793989Y-94691775D01*
X106046043Y-94587371D01*
X106272886Y-94435799D01*
X106465799Y-94242886D01*
X106617371Y-94016043D01*
X106721775Y-93763989D01*
X106775000Y-93496411D01*
X106775000Y-93223589D01*
X106721775Y-92956011D01*
X106683662Y-92863999D01*
X108596567Y-92863999D01*
X110470864Y-94738297D01*
X110324698Y-94835961D01*
X110115961Y-95044698D01*
X109951958Y-95290147D01*
X109838990Y-95562875D01*
X109781400Y-95852401D01*
X109781400Y-96147599D01*
X109838990Y-96437125D01*
X109951958Y-96709853D01*
X110115961Y-96955302D01*
X110324698Y-97164039D01*
X110483281Y-97270000D01*
X110324698Y-97375961D01*
X110115961Y-97584698D01*
X109951958Y-97830147D01*
X109838990Y-98102875D01*
X109781400Y-98392401D01*
X109781400Y-98687599D01*
X109838990Y-98977125D01*
X109951958Y-99249853D01*
X110115961Y-99495302D01*
X110324698Y-99704039D01*
X110483281Y-99810000D01*
X110324698Y-99915961D01*
X110115961Y-100124698D01*
X109951958Y-100370147D01*
X109838990Y-100642875D01*
X109781400Y-100932401D01*
X109781400Y-101227599D01*
X109838990Y-101517125D01*
X109951958Y-101789853D01*
X110115961Y-102035302D01*
X110230023Y-102149364D01*
X110172220Y-102166898D01*
X110061906Y-102225863D01*
X109965215Y-102305215D01*
X109885863Y-102401906D01*
X109826898Y-102512220D01*
X109790588Y-102631918D01*
X109778328Y-102756400D01*
X109781400Y-103334250D01*
X109940150Y-103493000D01*
X111153000Y-103493000D01*
X111153000Y-103473000D01*
X111407000Y-103473000D01*
X111407000Y-103493000D01*
X112619850Y-103493000D01*
X112778600Y-103334250D01*
X112781672Y-102756400D01*
X112769412Y-102631918D01*
X112733102Y-102512220D01*
X112674137Y-102401906D01*
X112594785Y-102305215D01*
X112498094Y-102225863D01*
X112387780Y-102166898D01*
X112329977Y-102149364D01*
X112444039Y-102035302D01*
X112608042Y-101789853D01*
X112721010Y-101517125D01*
X112778600Y-101227599D01*
X112778600Y-100932401D01*
X112762105Y-100849474D01*
X113395049Y-100216530D01*
X113428817Y-100188817D01*
X113500978Y-100100890D01*
X113539411Y-100054059D01*
X113621589Y-99900314D01*
X113672195Y-99733490D01*
X113673639Y-99718830D01*
X113685000Y-99603477D01*
X113685000Y-99603469D01*
X113689281Y-99560000D01*
X113685000Y-99516531D01*
X113685000Y-98893679D01*
X120620500Y-98893679D01*
X120620500Y-99106321D01*
X120661985Y-99314878D01*
X120743360Y-99511335D01*
X120861498Y-99688141D01*
X121011859Y-99838502D01*
X121188665Y-99956640D01*
X121385122Y-100038015D01*
X121593679Y-100079500D01*
X121806321Y-100079500D01*
X122014878Y-100038015D01*
X122211335Y-99956640D01*
X122388141Y-99838502D01*
X122538502Y-99688141D01*
X122656640Y-99511335D01*
X122738015Y-99314878D01*
X122779500Y-99106321D01*
X122779500Y-99087933D01*
X123724338Y-98143095D01*
X123749878Y-98138015D01*
X123946335Y-98056640D01*
X124123141Y-97938502D01*
X124273502Y-97788141D01*
X124391640Y-97611335D01*
X124473015Y-97414878D01*
X124514500Y-97206321D01*
X124514500Y-96993679D01*
X124473015Y-96785122D01*
X124391640Y-96588665D01*
X124273502Y-96411859D01*
X124123141Y-96261498D01*
X123946335Y-96143360D01*
X123749878Y-96061985D01*
X123541321Y-96020500D01*
X123328679Y-96020500D01*
X123120122Y-96061985D01*
X122923665Y-96143360D01*
X122746859Y-96261498D01*
X122596498Y-96411859D01*
X122478360Y-96588665D01*
X122396985Y-96785122D01*
X122355500Y-96993679D01*
X122355500Y-97177067D01*
X121612067Y-97920500D01*
X121593679Y-97920500D01*
X121385122Y-97961985D01*
X121188665Y-98043360D01*
X121011859Y-98161498D01*
X120861498Y-98311859D01*
X120743360Y-98488665D01*
X120661985Y-98685122D01*
X120620500Y-98893679D01*
X113685000Y-98893679D01*
X113685000Y-94956523D01*
X113672195Y-94826510D01*
X113621589Y-94659687D01*
X113568666Y-94560675D01*
X113714039Y-94415302D01*
X113820000Y-94256719D01*
X113925961Y-94415302D01*
X114134698Y-94624039D01*
X114380147Y-94788042D01*
X114652875Y-94901010D01*
X114942401Y-94958600D01*
X115237599Y-94958600D01*
X115527125Y-94901010D01*
X115799853Y-94788042D01*
X116045302Y-94624039D01*
X116254039Y-94415302D01*
X116360000Y-94256719D01*
X116465961Y-94415302D01*
X116674698Y-94624039D01*
X116920147Y-94788042D01*
X117192875Y-94901010D01*
X117482401Y-94958600D01*
X117777599Y-94958600D01*
X118067125Y-94901010D01*
X118339853Y-94788042D01*
X118585302Y-94624039D01*
X118794039Y-94415302D01*
X118900000Y-94256719D01*
X119005961Y-94415302D01*
X119214698Y-94624039D01*
X119460147Y-94788042D01*
X119732875Y-94901010D01*
X120022401Y-94958600D01*
X120317599Y-94958600D01*
X120607125Y-94901010D01*
X120879853Y-94788042D01*
X121125302Y-94624039D01*
X121239364Y-94509977D01*
X121256898Y-94567780D01*
X121315863Y-94678094D01*
X121395215Y-94774785D01*
X121491906Y-94854137D01*
X121602220Y-94913102D01*
X121721918Y-94949412D01*
X121846400Y-94961672D01*
X123573600Y-94961672D01*
X123698082Y-94949412D01*
X123817780Y-94913102D01*
X123928094Y-94854137D01*
X123980000Y-94811539D01*
X124031906Y-94854137D01*
X124142220Y-94913102D01*
X124261918Y-94949412D01*
X124386400Y-94961672D01*
X125438987Y-94961672D01*
X125355961Y-95044698D01*
X125191958Y-95290147D01*
X125078990Y-95562875D01*
X125021400Y-95852401D01*
X125021400Y-96147599D01*
X125078990Y-96437125D01*
X125191958Y-96709853D01*
X125355961Y-96955302D01*
X125470023Y-97069364D01*
X125412220Y-97086898D01*
X125301906Y-97145863D01*
X125205215Y-97225215D01*
X125125863Y-97321906D01*
X125066898Y-97432220D01*
X125030588Y-97551918D01*
X125018328Y-97676400D01*
X125021400Y-98254250D01*
X125180150Y-98413000D01*
X126393000Y-98413000D01*
X126393000Y-98393000D01*
X126647000Y-98393000D01*
X126647000Y-98413000D01*
X126667000Y-98413000D01*
X126667000Y-98667000D01*
X126647000Y-98667000D01*
X126647000Y-98687000D01*
X126393000Y-98687000D01*
X126393000Y-98667000D01*
X125180150Y-98667000D01*
X125021400Y-98825750D01*
X125018328Y-99403600D01*
X125030588Y-99528082D01*
X125066898Y-99647780D01*
X125125863Y-99758094D01*
X125205215Y-99854785D01*
X125301906Y-99934137D01*
X125412220Y-99993102D01*
X125470023Y-100010636D01*
X125355961Y-100124698D01*
X125191958Y-100370147D01*
X125078990Y-100642875D01*
X125021400Y-100932401D01*
X125021400Y-101227599D01*
X125078990Y-101517125D01*
X125171474Y-101740401D01*
X123757611Y-101740401D01*
X123707709Y-101735486D01*
X123657807Y-101740401D01*
X123508538Y-101755103D01*
X123317022Y-101813199D01*
X123140519Y-101907541D01*
X122985813Y-102034505D01*
X122954001Y-102073268D01*
X113423373Y-111603897D01*
X113384605Y-111635713D01*
X113257641Y-111790419D01*
X113163299Y-111966923D01*
X113144833Y-112027797D01*
X113105203Y-112158439D01*
X113085586Y-112357609D01*
X113090501Y-112407511D01*
X113090502Y-123702657D01*
X112778600Y-124014559D01*
X112778600Y-123792401D01*
X112721010Y-123502875D01*
X112608042Y-123230147D01*
X112444039Y-122984698D01*
X112235302Y-122775961D01*
X112076719Y-122670000D01*
X112235302Y-122564039D01*
X112444039Y-122355302D01*
X112608042Y-122109853D01*
X112721010Y-121837125D01*
X112778600Y-121547599D01*
X112778600Y-121252401D01*
X112721010Y-120962875D01*
X112608042Y-120690147D01*
X112444039Y-120444698D01*
X112235302Y-120235961D01*
X112076719Y-120130000D01*
X112235302Y-120024039D01*
X112444039Y-119815302D01*
X112608042Y-119569853D01*
X112721010Y-119297125D01*
X112778600Y-119007599D01*
X112778600Y-118712401D01*
X112721010Y-118422875D01*
X112608042Y-118150147D01*
X112444039Y-117904698D01*
X112235302Y-117695961D01*
X112076719Y-117590000D01*
X112235302Y-117484039D01*
X112444039Y-117275302D01*
X112608042Y-117029853D01*
X112721010Y-116757125D01*
X112778600Y-116467599D01*
X112778600Y-116172401D01*
X112721010Y-115882875D01*
X112608042Y-115610147D01*
X112444039Y-115364698D01*
X112235302Y-115155961D01*
X112076719Y-115050000D01*
X112235302Y-114944039D01*
X112444039Y-114735302D01*
X112608042Y-114489853D01*
X112721010Y-114217125D01*
X112778600Y-113927599D01*
X112778600Y-113632401D01*
X112721010Y-113342875D01*
X112608042Y-113070147D01*
X112444039Y-112824698D01*
X112235302Y-112615961D01*
X112076719Y-112510000D01*
X112235302Y-112404039D01*
X112444039Y-112195302D01*
X112608042Y-111949853D01*
X112721010Y-111677125D01*
X112778600Y-111387599D01*
X112778600Y-111092401D01*
X112721010Y-110802875D01*
X112608042Y-110530147D01*
X112444039Y-110284698D01*
X112235302Y-110075961D01*
X112076719Y-109970000D01*
X112235302Y-109864039D01*
X112444039Y-109655302D01*
X112608042Y-109409853D01*
X112721010Y-109137125D01*
X112778600Y-108847599D01*
X112778600Y-108552401D01*
X112721010Y-108262875D01*
X112608042Y-107990147D01*
X112444039Y-107744698D01*
X112235302Y-107535961D01*
X112076719Y-107430000D01*
X112235302Y-107324039D01*
X112444039Y-107115302D01*
X112608042Y-106869853D01*
X112721010Y-106597125D01*
X112778600Y-106307599D01*
X112778600Y-106012401D01*
X112721010Y-105722875D01*
X112608042Y-105450147D01*
X112444039Y-105204698D01*
X112329977Y-105090636D01*
X112387780Y-105073102D01*
X112498094Y-105014137D01*
X112594785Y-104934785D01*
X112674137Y-104838094D01*
X112733102Y-104727780D01*
X112769412Y-104608082D01*
X112781672Y-104483600D01*
X112778600Y-103905750D01*
X112619850Y-103747000D01*
X111407000Y-103747000D01*
X111407000Y-103767000D01*
X111153000Y-103767000D01*
X111153000Y-103747000D01*
X109940150Y-103747000D01*
X109781400Y-103905750D01*
X109778328Y-104483600D01*
X109790588Y-104608082D01*
X109826898Y-104727780D01*
X109885863Y-104838094D01*
X109965215Y-104934785D01*
X110061906Y-105014137D01*
X110172220Y-105073102D01*
X110230023Y-105090636D01*
X110115961Y-105204698D01*
X109951958Y-105450147D01*
X109838990Y-105722875D01*
X109781400Y-106012401D01*
X109781400Y-106307599D01*
X109838990Y-106597125D01*
X109951958Y-106869853D01*
X110115961Y-107115302D01*
X110324698Y-107324039D01*
X110483281Y-107430000D01*
X110324698Y-107535961D01*
X110115961Y-107744698D01*
X109951958Y-107990147D01*
X109838990Y-108262875D01*
X109781400Y-108552401D01*
X109781400Y-108847599D01*
X109838990Y-109137125D01*
X109951958Y-109409853D01*
X110115961Y-109655302D01*
X110324698Y-109864039D01*
X110483281Y-109970000D01*
X110324698Y-110075961D01*
X110115961Y-110284698D01*
X109951958Y-110530147D01*
X109838990Y-110802875D01*
X109781400Y-111092401D01*
X109781400Y-111387599D01*
X109838990Y-111677125D01*
X109951958Y-111949853D01*
X110115961Y-112195302D01*
X110324698Y-112404039D01*
X110483281Y-112510000D01*
X110324698Y-112615961D01*
X110115961Y-112824698D01*
X109951958Y-113070147D01*
X109838990Y-113342875D01*
X109781400Y-113632401D01*
X109781400Y-113927599D01*
X109838990Y-114217125D01*
X109951958Y-114489853D01*
X110115961Y-114735302D01*
X110324698Y-114944039D01*
X110483281Y-115050000D01*
X110324698Y-115155961D01*
X110115961Y-115364698D01*
X109951958Y-115610147D01*
X109838990Y-115882875D01*
X109781400Y-116172401D01*
X109781400Y-116467599D01*
X109838990Y-116757125D01*
X109951958Y-117029853D01*
X110115961Y-117275302D01*
X110324698Y-117484039D01*
X110483281Y-117590000D01*
X110324698Y-117695961D01*
X110115961Y-117904698D01*
X109951958Y-118150147D01*
X109838990Y-118422875D01*
X109781400Y-118712401D01*
X109781400Y-119007599D01*
X109838990Y-119297125D01*
X109951958Y-119569853D01*
X110115961Y-119815302D01*
X110324698Y-120024039D01*
X110483281Y-120130000D01*
X110324698Y-120235961D01*
X110115961Y-120444698D01*
X109951958Y-120690147D01*
X109838990Y-120962875D01*
X109781400Y-121252401D01*
X109781400Y-121547599D01*
X109838990Y-121837125D01*
X109951958Y-122109853D01*
X110115961Y-122355302D01*
X110324698Y-122564039D01*
X110483281Y-122670000D01*
X110324698Y-122775961D01*
X110115961Y-122984698D01*
X109951958Y-123230147D01*
X109838990Y-123502875D01*
X109781400Y-123792401D01*
X109781400Y-124087599D01*
X109838990Y-124377125D01*
X109951958Y-124649853D01*
X110115961Y-124895302D01*
X110324698Y-125104039D01*
X110570147Y-125268042D01*
X110797242Y-125362108D01*
X110368000Y-125362108D01*
X110243518Y-125374368D01*
X110123820Y-125410678D01*
X110013506Y-125469643D01*
X109916815Y-125548995D01*
X109837463Y-125645686D01*
X109778498Y-125756000D01*
X109742188Y-125875698D01*
X109729928Y-126000180D01*
X109729928Y-128040000D01*
X93360000Y-128040000D01*
X93360000Y-124030000D01*
X97339831Y-124030000D01*
X97366804Y-124303860D01*
X97446686Y-124567195D01*
X97576407Y-124809887D01*
X97750982Y-125022608D01*
X97935968Y-125174421D01*
X97857108Y-125182188D01*
X97737410Y-125218498D01*
X97627096Y-125277463D01*
X97530405Y-125356815D01*
X97451053Y-125453506D01*
X97392088Y-125563820D01*
X97355778Y-125683518D01*
X97343518Y-125808000D01*
X97343518Y-127332000D01*
X97355778Y-127456482D01*
X97392088Y-127576180D01*
X97451053Y-127686494D01*
X97530405Y-127783185D01*
X97627096Y-127862537D01*
X97737410Y-127921502D01*
X97857108Y-127957812D01*
X97981590Y-127970072D01*
X99980570Y-127970072D01*
X100105052Y-127957812D01*
X100224750Y-127921502D01*
X100335064Y-127862537D01*
X100431755Y-127783185D01*
X100511107Y-127686494D01*
X100570072Y-127576180D01*
X100606382Y-127456482D01*
X100616598Y-127352752D01*
X100788822Y-127562608D01*
X101001543Y-127737183D01*
X101244235Y-127866904D01*
X101507570Y-127946786D01*
X101712805Y-127967000D01*
X102325035Y-127967000D01*
X102530270Y-127946786D01*
X102793605Y-127866904D01*
X103036297Y-127737183D01*
X103249018Y-127562608D01*
X103423593Y-127349887D01*
X103553314Y-127107195D01*
X103633196Y-126843860D01*
X103660169Y-126570000D01*
X103633196Y-126296140D01*
X103553314Y-126032805D01*
X103423593Y-125790113D01*
X103249018Y-125577392D01*
X103036297Y-125402817D01*
X102972121Y-125368514D01*
X105765000Y-125368514D01*
X105765000Y-125631486D01*
X105816304Y-125889405D01*
X105916939Y-126132359D01*
X106063038Y-126351013D01*
X106248987Y-126536962D01*
X106467641Y-126683061D01*
X106710595Y-126783696D01*
X106968514Y-126835000D01*
X107231486Y-126835000D01*
X107489405Y-126783696D01*
X107732359Y-126683061D01*
X107951013Y-126536962D01*
X108136962Y-126351013D01*
X108283061Y-126132359D01*
X108383696Y-125889405D01*
X108435000Y-125631486D01*
X108435000Y-125368514D01*
X108383696Y-125110595D01*
X108283061Y-124867641D01*
X108136962Y-124648987D01*
X107951013Y-124463038D01*
X107732359Y-124316939D01*
X107489405Y-124216304D01*
X107231486Y-124165000D01*
X106968514Y-124165000D01*
X106710595Y-124216304D01*
X106467641Y-124316939D01*
X106248987Y-124463038D01*
X106063038Y-124648987D01*
X105916939Y-124867641D01*
X105816304Y-125110595D01*
X105765000Y-125368514D01*
X102972121Y-125368514D01*
X102843939Y-125300000D01*
X103036297Y-125197183D01*
X103249018Y-125022608D01*
X103423593Y-124809887D01*
X103553314Y-124567195D01*
X103633196Y-124303860D01*
X103660169Y-124030000D01*
X103633196Y-123756140D01*
X103553314Y-123492805D01*
X103423593Y-123250113D01*
X103249018Y-123037392D01*
X103180512Y-122981170D01*
X103593500Y-122981170D01*
X103593500Y-123218830D01*
X103639865Y-123451923D01*
X103730813Y-123671492D01*
X103862850Y-123869099D01*
X104030901Y-124037150D01*
X104228508Y-124169187D01*
X104448077Y-124260135D01*
X104681170Y-124306500D01*
X104918830Y-124306500D01*
X105151923Y-124260135D01*
X105371492Y-124169187D01*
X105569099Y-124037150D01*
X105737150Y-123869099D01*
X105869187Y-123671492D01*
X105960135Y-123451923D01*
X106003642Y-123233198D01*
X106794230Y-122442611D01*
X106971492Y-122369187D01*
X107169099Y-122237150D01*
X107337150Y-122069099D01*
X107469187Y-121871492D01*
X107560135Y-121651923D01*
X107606500Y-121418830D01*
X107606500Y-121181170D01*
X107560135Y-120948077D01*
X107469187Y-120728508D01*
X107337150Y-120530901D01*
X107169099Y-120362850D01*
X106971492Y-120230813D01*
X106751923Y-120139865D01*
X106518830Y-120093500D01*
X106281170Y-120093500D01*
X106048077Y-120139865D01*
X105828508Y-120230813D01*
X105630901Y-120362850D01*
X105462850Y-120530901D01*
X105330813Y-120728508D01*
X105239865Y-120948077D01*
X105196358Y-121166801D01*
X104405771Y-121957389D01*
X104228508Y-122030813D01*
X104030901Y-122162850D01*
X103862850Y-122330901D01*
X103730813Y-122528508D01*
X103639865Y-122748077D01*
X103593500Y-122981170D01*
X103180512Y-122981170D01*
X103036297Y-122862817D01*
X102793605Y-122733096D01*
X102530270Y-122653214D01*
X102325035Y-122633000D01*
X101712805Y-122633000D01*
X101507570Y-122653214D01*
X101244235Y-122733096D01*
X101001543Y-122862817D01*
X100788822Y-123037392D01*
X100614247Y-123250113D01*
X100500000Y-123463855D01*
X100385753Y-123250113D01*
X100211178Y-123037392D01*
X99998457Y-122862817D01*
X99755765Y-122733096D01*
X99492430Y-122653214D01*
X99287195Y-122633000D01*
X98674965Y-122633000D01*
X98469730Y-122653214D01*
X98206395Y-122733096D01*
X97963703Y-122862817D01*
X97750982Y-123037392D01*
X97576407Y-123250113D01*
X97446686Y-123492805D01*
X97366804Y-123756140D01*
X97339831Y-124030000D01*
X93360000Y-124030000D01*
X93360000Y-118330000D01*
X97339831Y-118330000D01*
X97366804Y-118603860D01*
X97446686Y-118867195D01*
X97576407Y-119109887D01*
X97750982Y-119322608D01*
X97935968Y-119474421D01*
X97857108Y-119482188D01*
X97737410Y-119518498D01*
X97627096Y-119577463D01*
X97530405Y-119656815D01*
X97451053Y-119753506D01*
X97392088Y-119863820D01*
X97355778Y-119983518D01*
X97343518Y-120108000D01*
X97343518Y-121632000D01*
X97355778Y-121756482D01*
X97392088Y-121876180D01*
X97451053Y-121986494D01*
X97530405Y-122083185D01*
X97627096Y-122162537D01*
X97737410Y-122221502D01*
X97857108Y-122257812D01*
X97981590Y-122270072D01*
X99980570Y-122270072D01*
X100105052Y-122257812D01*
X100224750Y-122221502D01*
X100335064Y-122162537D01*
X100431755Y-122083185D01*
X100511107Y-121986494D01*
X100570072Y-121876180D01*
X100606382Y-121756482D01*
X100616598Y-121652752D01*
X100788822Y-121862608D01*
X101001543Y-122037183D01*
X101244235Y-122166904D01*
X101507570Y-122246786D01*
X101712805Y-122267000D01*
X102325035Y-122267000D01*
X102530270Y-122246786D01*
X102793605Y-122166904D01*
X103036297Y-122037183D01*
X103249018Y-121862608D01*
X103423593Y-121649887D01*
X103553314Y-121407195D01*
X103563620Y-121373220D01*
X104558029Y-120378812D01*
X104651923Y-120360135D01*
X104871492Y-120269187D01*
X105069099Y-120137150D01*
X105237150Y-119969099D01*
X105369187Y-119771492D01*
X105460135Y-119551923D01*
X105506500Y-119318830D01*
X105506500Y-119081170D01*
X105460135Y-118848077D01*
X105369187Y-118628508D01*
X105237150Y-118430901D01*
X105069099Y-118262850D01*
X104871492Y-118130813D01*
X104651923Y-118039865D01*
X104418830Y-117993500D01*
X104181170Y-117993500D01*
X103948077Y-118039865D01*
X103728508Y-118130813D01*
X103645982Y-118185955D01*
X103633196Y-118056140D01*
X103553314Y-117792805D01*
X103529641Y-117748514D01*
X105765000Y-117748514D01*
X105765000Y-118011486D01*
X105816304Y-118269405D01*
X105916939Y-118512359D01*
X106063038Y-118731013D01*
X106248987Y-118916962D01*
X106467641Y-119063061D01*
X106710595Y-119163696D01*
X106968514Y-119215000D01*
X107231486Y-119215000D01*
X107489405Y-119163696D01*
X107732359Y-119063061D01*
X107951013Y-118916962D01*
X108136962Y-118731013D01*
X108283061Y-118512359D01*
X108383696Y-118269405D01*
X108435000Y-118011486D01*
X108435000Y-117748514D01*
X108383696Y-117490595D01*
X108283061Y-117247641D01*
X108136962Y-117028987D01*
X107951013Y-116843038D01*
X107732359Y-116696939D01*
X107489405Y-116596304D01*
X107231486Y-116545000D01*
X106968514Y-116545000D01*
X106710595Y-116596304D01*
X106467641Y-116696939D01*
X106248987Y-116843038D01*
X106063038Y-117028987D01*
X105916939Y-117247641D01*
X105816304Y-117490595D01*
X105765000Y-117748514D01*
X103529641Y-117748514D01*
X103423593Y-117550113D01*
X103249018Y-117337392D01*
X103036297Y-117162817D01*
X102793605Y-117033096D01*
X102530270Y-116953214D01*
X102325035Y-116933000D01*
X101712805Y-116933000D01*
X101507570Y-116953214D01*
X101244235Y-117033096D01*
X101001543Y-117162817D01*
X100788822Y-117337392D01*
X100614247Y-117550113D01*
X100500000Y-117763855D01*
X100385753Y-117550113D01*
X100211178Y-117337392D01*
X99998457Y-117162817D01*
X99755765Y-117033096D01*
X99492430Y-116953214D01*
X99287195Y-116933000D01*
X98674965Y-116933000D01*
X98469730Y-116953214D01*
X98206395Y-117033096D01*
X97963703Y-117162817D01*
X97750982Y-117337392D01*
X97576407Y-117550113D01*
X97446686Y-117792805D01*
X97366804Y-118056140D01*
X97339831Y-118330000D01*
X93360000Y-118330000D01*
X93360000Y-103474240D01*
X93493962Y-103674729D01*
X93805271Y-103986038D01*
X94171331Y-104230631D01*
X94578075Y-104399110D01*
X95009872Y-104485000D01*
X95450128Y-104485000D01*
X95881925Y-104399110D01*
X96288669Y-104230631D01*
X96654729Y-103986038D01*
X96966038Y-103674729D01*
X97210631Y-103308669D01*
X97379110Y-102901925D01*
X97465000Y-102470128D01*
X97465000Y-102029872D01*
X97379110Y-101598075D01*
X97210631Y-101191331D01*
X96966038Y-100825271D01*
X96654729Y-100513962D01*
X96288669Y-100269369D01*
X95881925Y-100100890D01*
X95450128Y-100015000D01*
X95009872Y-100015000D01*
X94578075Y-100100890D01*
X94171331Y-100269369D01*
X93805271Y-100513962D01*
X93493962Y-100825271D01*
X93360000Y-101025760D01*
X93360000Y-96650000D01*
X95111928Y-96650000D01*
X95124188Y-96774482D01*
X95160498Y-96894180D01*
X95219463Y-97004494D01*
X95298815Y-97101185D01*
X95395506Y-97180537D01*
X95505820Y-97239502D01*
X95625518Y-97275812D01*
X95750000Y-97288072D01*
X96214250Y-97285000D01*
X96373000Y-97126250D01*
X96373000Y-96027000D01*
X95273750Y-96027000D01*
X95115000Y-96185750D01*
X95111928Y-96650000D01*
X93360000Y-96650000D01*
X93360000Y-95150000D01*
X95111928Y-95150000D01*
X95115000Y-95614250D01*
X95273750Y-95773000D01*
X96373000Y-95773000D01*
X96373000Y-94673750D01*
X96214250Y-94515000D01*
X95750000Y-94511928D01*
X95625518Y-94524188D01*
X95505820Y-94560498D01*
X95395506Y-94619463D01*
X95298815Y-94698815D01*
X95219463Y-94795506D01*
X95160498Y-94905820D01*
X95124188Y-95025518D01*
X95111928Y-95150000D01*
X93360000Y-95150000D01*
X93360000Y-85360000D01*
X104145285Y-85360000D01*
X104050982Y-85437392D01*
G37*
%TD.AperFunction*%
D31*
X133040001Y-128040000D02*
X131532234Y-128040000D01*
X131615381Y-127834921D01*
X131667000Y-127564820D01*
X131667000Y-127227000D01*
X130397000Y-127227000D01*
X130397000Y-127247000D01*
X130143000Y-127247000D01*
X130143000Y-127227000D01*
X130123000Y-127227000D01*
X130123000Y-126973000D01*
X130143000Y-126973000D01*
X130143000Y-125530460D01*
X130397000Y-125530460D01*
X130397000Y-126973000D01*
X131667000Y-126973000D01*
X131667000Y-126635180D01*
X131615381Y-126365079D01*
X131512059Y-126110238D01*
X131361006Y-125880451D01*
X131168026Y-125684548D01*
X130940535Y-125530058D01*
X130687276Y-125422918D01*
X130613070Y-125407960D01*
X130397000Y-125530460D01*
X130143000Y-125530460D01*
X129926930Y-125407960D01*
X129852724Y-125422918D01*
X129599465Y-125530058D01*
X129371974Y-125684548D01*
X129178994Y-125880451D01*
X129126191Y-125960776D01*
X129117812Y-125875698D01*
X129081502Y-125756000D01*
X129022537Y-125645686D01*
X128943185Y-125548995D01*
X128846494Y-125469643D01*
X128736180Y-125410678D01*
X128616482Y-125374368D01*
X128492000Y-125362108D01*
X127002758Y-125362108D01*
X127229853Y-125268042D01*
X127475302Y-125104039D01*
X127684039Y-124895302D01*
X127848042Y-124649853D01*
X127961010Y-124377125D01*
X128018600Y-124087599D01*
X128018600Y-123792401D01*
X127961010Y-123502875D01*
X127848042Y-123230147D01*
X127684039Y-122984698D01*
X127475302Y-122775961D01*
X127316719Y-122670000D01*
X127475302Y-122564039D01*
X127684039Y-122355302D01*
X127848042Y-122109853D01*
X127961010Y-121837125D01*
X127978340Y-121750000D01*
X129209993Y-121750000D01*
X129229976Y-121952895D01*
X129289159Y-122147993D01*
X129385266Y-122327797D01*
X129424004Y-122375000D01*
X129385266Y-122422203D01*
X129289159Y-122602007D01*
X129229976Y-122797105D01*
X129209993Y-123000000D01*
X129229976Y-123202895D01*
X129289159Y-123397993D01*
X129385266Y-123577797D01*
X129514604Y-123735396D01*
X129672203Y-123864734D01*
X129852007Y-123960841D01*
X130047105Y-124020024D01*
X130199162Y-124035000D01*
X130800838Y-124035000D01*
X130952895Y-124020024D01*
X131147993Y-123960841D01*
X131327797Y-123864734D01*
X131485396Y-123735396D01*
X131614734Y-123577797D01*
X131710841Y-123397993D01*
X131770024Y-123202895D01*
X131790007Y-123000000D01*
X131770024Y-122797105D01*
X131710841Y-122602007D01*
X131614734Y-122422203D01*
X131575996Y-122375000D01*
X131614734Y-122327797D01*
X131710841Y-122147993D01*
X131770024Y-121952895D01*
X131790007Y-121750000D01*
X131770024Y-121547105D01*
X131710841Y-121352007D01*
X131667325Y-121270593D01*
X131680537Y-121254494D01*
X131739502Y-121144180D01*
X131775812Y-121024482D01*
X131788072Y-120900000D01*
X131785000Y-120785750D01*
X131626250Y-120627000D01*
X130627000Y-120627000D01*
X130627000Y-120647000D01*
X130373000Y-120647000D01*
X130373000Y-120627000D01*
X129373750Y-120627000D01*
X129215000Y-120785750D01*
X129211928Y-120900000D01*
X129224188Y-121024482D01*
X129260498Y-121144180D01*
X129319463Y-121254494D01*
X129332675Y-121270593D01*
X129289159Y-121352007D01*
X129229976Y-121547105D01*
X129209993Y-121750000D01*
X127978340Y-121750000D01*
X128018600Y-121547599D01*
X128018600Y-121252401D01*
X127961010Y-120962875D01*
X127848042Y-120690147D01*
X127684039Y-120444698D01*
X127475302Y-120235961D01*
X127316719Y-120130000D01*
X127361617Y-120100000D01*
X129211928Y-120100000D01*
X129215000Y-120214250D01*
X129373750Y-120373000D01*
X130373000Y-120373000D01*
X130373000Y-119623750D01*
X130627000Y-119623750D01*
X130627000Y-120373000D01*
X131626250Y-120373000D01*
X131785000Y-120214250D01*
X131788072Y-120100000D01*
X131775812Y-119975518D01*
X131739502Y-119855820D01*
X131680537Y-119745506D01*
X131601185Y-119648815D01*
X131504494Y-119569463D01*
X131394180Y-119510498D01*
X131274482Y-119474188D01*
X131150000Y-119461928D01*
X130785750Y-119465000D01*
X130627000Y-119623750D01*
X130373000Y-119623750D01*
X130214250Y-119465000D01*
X129850000Y-119461928D01*
X129725518Y-119474188D01*
X129605820Y-119510498D01*
X129495506Y-119569463D01*
X129398815Y-119648815D01*
X129319463Y-119745506D01*
X129260498Y-119855820D01*
X129224188Y-119975518D01*
X129211928Y-120100000D01*
X127361617Y-120100000D01*
X127475302Y-120024039D01*
X127684039Y-119815302D01*
X127848042Y-119569853D01*
X127961010Y-119297125D01*
X128018600Y-119007599D01*
X128018600Y-118712401D01*
X127961010Y-118422875D01*
X127848042Y-118150147D01*
X127684039Y-117904698D01*
X127475302Y-117695961D01*
X127316719Y-117590000D01*
X127475302Y-117484039D01*
X127684039Y-117275302D01*
X127848042Y-117029853D01*
X127961010Y-116757125D01*
X128018600Y-116467599D01*
X128018600Y-116172401D01*
X127961010Y-115882875D01*
X127848042Y-115610147D01*
X127684039Y-115364698D01*
X127475302Y-115155961D01*
X127316719Y-115050000D01*
X127475302Y-114944039D01*
X127684039Y-114735302D01*
X127848042Y-114489853D01*
X127961010Y-114217125D01*
X128018600Y-113927599D01*
X128018600Y-113632401D01*
X127961010Y-113342875D01*
X127848042Y-113070147D01*
X127684039Y-112824698D01*
X127475302Y-112615961D01*
X127316719Y-112510000D01*
X127475302Y-112404039D01*
X127684039Y-112195302D01*
X127848042Y-111949853D01*
X127961010Y-111677125D01*
X128006187Y-111450000D01*
X129209993Y-111450000D01*
X129229976Y-111652895D01*
X129289159Y-111847993D01*
X129385266Y-112027797D01*
X129424004Y-112075000D01*
X129385266Y-112122203D01*
X129289159Y-112302007D01*
X129229976Y-112497105D01*
X129209993Y-112700000D01*
X129229976Y-112902895D01*
X129289159Y-113097993D01*
X129385266Y-113277797D01*
X129424004Y-113325000D01*
X129385266Y-113372203D01*
X129289159Y-113552007D01*
X129229976Y-113747105D01*
X129209993Y-113950000D01*
X129229976Y-114152895D01*
X129289159Y-114347993D01*
X129385266Y-114527797D01*
X129514604Y-114685396D01*
X129672203Y-114814734D01*
X129852007Y-114910841D01*
X130047105Y-114970024D01*
X130199162Y-114985000D01*
X130800838Y-114985000D01*
X130952895Y-114970024D01*
X131147993Y-114910841D01*
X131327797Y-114814734D01*
X131485396Y-114685396D01*
X131614734Y-114527797D01*
X131710841Y-114347993D01*
X131770024Y-114152895D01*
X131790007Y-113950000D01*
X131770024Y-113747105D01*
X131710841Y-113552007D01*
X131614734Y-113372203D01*
X131575996Y-113325000D01*
X131614734Y-113277797D01*
X131710841Y-113097993D01*
X131770024Y-112902895D01*
X131790007Y-112700000D01*
X131770024Y-112497105D01*
X131710841Y-112302007D01*
X131614734Y-112122203D01*
X131575996Y-112075000D01*
X131614734Y-112027797D01*
X131710841Y-111847993D01*
X131770024Y-111652895D01*
X131790007Y-111450000D01*
X131770024Y-111247105D01*
X131710841Y-111052007D01*
X131667325Y-110970593D01*
X131680537Y-110954494D01*
X131739502Y-110844180D01*
X131775812Y-110724482D01*
X131788072Y-110600000D01*
X131785000Y-110485750D01*
X131626250Y-110327000D01*
X130627000Y-110327000D01*
X130627000Y-110347000D01*
X130373000Y-110347000D01*
X130373000Y-110327000D01*
X129373750Y-110327000D01*
X129215000Y-110485750D01*
X129211928Y-110600000D01*
X129224188Y-110724482D01*
X129260498Y-110844180D01*
X129319463Y-110954494D01*
X129332675Y-110970593D01*
X129289159Y-111052007D01*
X129229976Y-111247105D01*
X129209993Y-111450000D01*
X128006187Y-111450000D01*
X128018600Y-111387599D01*
X128018600Y-111092401D01*
X127961010Y-110802875D01*
X127848042Y-110530147D01*
X127684039Y-110284698D01*
X127475302Y-110075961D01*
X127316719Y-109970000D01*
X127475302Y-109864039D01*
X127539341Y-109800000D01*
X129211928Y-109800000D01*
X129215000Y-109914250D01*
X129373750Y-110073000D01*
X130373000Y-110073000D01*
X130373000Y-109323750D01*
X130627000Y-109323750D01*
X130627000Y-110073000D01*
X131626250Y-110073000D01*
X131785000Y-109914250D01*
X131788072Y-109800000D01*
X131775812Y-109675518D01*
X131739502Y-109555820D01*
X131680537Y-109445506D01*
X131601185Y-109348815D01*
X131504494Y-109269463D01*
X131394180Y-109210498D01*
X131274482Y-109174188D01*
X131150000Y-109161928D01*
X130785750Y-109165000D01*
X130627000Y-109323750D01*
X130373000Y-109323750D01*
X130214250Y-109165000D01*
X129850000Y-109161928D01*
X129725518Y-109174188D01*
X129605820Y-109210498D01*
X129495506Y-109269463D01*
X129398815Y-109348815D01*
X129319463Y-109445506D01*
X129260498Y-109555820D01*
X129224188Y-109675518D01*
X129211928Y-109800000D01*
X127539341Y-109800000D01*
X127684039Y-109655302D01*
X127848042Y-109409853D01*
X127961010Y-109137125D01*
X128018600Y-108847599D01*
X128018600Y-108552401D01*
X127961010Y-108262875D01*
X127848042Y-107990147D01*
X127684039Y-107744698D01*
X127475302Y-107535961D01*
X127316719Y-107430000D01*
X127475302Y-107324039D01*
X127684039Y-107115302D01*
X127848042Y-106869853D01*
X127961010Y-106597125D01*
X128018600Y-106307599D01*
X128018600Y-106012401D01*
X127961010Y-105722875D01*
X127848042Y-105450147D01*
X127684039Y-105204698D01*
X127475302Y-104995961D01*
X127316719Y-104890000D01*
X127475302Y-104784039D01*
X127684039Y-104575302D01*
X127848042Y-104329853D01*
X127961010Y-104057125D01*
X128018600Y-103767599D01*
X128018600Y-103558240D01*
X128145601Y-103431239D01*
X129047494Y-104333133D01*
X129079306Y-104371896D01*
X129234012Y-104498860D01*
X129410515Y-104593202D01*
X129503135Y-104621298D01*
X129602030Y-104651298D01*
X129621379Y-104653204D01*
X129751300Y-104666000D01*
X129751307Y-104666000D01*
X129801201Y-104670914D01*
X129851095Y-104666000D01*
X130033840Y-104666000D01*
X130047105Y-104670024D01*
X130199162Y-104685000D01*
X130800838Y-104685000D01*
X130952895Y-104670024D01*
X131147993Y-104610841D01*
X131327797Y-104514734D01*
X131485396Y-104385396D01*
X131614734Y-104227797D01*
X131710841Y-104047993D01*
X131770024Y-103852895D01*
X131790007Y-103650000D01*
X131770024Y-103447105D01*
X131710841Y-103252007D01*
X131614734Y-103072203D01*
X131575996Y-103025000D01*
X131614734Y-102977797D01*
X131710841Y-102797993D01*
X131770024Y-102602895D01*
X131790007Y-102400000D01*
X131770024Y-102197105D01*
X131710841Y-102002007D01*
X131614734Y-101822203D01*
X131575996Y-101775000D01*
X131614734Y-101727797D01*
X131710841Y-101547993D01*
X131770024Y-101352895D01*
X131790007Y-101150000D01*
X131770024Y-100947105D01*
X131710841Y-100752007D01*
X131667325Y-100670593D01*
X131680537Y-100654494D01*
X131739502Y-100544180D01*
X131775812Y-100424482D01*
X131788072Y-100300000D01*
X131785000Y-100185750D01*
X131626250Y-100027000D01*
X130627000Y-100027000D01*
X130627000Y-100047000D01*
X130373000Y-100047000D01*
X130373000Y-100027000D01*
X129373750Y-100027000D01*
X129215000Y-100185750D01*
X129211928Y-100300000D01*
X129224188Y-100424482D01*
X129260498Y-100544180D01*
X129319463Y-100654494D01*
X129332675Y-100670593D01*
X129289159Y-100752007D01*
X129229976Y-100947105D01*
X129209993Y-101150000D01*
X129229976Y-101352895D01*
X129289159Y-101547993D01*
X129385266Y-101727797D01*
X129424004Y-101775000D01*
X129396526Y-101808483D01*
X129161601Y-101573559D01*
X129161601Y-99500000D01*
X129211928Y-99500000D01*
X129215000Y-99614250D01*
X129373750Y-99773000D01*
X130373000Y-99773000D01*
X130373000Y-99023750D01*
X130627000Y-99023750D01*
X130627000Y-99773000D01*
X131626250Y-99773000D01*
X131785000Y-99614250D01*
X131788072Y-99500000D01*
X131775812Y-99375518D01*
X131739502Y-99255820D01*
X131680537Y-99145506D01*
X131601185Y-99048815D01*
X131504494Y-98969463D01*
X131394180Y-98910498D01*
X131274482Y-98874188D01*
X131150000Y-98861928D01*
X130785750Y-98865000D01*
X130627000Y-99023750D01*
X130373000Y-99023750D01*
X130214250Y-98865000D01*
X129850000Y-98861928D01*
X129725518Y-98874188D01*
X129605820Y-98910498D01*
X129495506Y-98969463D01*
X129398815Y-99048815D01*
X129319463Y-99145506D01*
X129260498Y-99255820D01*
X129224188Y-99375518D01*
X129211928Y-99500000D01*
X129161601Y-99500000D01*
X129161601Y-91582845D01*
X129169187Y-91571492D01*
X129260135Y-91351923D01*
X129284115Y-91231366D01*
X129289159Y-91247993D01*
X129385266Y-91427797D01*
X129424004Y-91475000D01*
X129385266Y-91522203D01*
X129289159Y-91702007D01*
X129229976Y-91897105D01*
X129209993Y-92100000D01*
X129229976Y-92302895D01*
X129289159Y-92497993D01*
X129385266Y-92677797D01*
X129424004Y-92725000D01*
X129385266Y-92772203D01*
X129289159Y-92952007D01*
X129229976Y-93147105D01*
X129209993Y-93350000D01*
X129229976Y-93552895D01*
X129289159Y-93747993D01*
X129385266Y-93927797D01*
X129514604Y-94085396D01*
X129672203Y-94214734D01*
X129852007Y-94310841D01*
X130047105Y-94370024D01*
X130199162Y-94385000D01*
X130800838Y-94385000D01*
X130952895Y-94370024D01*
X131147993Y-94310841D01*
X131327797Y-94214734D01*
X131485396Y-94085396D01*
X131614734Y-93927797D01*
X131710841Y-93747993D01*
X131770024Y-93552895D01*
X131790007Y-93350000D01*
X131770024Y-93147105D01*
X131710841Y-92952007D01*
X131614734Y-92772203D01*
X131575996Y-92725000D01*
X131614734Y-92677797D01*
X131710841Y-92497993D01*
X131770024Y-92302895D01*
X131790007Y-92100000D01*
X131770024Y-91897105D01*
X131710841Y-91702007D01*
X131614734Y-91522203D01*
X131575996Y-91475000D01*
X131614734Y-91427797D01*
X131710841Y-91247993D01*
X131770024Y-91052895D01*
X131790007Y-90850000D01*
X131770024Y-90647105D01*
X131710841Y-90452007D01*
X131667325Y-90370593D01*
X131680537Y-90354494D01*
X131739502Y-90244180D01*
X131775812Y-90124482D01*
X131788072Y-90000000D01*
X131785000Y-89885750D01*
X131626250Y-89727000D01*
X130627000Y-89727000D01*
X130627000Y-89747000D01*
X130373000Y-89747000D01*
X130373000Y-89727000D01*
X129373750Y-89727000D01*
X129215000Y-89885750D01*
X129211928Y-90000000D01*
X129224188Y-90124482D01*
X129260498Y-90244180D01*
X129319463Y-90354494D01*
X129332675Y-90370593D01*
X129289159Y-90452007D01*
X129242556Y-90605636D01*
X129169187Y-90428508D01*
X129037150Y-90230901D01*
X128869099Y-90062850D01*
X128671492Y-89930813D01*
X128451923Y-89839865D01*
X128218830Y-89793500D01*
X127981170Y-89793500D01*
X127748077Y-89839865D01*
X127528508Y-89930813D01*
X127330901Y-90062850D01*
X127162850Y-90230901D01*
X127030813Y-90428508D01*
X126939865Y-90648077D01*
X126893500Y-90881170D01*
X126893500Y-91118830D01*
X126939865Y-91351923D01*
X127030813Y-91571492D01*
X127129601Y-91719339D01*
X127129601Y-94630432D01*
X126957125Y-94558990D01*
X126720072Y-94511837D01*
X126739412Y-94448082D01*
X126751672Y-94323600D01*
X126751672Y-92596400D01*
X126739412Y-92471918D01*
X126703102Y-92352220D01*
X126644137Y-92241906D01*
X126564785Y-92145215D01*
X126468094Y-92065863D01*
X126357780Y-92006898D01*
X126238082Y-91970588D01*
X126113600Y-91958328D01*
X124386400Y-91958328D01*
X124261918Y-91970588D01*
X124142220Y-92006898D01*
X124031906Y-92065863D01*
X123980000Y-92108461D01*
X123928094Y-92065863D01*
X123817780Y-92006898D01*
X123698082Y-91970588D01*
X123573600Y-91958328D01*
X122384491Y-91958328D01*
X122416808Y-91795862D01*
X122416808Y-91777473D01*
X124175282Y-90019000D01*
X124198857Y-90019000D01*
X124211859Y-90032002D01*
X124388665Y-90150140D01*
X124585122Y-90231515D01*
X124793679Y-90273000D01*
X125006321Y-90273000D01*
X125214878Y-90231515D01*
X125411335Y-90150140D01*
X125588141Y-90032002D01*
X125738502Y-89881641D01*
X125856640Y-89704835D01*
X125938015Y-89508378D01*
X125979500Y-89299821D01*
X125979500Y-89200000D01*
X129211928Y-89200000D01*
X129215000Y-89314250D01*
X129373750Y-89473000D01*
X130373000Y-89473000D01*
X130373000Y-88723750D01*
X130627000Y-88723750D01*
X130627000Y-89473000D01*
X131626250Y-89473000D01*
X131785000Y-89314250D01*
X131788072Y-89200000D01*
X131775812Y-89075518D01*
X131739502Y-88955820D01*
X131680537Y-88845506D01*
X131601185Y-88748815D01*
X131504494Y-88669463D01*
X131394180Y-88610498D01*
X131274482Y-88574188D01*
X131150000Y-88561928D01*
X130785750Y-88565000D01*
X130627000Y-88723750D01*
X130373000Y-88723750D01*
X130214250Y-88565000D01*
X129850000Y-88561928D01*
X129725518Y-88574188D01*
X129605820Y-88610498D01*
X129495506Y-88669463D01*
X129398815Y-88748815D01*
X129319463Y-88845506D01*
X129260498Y-88955820D01*
X129224188Y-89075518D01*
X129211928Y-89200000D01*
X125979500Y-89200000D01*
X125979500Y-89087179D01*
X125938015Y-88878622D01*
X125856640Y-88682165D01*
X125738502Y-88505359D01*
X125588141Y-88354998D01*
X125411335Y-88236860D01*
X125214878Y-88155485D01*
X125006321Y-88114000D01*
X124793679Y-88114000D01*
X124585122Y-88155485D01*
X124388665Y-88236860D01*
X124211859Y-88354998D01*
X124198857Y-88368000D01*
X123873899Y-88368000D01*
X123833348Y-88364006D01*
X123792798Y-88368000D01*
X123792796Y-88368000D01*
X123671523Y-88379944D01*
X123515915Y-88427147D01*
X123372506Y-88503801D01*
X123310945Y-88554323D01*
X123246808Y-88606959D01*
X123220955Y-88638461D01*
X121916554Y-89942863D01*
X121869187Y-89828508D01*
X121737150Y-89630901D01*
X121569099Y-89462850D01*
X121371492Y-89330813D01*
X121151923Y-89239865D01*
X120918830Y-89193500D01*
X120681170Y-89193500D01*
X120511362Y-89227277D01*
X120456640Y-89095165D01*
X120355500Y-88943798D01*
X120355500Y-87498955D01*
X120415436Y-87458907D01*
X120608907Y-87265436D01*
X120760916Y-87037938D01*
X120800000Y-86943581D01*
X120839084Y-87037938D01*
X120991093Y-87265436D01*
X121184564Y-87458907D01*
X121412062Y-87610916D01*
X121664844Y-87715622D01*
X121933195Y-87769000D01*
X122206805Y-87769000D01*
X122475156Y-87715622D01*
X122727938Y-87610916D01*
X122955436Y-87458907D01*
X123148907Y-87265436D01*
X123220343Y-87158524D01*
X123230188Y-87258482D01*
X123266498Y-87378180D01*
X123325463Y-87488494D01*
X123404815Y-87585185D01*
X123501506Y-87664537D01*
X123611820Y-87723502D01*
X123731518Y-87759812D01*
X123856000Y-87772072D01*
X125364000Y-87772072D01*
X125488482Y-87759812D01*
X125608180Y-87723502D01*
X125718494Y-87664537D01*
X125815185Y-87585185D01*
X125894537Y-87488494D01*
X125953502Y-87378180D01*
X125989812Y-87258482D01*
X126002072Y-87134000D01*
X126002072Y-85626000D01*
X125989812Y-85501518D01*
X125953502Y-85381820D01*
X125941839Y-85360000D01*
X133040000Y-85360000D01*
X133040001Y-128040000D01*
%TA.AperFunction,Conductor*%
D32*
G36*
X133040001Y-128040000D02*
G01*
X131532234Y-128040000D01*
X131615381Y-127834921D01*
X131667000Y-127564820D01*
X131667000Y-127227000D01*
X130397000Y-127227000D01*
X130397000Y-127247000D01*
X130143000Y-127247000D01*
X130143000Y-127227000D01*
X130123000Y-127227000D01*
X130123000Y-126973000D01*
X130143000Y-126973000D01*
X130143000Y-125530460D01*
X130397000Y-125530460D01*
X130397000Y-126973000D01*
X131667000Y-126973000D01*
X131667000Y-126635180D01*
X131615381Y-126365079D01*
X131512059Y-126110238D01*
X131361006Y-125880451D01*
X131168026Y-125684548D01*
X130940535Y-125530058D01*
X130687276Y-125422918D01*
X130613070Y-125407960D01*
X130397000Y-125530460D01*
X130143000Y-125530460D01*
X129926930Y-125407960D01*
X129852724Y-125422918D01*
X129599465Y-125530058D01*
X129371974Y-125684548D01*
X129178994Y-125880451D01*
X129126191Y-125960776D01*
X129117812Y-125875698D01*
X129081502Y-125756000D01*
X129022537Y-125645686D01*
X128943185Y-125548995D01*
X128846494Y-125469643D01*
X128736180Y-125410678D01*
X128616482Y-125374368D01*
X128492000Y-125362108D01*
X127002758Y-125362108D01*
X127229853Y-125268042D01*
X127475302Y-125104039D01*
X127684039Y-124895302D01*
X127848042Y-124649853D01*
X127961010Y-124377125D01*
X128018600Y-124087599D01*
X128018600Y-123792401D01*
X127961010Y-123502875D01*
X127848042Y-123230147D01*
X127684039Y-122984698D01*
X127475302Y-122775961D01*
X127316719Y-122670000D01*
X127475302Y-122564039D01*
X127684039Y-122355302D01*
X127848042Y-122109853D01*
X127961010Y-121837125D01*
X127978340Y-121750000D01*
X129209993Y-121750000D01*
X129229976Y-121952895D01*
X129289159Y-122147993D01*
X129385266Y-122327797D01*
X129424004Y-122375000D01*
X129385266Y-122422203D01*
X129289159Y-122602007D01*
X129229976Y-122797105D01*
X129209993Y-123000000D01*
X129229976Y-123202895D01*
X129289159Y-123397993D01*
X129385266Y-123577797D01*
X129514604Y-123735396D01*
X129672203Y-123864734D01*
X129852007Y-123960841D01*
X130047105Y-124020024D01*
X130199162Y-124035000D01*
X130800838Y-124035000D01*
X130952895Y-124020024D01*
X131147993Y-123960841D01*
X131327797Y-123864734D01*
X131485396Y-123735396D01*
X131614734Y-123577797D01*
X131710841Y-123397993D01*
X131770024Y-123202895D01*
X131790007Y-123000000D01*
X131770024Y-122797105D01*
X131710841Y-122602007D01*
X131614734Y-122422203D01*
X131575996Y-122375000D01*
X131614734Y-122327797D01*
X131710841Y-122147993D01*
X131770024Y-121952895D01*
X131790007Y-121750000D01*
X131770024Y-121547105D01*
X131710841Y-121352007D01*
X131667325Y-121270593D01*
X131680537Y-121254494D01*
X131739502Y-121144180D01*
X131775812Y-121024482D01*
X131788072Y-120900000D01*
X131785000Y-120785750D01*
X131626250Y-120627000D01*
X130627000Y-120627000D01*
X130627000Y-120647000D01*
X130373000Y-120647000D01*
X130373000Y-120627000D01*
X129373750Y-120627000D01*
X129215000Y-120785750D01*
X129211928Y-120900000D01*
X129224188Y-121024482D01*
X129260498Y-121144180D01*
X129319463Y-121254494D01*
X129332675Y-121270593D01*
X129289159Y-121352007D01*
X129229976Y-121547105D01*
X129209993Y-121750000D01*
X127978340Y-121750000D01*
X128018600Y-121547599D01*
X128018600Y-121252401D01*
X127961010Y-120962875D01*
X127848042Y-120690147D01*
X127684039Y-120444698D01*
X127475302Y-120235961D01*
X127316719Y-120130000D01*
X127361617Y-120100000D01*
X129211928Y-120100000D01*
X129215000Y-120214250D01*
X129373750Y-120373000D01*
X130373000Y-120373000D01*
X130373000Y-119623750D01*
X130627000Y-119623750D01*
X130627000Y-120373000D01*
X131626250Y-120373000D01*
X131785000Y-120214250D01*
X131788072Y-120100000D01*
X131775812Y-119975518D01*
X131739502Y-119855820D01*
X131680537Y-119745506D01*
X131601185Y-119648815D01*
X131504494Y-119569463D01*
X131394180Y-119510498D01*
X131274482Y-119474188D01*
X131150000Y-119461928D01*
X130785750Y-119465000D01*
X130627000Y-119623750D01*
X130373000Y-119623750D01*
X130214250Y-119465000D01*
X129850000Y-119461928D01*
X129725518Y-119474188D01*
X129605820Y-119510498D01*
X129495506Y-119569463D01*
X129398815Y-119648815D01*
X129319463Y-119745506D01*
X129260498Y-119855820D01*
X129224188Y-119975518D01*
X129211928Y-120100000D01*
X127361617Y-120100000D01*
X127475302Y-120024039D01*
X127684039Y-119815302D01*
X127848042Y-119569853D01*
X127961010Y-119297125D01*
X128018600Y-119007599D01*
X128018600Y-118712401D01*
X127961010Y-118422875D01*
X127848042Y-118150147D01*
X127684039Y-117904698D01*
X127475302Y-117695961D01*
X127316719Y-117590000D01*
X127475302Y-117484039D01*
X127684039Y-117275302D01*
X127848042Y-117029853D01*
X127961010Y-116757125D01*
X128018600Y-116467599D01*
X128018600Y-116172401D01*
X127961010Y-115882875D01*
X127848042Y-115610147D01*
X127684039Y-115364698D01*
X127475302Y-115155961D01*
X127316719Y-115050000D01*
X127475302Y-114944039D01*
X127684039Y-114735302D01*
X127848042Y-114489853D01*
X127961010Y-114217125D01*
X128018600Y-113927599D01*
X128018600Y-113632401D01*
X127961010Y-113342875D01*
X127848042Y-113070147D01*
X127684039Y-112824698D01*
X127475302Y-112615961D01*
X127316719Y-112510000D01*
X127475302Y-112404039D01*
X127684039Y-112195302D01*
X127848042Y-111949853D01*
X127961010Y-111677125D01*
X128006187Y-111450000D01*
X129209993Y-111450000D01*
X129229976Y-111652895D01*
X129289159Y-111847993D01*
X129385266Y-112027797D01*
X129424004Y-112075000D01*
X129385266Y-112122203D01*
X129289159Y-112302007D01*
X129229976Y-112497105D01*
X129209993Y-112700000D01*
X129229976Y-112902895D01*
X129289159Y-113097993D01*
X129385266Y-113277797D01*
X129424004Y-113325000D01*
X129385266Y-113372203D01*
X129289159Y-113552007D01*
X129229976Y-113747105D01*
X129209993Y-113950000D01*
X129229976Y-114152895D01*
X129289159Y-114347993D01*
X129385266Y-114527797D01*
X129514604Y-114685396D01*
X129672203Y-114814734D01*
X129852007Y-114910841D01*
X130047105Y-114970024D01*
X130199162Y-114985000D01*
X130800838Y-114985000D01*
X130952895Y-114970024D01*
X131147993Y-114910841D01*
X131327797Y-114814734D01*
X131485396Y-114685396D01*
X131614734Y-114527797D01*
X131710841Y-114347993D01*
X131770024Y-114152895D01*
X131790007Y-113950000D01*
X131770024Y-113747105D01*
X131710841Y-113552007D01*
X131614734Y-113372203D01*
X131575996Y-113325000D01*
X131614734Y-113277797D01*
X131710841Y-113097993D01*
X131770024Y-112902895D01*
X131790007Y-112700000D01*
X131770024Y-112497105D01*
X131710841Y-112302007D01*
X131614734Y-112122203D01*
X131575996Y-112075000D01*
X131614734Y-112027797D01*
X131710841Y-111847993D01*
X131770024Y-111652895D01*
X131790007Y-111450000D01*
X131770024Y-111247105D01*
X131710841Y-111052007D01*
X131667325Y-110970593D01*
X131680537Y-110954494D01*
X131739502Y-110844180D01*
X131775812Y-110724482D01*
X131788072Y-110600000D01*
X131785000Y-110485750D01*
X131626250Y-110327000D01*
X130627000Y-110327000D01*
X130627000Y-110347000D01*
X130373000Y-110347000D01*
X130373000Y-110327000D01*
X129373750Y-110327000D01*
X129215000Y-110485750D01*
X129211928Y-110600000D01*
X129224188Y-110724482D01*
X129260498Y-110844180D01*
X129319463Y-110954494D01*
X129332675Y-110970593D01*
X129289159Y-111052007D01*
X129229976Y-111247105D01*
X129209993Y-111450000D01*
X128006187Y-111450000D01*
X128018600Y-111387599D01*
X128018600Y-111092401D01*
X127961010Y-110802875D01*
X127848042Y-110530147D01*
X127684039Y-110284698D01*
X127475302Y-110075961D01*
X127316719Y-109970000D01*
X127475302Y-109864039D01*
X127539341Y-109800000D01*
X129211928Y-109800000D01*
X129215000Y-109914250D01*
X129373750Y-110073000D01*
X130373000Y-110073000D01*
X130373000Y-109323750D01*
X130627000Y-109323750D01*
X130627000Y-110073000D01*
X131626250Y-110073000D01*
X131785000Y-109914250D01*
X131788072Y-109800000D01*
X131775812Y-109675518D01*
X131739502Y-109555820D01*
X131680537Y-109445506D01*
X131601185Y-109348815D01*
X131504494Y-109269463D01*
X131394180Y-109210498D01*
X131274482Y-109174188D01*
X131150000Y-109161928D01*
X130785750Y-109165000D01*
X130627000Y-109323750D01*
X130373000Y-109323750D01*
X130214250Y-109165000D01*
X129850000Y-109161928D01*
X129725518Y-109174188D01*
X129605820Y-109210498D01*
X129495506Y-109269463D01*
X129398815Y-109348815D01*
X129319463Y-109445506D01*
X129260498Y-109555820D01*
X129224188Y-109675518D01*
X129211928Y-109800000D01*
X127539341Y-109800000D01*
X127684039Y-109655302D01*
X127848042Y-109409853D01*
X127961010Y-109137125D01*
X128018600Y-108847599D01*
X128018600Y-108552401D01*
X127961010Y-108262875D01*
X127848042Y-107990147D01*
X127684039Y-107744698D01*
X127475302Y-107535961D01*
X127316719Y-107430000D01*
X127475302Y-107324039D01*
X127684039Y-107115302D01*
X127848042Y-106869853D01*
X127961010Y-106597125D01*
X128018600Y-106307599D01*
X128018600Y-106012401D01*
X127961010Y-105722875D01*
X127848042Y-105450147D01*
X127684039Y-105204698D01*
X127475302Y-104995961D01*
X127316719Y-104890000D01*
X127475302Y-104784039D01*
X127684039Y-104575302D01*
X127848042Y-104329853D01*
X127961010Y-104057125D01*
X128018600Y-103767599D01*
X128018600Y-103558240D01*
X128145601Y-103431239D01*
X129047494Y-104333133D01*
X129079306Y-104371896D01*
X129234012Y-104498860D01*
X129410515Y-104593202D01*
X129503135Y-104621298D01*
X129602030Y-104651298D01*
X129621379Y-104653204D01*
X129751300Y-104666000D01*
X129751307Y-104666000D01*
X129801201Y-104670914D01*
X129851095Y-104666000D01*
X130033840Y-104666000D01*
X130047105Y-104670024D01*
X130199162Y-104685000D01*
X130800838Y-104685000D01*
X130952895Y-104670024D01*
X131147993Y-104610841D01*
X131327797Y-104514734D01*
X131485396Y-104385396D01*
X131614734Y-104227797D01*
X131710841Y-104047993D01*
X131770024Y-103852895D01*
X131790007Y-103650000D01*
X131770024Y-103447105D01*
X131710841Y-103252007D01*
X131614734Y-103072203D01*
X131575996Y-103025000D01*
X131614734Y-102977797D01*
X131710841Y-102797993D01*
X131770024Y-102602895D01*
X131790007Y-102400000D01*
X131770024Y-102197105D01*
X131710841Y-102002007D01*
X131614734Y-101822203D01*
X131575996Y-101775000D01*
X131614734Y-101727797D01*
X131710841Y-101547993D01*
X131770024Y-101352895D01*
X131790007Y-101150000D01*
X131770024Y-100947105D01*
X131710841Y-100752007D01*
X131667325Y-100670593D01*
X131680537Y-100654494D01*
X131739502Y-100544180D01*
X131775812Y-100424482D01*
X131788072Y-100300000D01*
X131785000Y-100185750D01*
X131626250Y-100027000D01*
X130627000Y-100027000D01*
X130627000Y-100047000D01*
X130373000Y-100047000D01*
X130373000Y-100027000D01*
X129373750Y-100027000D01*
X129215000Y-100185750D01*
X129211928Y-100300000D01*
X129224188Y-100424482D01*
X129260498Y-100544180D01*
X129319463Y-100654494D01*
X129332675Y-100670593D01*
X129289159Y-100752007D01*
X129229976Y-100947105D01*
X129209993Y-101150000D01*
X129229976Y-101352895D01*
X129289159Y-101547993D01*
X129385266Y-101727797D01*
X129424004Y-101775000D01*
X129396526Y-101808483D01*
X129161601Y-101573559D01*
X129161601Y-99500000D01*
X129211928Y-99500000D01*
X129215000Y-99614250D01*
X129373750Y-99773000D01*
X130373000Y-99773000D01*
X130373000Y-99023750D01*
X130627000Y-99023750D01*
X130627000Y-99773000D01*
X131626250Y-99773000D01*
X131785000Y-99614250D01*
X131788072Y-99500000D01*
X131775812Y-99375518D01*
X131739502Y-99255820D01*
X131680537Y-99145506D01*
X131601185Y-99048815D01*
X131504494Y-98969463D01*
X131394180Y-98910498D01*
X131274482Y-98874188D01*
X131150000Y-98861928D01*
X130785750Y-98865000D01*
X130627000Y-99023750D01*
X130373000Y-99023750D01*
X130214250Y-98865000D01*
X129850000Y-98861928D01*
X129725518Y-98874188D01*
X129605820Y-98910498D01*
X129495506Y-98969463D01*
X129398815Y-99048815D01*
X129319463Y-99145506D01*
X129260498Y-99255820D01*
X129224188Y-99375518D01*
X129211928Y-99500000D01*
X129161601Y-99500000D01*
X129161601Y-91582845D01*
X129169187Y-91571492D01*
X129260135Y-91351923D01*
X129284115Y-91231366D01*
X129289159Y-91247993D01*
X129385266Y-91427797D01*
X129424004Y-91475000D01*
X129385266Y-91522203D01*
X129289159Y-91702007D01*
X129229976Y-91897105D01*
X129209993Y-92100000D01*
X129229976Y-92302895D01*
X129289159Y-92497993D01*
X129385266Y-92677797D01*
X129424004Y-92725000D01*
X129385266Y-92772203D01*
X129289159Y-92952007D01*
X129229976Y-93147105D01*
X129209993Y-93350000D01*
X129229976Y-93552895D01*
X129289159Y-93747993D01*
X129385266Y-93927797D01*
X129514604Y-94085396D01*
X129672203Y-94214734D01*
X129852007Y-94310841D01*
X130047105Y-94370024D01*
X130199162Y-94385000D01*
X130800838Y-94385000D01*
X130952895Y-94370024D01*
X131147993Y-94310841D01*
X131327797Y-94214734D01*
X131485396Y-94085396D01*
X131614734Y-93927797D01*
X131710841Y-93747993D01*
X131770024Y-93552895D01*
X131790007Y-93350000D01*
X131770024Y-93147105D01*
X131710841Y-92952007D01*
X131614734Y-92772203D01*
X131575996Y-92725000D01*
X131614734Y-92677797D01*
X131710841Y-92497993D01*
X131770024Y-92302895D01*
X131790007Y-92100000D01*
X131770024Y-91897105D01*
X131710841Y-91702007D01*
X131614734Y-91522203D01*
X131575996Y-91475000D01*
X131614734Y-91427797D01*
X131710841Y-91247993D01*
X131770024Y-91052895D01*
X131790007Y-90850000D01*
X131770024Y-90647105D01*
X131710841Y-90452007D01*
X131667325Y-90370593D01*
X131680537Y-90354494D01*
X131739502Y-90244180D01*
X131775812Y-90124482D01*
X131788072Y-90000000D01*
X131785000Y-89885750D01*
X131626250Y-89727000D01*
X130627000Y-89727000D01*
X130627000Y-89747000D01*
X130373000Y-89747000D01*
X130373000Y-89727000D01*
X129373750Y-89727000D01*
X129215000Y-89885750D01*
X129211928Y-90000000D01*
X129224188Y-90124482D01*
X129260498Y-90244180D01*
X129319463Y-90354494D01*
X129332675Y-90370593D01*
X129289159Y-90452007D01*
X129242556Y-90605636D01*
X129169187Y-90428508D01*
X129037150Y-90230901D01*
X128869099Y-90062850D01*
X128671492Y-89930813D01*
X128451923Y-89839865D01*
X128218830Y-89793500D01*
X127981170Y-89793500D01*
X127748077Y-89839865D01*
X127528508Y-89930813D01*
X127330901Y-90062850D01*
X127162850Y-90230901D01*
X127030813Y-90428508D01*
X126939865Y-90648077D01*
X126893500Y-90881170D01*
X126893500Y-91118830D01*
X126939865Y-91351923D01*
X127030813Y-91571492D01*
X127129601Y-91719339D01*
X127129601Y-94630432D01*
X126957125Y-94558990D01*
X126720072Y-94511837D01*
X126739412Y-94448082D01*
X126751672Y-94323600D01*
X126751672Y-92596400D01*
X126739412Y-92471918D01*
X126703102Y-92352220D01*
X126644137Y-92241906D01*
X126564785Y-92145215D01*
X126468094Y-92065863D01*
X126357780Y-92006898D01*
X126238082Y-91970588D01*
X126113600Y-91958328D01*
X124386400Y-91958328D01*
X124261918Y-91970588D01*
X124142220Y-92006898D01*
X124031906Y-92065863D01*
X123980000Y-92108461D01*
X123928094Y-92065863D01*
X123817780Y-92006898D01*
X123698082Y-91970588D01*
X123573600Y-91958328D01*
X122384491Y-91958328D01*
X122416808Y-91795862D01*
X122416808Y-91777473D01*
X124175282Y-90019000D01*
X124198857Y-90019000D01*
X124211859Y-90032002D01*
X124388665Y-90150140D01*
X124585122Y-90231515D01*
X124793679Y-90273000D01*
X125006321Y-90273000D01*
X125214878Y-90231515D01*
X125411335Y-90150140D01*
X125588141Y-90032002D01*
X125738502Y-89881641D01*
X125856640Y-89704835D01*
X125938015Y-89508378D01*
X125979500Y-89299821D01*
X125979500Y-89200000D01*
X129211928Y-89200000D01*
X129215000Y-89314250D01*
X129373750Y-89473000D01*
X130373000Y-89473000D01*
X130373000Y-88723750D01*
X130627000Y-88723750D01*
X130627000Y-89473000D01*
X131626250Y-89473000D01*
X131785000Y-89314250D01*
X131788072Y-89200000D01*
X131775812Y-89075518D01*
X131739502Y-88955820D01*
X131680537Y-88845506D01*
X131601185Y-88748815D01*
X131504494Y-88669463D01*
X131394180Y-88610498D01*
X131274482Y-88574188D01*
X131150000Y-88561928D01*
X130785750Y-88565000D01*
X130627000Y-88723750D01*
X130373000Y-88723750D01*
X130214250Y-88565000D01*
X129850000Y-88561928D01*
X129725518Y-88574188D01*
X129605820Y-88610498D01*
X129495506Y-88669463D01*
X129398815Y-88748815D01*
X129319463Y-88845506D01*
X129260498Y-88955820D01*
X129224188Y-89075518D01*
X129211928Y-89200000D01*
X125979500Y-89200000D01*
X125979500Y-89087179D01*
X125938015Y-88878622D01*
X125856640Y-88682165D01*
X125738502Y-88505359D01*
X125588141Y-88354998D01*
X125411335Y-88236860D01*
X125214878Y-88155485D01*
X125006321Y-88114000D01*
X124793679Y-88114000D01*
X124585122Y-88155485D01*
X124388665Y-88236860D01*
X124211859Y-88354998D01*
X124198857Y-88368000D01*
X123873899Y-88368000D01*
X123833348Y-88364006D01*
X123792798Y-88368000D01*
X123792796Y-88368000D01*
X123671523Y-88379944D01*
X123515915Y-88427147D01*
X123372506Y-88503801D01*
X123310945Y-88554323D01*
X123246808Y-88606959D01*
X123220955Y-88638461D01*
X121916554Y-89942863D01*
X121869187Y-89828508D01*
X121737150Y-89630901D01*
X121569099Y-89462850D01*
X121371492Y-89330813D01*
X121151923Y-89239865D01*
X120918830Y-89193500D01*
X120681170Y-89193500D01*
X120511362Y-89227277D01*
X120456640Y-89095165D01*
X120355500Y-88943798D01*
X120355500Y-87498955D01*
X120415436Y-87458907D01*
X120608907Y-87265436D01*
X120760916Y-87037938D01*
X120800000Y-86943581D01*
X120839084Y-87037938D01*
X120991093Y-87265436D01*
X121184564Y-87458907D01*
X121412062Y-87610916D01*
X121664844Y-87715622D01*
X121933195Y-87769000D01*
X122206805Y-87769000D01*
X122475156Y-87715622D01*
X122727938Y-87610916D01*
X122955436Y-87458907D01*
X123148907Y-87265436D01*
X123220343Y-87158524D01*
X123230188Y-87258482D01*
X123266498Y-87378180D01*
X123325463Y-87488494D01*
X123404815Y-87585185D01*
X123501506Y-87664537D01*
X123611820Y-87723502D01*
X123731518Y-87759812D01*
X123856000Y-87772072D01*
X125364000Y-87772072D01*
X125488482Y-87759812D01*
X125608180Y-87723502D01*
X125718494Y-87664537D01*
X125815185Y-87585185D01*
X125894537Y-87488494D01*
X125953502Y-87378180D01*
X125989812Y-87258482D01*
X126002072Y-87134000D01*
X126002072Y-85626000D01*
X125989812Y-85501518D01*
X125953502Y-85381820D01*
X125941839Y-85360000D01*
X133040000Y-85360000D01*
X133040001Y-128040000D01*
G37*
%TD.AperFunction*%
%TD*%
M02*
