M48
; DRILL file {KiCad 5.1.9-73d0e3b20d~88~ubuntu20.04.1} date Thu Apr 29 00:32:55 2021
; FORMAT={-:-/ absolute / metric / decimal}
; #@! TF.CreationDate,2021-04-29T00:32:55+02:00
; #@! TF.GenerationSoftware,Kicad,Pcbnew,5.1.9-73d0e3b20d~88~ubuntu20.04.1
; #@! TF.FileFunction,Plated,1,2,PTH
FMAT,2
METRIC
T1C0.500
T2C0.635
T3C0.700
T4C0.760
T5C0.889
T6C1.000
T7C1.001
T8C1.016
T9C1.100
%
G90
G05
T1
X130.5Y-89.6
X130.5Y-90.85
X130.5Y-92.1
X130.5Y-93.35
X130.5Y-99.9
X130.5Y-101.15
X130.5Y-102.4
X130.5Y-103.65
X130.5Y-110.2
X130.5Y-111.45
X130.5Y-112.7
X130.5Y-113.95
X130.5Y-120.5
X130.5Y-121.75
X130.5Y-123.0
T2
X94.7Y-107.3
X95.7Y-111.4
X95.9Y-118.9
X96.4Y-125.3
X101.4Y-106.4
X102.7Y-87.7
X104.2Y-101.9
X105.0Y-127.3
X108.0Y-104.7
X108.3Y-112.6
X115.313Y-116.7
X115.313Y-118.409
X116.9Y-101.1
X118.7Y-116.6
X118.7Y-118.6
X119.5Y-89.606
X119.7Y-120.6
X120.8Y-96.4
X121.0Y-102.1
X121.0Y-110.2
X121.337Y-91.69
X121.7Y-99.0
X122.1Y-117.1
X122.3Y-108.9
X123.435Y-97.1
X123.8Y-99.3
X124.9Y-89.194
X129.4Y-86.2
X130.4Y-97.4
T3
X107.1Y-117.88
X107.1Y-125.5
T4
X96.5Y-95.9
X97.77Y-93.36
X99.04Y-95.9
X100.31Y-93.36
X101.58Y-95.9
X102.85Y-93.36
X104.12Y-95.9
X105.39Y-93.36
T5
X97.896Y-105.8
X98.0Y-91.1
X99.4Y-99.9
X100.6Y-103.3
X102.543Y-103.243
X104.3Y-119.2
X104.8Y-123.1
X106.4Y-121.3
X107.3Y-99.6
X112.7Y-89.8
X118.357Y-90.5
X120.8Y-90.4
X128.1Y-91.0
T6
X116.99Y-86.38
X116.99Y-127.02
X119.53Y-86.38
X119.53Y-127.02
X122.07Y-86.38
X122.07Y-127.02
X124.61Y-86.38
X124.61Y-127.02
T7
X99.23Y-118.33
X99.23Y-120.87
X99.23Y-124.03
X99.23Y-126.57
X101.77Y-118.33
X101.77Y-120.87
X101.77Y-124.03
X101.77Y-126.57
X105.53Y-86.43
X105.53Y-88.97
X108.07Y-86.43
X108.07Y-88.97
X111.13Y-127.1
X113.67Y-127.1
X127.73Y-127.1
X130.27Y-127.1
T8
X111.28Y-96.0
X111.28Y-98.54
X111.28Y-101.08
X111.28Y-103.62
X111.28Y-106.16
X111.28Y-108.7
X111.28Y-111.24
X111.28Y-113.78
X111.28Y-116.32
X111.28Y-118.86
X111.28Y-121.4
X111.28Y-123.94
X112.55Y-93.46
X115.09Y-93.46
X117.63Y-93.46
X118.9Y-123.94
X120.17Y-93.46
X121.44Y-123.94
X122.71Y-93.46
X123.98Y-104.89
X123.98Y-107.43
X123.98Y-123.94
X125.25Y-93.46
X126.52Y-96.0
X126.52Y-98.54
X126.52Y-101.08
X126.52Y-103.62
X126.52Y-106.16
X126.52Y-108.7
X126.52Y-111.24
X126.52Y-113.78
X126.52Y-116.32
X126.52Y-118.86
X126.52Y-121.4
X126.52Y-123.94
T9
X95.8Y-88.7
X98.34Y-88.7
X100.88Y-88.7
T0
M30
