%TF.GenerationSoftware,KiCad,Pcbnew,5.1.9-73d0e3b20d~88~ubuntu20.04.1*%
%TF.CreationDate,2021-04-29T00:31:08+02:00*%
%TF.ProjectId,Node,4e6f6465-2e6b-4696-9361-645f70636258,rev?*%
%TF.SameCoordinates,Original*%
%TF.FileFunction,Soldermask,Bot*%
%TF.FilePolarity,Negative*%
%FSLAX46Y46*%
G04 Gerber Fmt 4.6, Leading zero omitted, Abs format (unit mm)*
G04 Created by KiCad (PCBNEW 5.1.9-73d0e3b20d~88~ubuntu20.04.1) date 2021-04-29 00:31:08*
%MOMM*%
%LPD*%
G01*
G04 APERTURE LIST*
%ADD10O,1.400000X1.400000*%
%ADD11C,1.400000*%
%ADD12R,1.998980X1.524000*%
%ADD13O,1.998980X1.524000*%
%ADD14C,3.200000*%
%ADD15R,1.500000X1.500000*%
%ADD16C,1.500000*%
%ADD17R,1.524000X2.199640*%
%ADD18O,1.524000X2.199640*%
%ADD19O,1.300000X0.800000*%
%ADD20C,1.711200*%
%ADD21R,1.905000X2.000000*%
%ADD22O,1.905000X2.000000*%
%ADD23C,1.727200*%
%ADD24R,1.727200X1.727200*%
G04 APERTURE END LIST*
D10*
%TO.C,R1*%
X107100000Y-117880000D03*
D11*
X107100000Y-125500000D03*
%TD*%
D12*
%TO.C,J1*%
X108318920Y-88970000D03*
D13*
X105281080Y-88970000D03*
X108318920Y-86430000D03*
X105281080Y-86430000D03*
%TD*%
D12*
%TO.C,J2*%
X98981080Y-126570000D03*
D13*
X102018920Y-126570000D03*
X98981080Y-124030000D03*
X102018920Y-124030000D03*
%TD*%
D12*
%TO.C,J3*%
X98981080Y-120870000D03*
D13*
X102018920Y-120870000D03*
X98981080Y-118330000D03*
X102018920Y-118330000D03*
%TD*%
D14*
%TO.C,J4*%
X106660000Y-102250000D03*
X95230000Y-102250000D03*
D15*
X96500000Y-95900000D03*
D16*
X97770000Y-93360000D03*
X99040000Y-95900000D03*
X100310000Y-93360000D03*
X101580000Y-95900000D03*
X102850000Y-93360000D03*
X104120000Y-95900000D03*
X105390000Y-93360000D03*
%TD*%
D17*
%TO.C,JP1*%
X127730000Y-127100000D03*
D18*
X130270000Y-127100000D03*
%TD*%
%TO.C,JP2*%
X113670000Y-127100000D03*
D17*
X111130000Y-127100000D03*
%TD*%
%TO.C,OUT1*%
G36*
G01*
X130050000Y-89200000D02*
X130950000Y-89200000D01*
G75*
G02*
X131150000Y-89400000I0J-200000D01*
G01*
X131150000Y-89800000D01*
G75*
G02*
X130950000Y-90000000I-200000J0D01*
G01*
X130050000Y-90000000D01*
G75*
G02*
X129850000Y-89800000I0J200000D01*
G01*
X129850000Y-89400000D01*
G75*
G02*
X130050000Y-89200000I200000J0D01*
G01*
G37*
D19*
X130500000Y-90850000D03*
X130500000Y-92100000D03*
X130500000Y-93350000D03*
%TD*%
%TO.C,OUT2*%
X130500000Y-103650000D03*
X130500000Y-102400000D03*
X130500000Y-101150000D03*
G36*
G01*
X130050000Y-99500000D02*
X130950000Y-99500000D01*
G75*
G02*
X131150000Y-99700000I0J-200000D01*
G01*
X131150000Y-100100000D01*
G75*
G02*
X130950000Y-100300000I-200000J0D01*
G01*
X130050000Y-100300000D01*
G75*
G02*
X129850000Y-100100000I0J200000D01*
G01*
X129850000Y-99700000D01*
G75*
G02*
X130050000Y-99500000I200000J0D01*
G01*
G37*
%TD*%
%TO.C,OUT3*%
G36*
G01*
X130050000Y-109800000D02*
X130950000Y-109800000D01*
G75*
G02*
X131150000Y-110000000I0J-200000D01*
G01*
X131150000Y-110400000D01*
G75*
G02*
X130950000Y-110600000I-200000J0D01*
G01*
X130050000Y-110600000D01*
G75*
G02*
X129850000Y-110400000I0J200000D01*
G01*
X129850000Y-110000000D01*
G75*
G02*
X130050000Y-109800000I200000J0D01*
G01*
G37*
X130500000Y-111450000D03*
X130500000Y-112700000D03*
X130500000Y-113950000D03*
%TD*%
%TO.C,OUT4*%
G36*
G01*
X130050000Y-120100000D02*
X130950000Y-120100000D01*
G75*
G02*
X131150000Y-120300000I0J-200000D01*
G01*
X131150000Y-120700000D01*
G75*
G02*
X130950000Y-120900000I-200000J0D01*
G01*
X130050000Y-120900000D01*
G75*
G02*
X129850000Y-120700000I0J200000D01*
G01*
X129850000Y-120300000D01*
G75*
G02*
X130050000Y-120100000I200000J0D01*
G01*
G37*
X130500000Y-121750000D03*
X130500000Y-123000000D03*
%TD*%
%TO.C,U1*%
G36*
G01*
X123856000Y-85524400D02*
X125364000Y-85524400D01*
G75*
G02*
X125465600Y-85626000I0J-101600D01*
G01*
X125465600Y-87134000D01*
G75*
G02*
X125364000Y-87235600I-101600J0D01*
G01*
X123856000Y-87235600D01*
G75*
G02*
X123754400Y-87134000I0J101600D01*
G01*
X123754400Y-85626000D01*
G75*
G02*
X123856000Y-85524400I101600J0D01*
G01*
G37*
D20*
X122070000Y-86380000D03*
X119530000Y-86380000D03*
X116990000Y-86380000D03*
G36*
G01*
X117744000Y-127875600D02*
X116236000Y-127875600D01*
G75*
G02*
X116134400Y-127774000I0J101600D01*
G01*
X116134400Y-126266000D01*
G75*
G02*
X116236000Y-126164400I101600J0D01*
G01*
X117744000Y-126164400D01*
G75*
G02*
X117845600Y-126266000I0J-101600D01*
G01*
X117845600Y-127774000D01*
G75*
G02*
X117744000Y-127875600I-101600J0D01*
G01*
G37*
X119530000Y-127020000D03*
X122070000Y-127020000D03*
X124610000Y-127020000D03*
%TD*%
D21*
%TO.C,U2*%
X95800000Y-88700000D03*
D22*
X98340000Y-88700000D03*
X100880000Y-88700000D03*
%TD*%
D23*
%TO.C,XA1*%
X123980000Y-107430000D03*
X123980000Y-104890000D03*
D24*
X118900000Y-123940000D03*
D23*
X121440000Y-123940000D03*
X123980000Y-123940000D03*
X126520000Y-123940000D03*
X126520000Y-121400000D03*
X126520000Y-118860000D03*
X126520000Y-116320000D03*
X126520000Y-113780000D03*
X126520000Y-111240000D03*
X126520000Y-108700000D03*
X126520000Y-106160000D03*
X126520000Y-103620000D03*
X126520000Y-101080000D03*
D24*
X126520000Y-98540000D03*
D23*
X126520000Y-96000000D03*
D24*
X125250000Y-93460000D03*
X122710000Y-93460000D03*
D23*
X120170000Y-93460000D03*
X117630000Y-93460000D03*
X115090000Y-93460000D03*
X112550000Y-93460000D03*
X111280000Y-96000000D03*
X111280000Y-98540000D03*
X111280000Y-101080000D03*
D24*
X111280000Y-103620000D03*
D23*
X111280000Y-106160000D03*
X111280000Y-108700000D03*
X111280000Y-111240000D03*
X111280000Y-113780000D03*
X111280000Y-116320000D03*
X111280000Y-118860000D03*
X111280000Y-121400000D03*
X111280000Y-123940000D03*
%TD*%
M02*
