%TF.GenerationSoftware,KiCad,Pcbnew,5.1.9-73d0e3b20d~88~ubuntu20.04.1*%
%TF.CreationDate,2021-04-29T00:31:08+02:00*%
%TF.ProjectId,Node,4e6f6465-2e6b-4696-9361-645f70636258,rev?*%
%TF.SameCoordinates,Original*%
%TF.FileFunction,Legend,Top*%
%TF.FilePolarity,Positive*%
%FSLAX46Y46*%
G04 Gerber Fmt 4.6, Leading zero omitted, Abs format (unit mm)*
G04 Created by KiCad (PCBNEW 5.1.9-73d0e3b20d~88~ubuntu20.04.1) date 2021-04-29 00:31:08*
%MOMM*%
%LPD*%
G01*
G04 APERTURE LIST*
%ADD10C,0.120000*%
%ADD11C,0.170000*%
%ADD12C,0.130000*%
%ADD13C,0.100000*%
%ADD14C,0.090000*%
%ADD15C,0.304800*%
%ADD16C,0.150000*%
%ADD17C,0.075000*%
%ADD18O,1.400000X1.400000*%
%ADD19C,1.400000*%
%ADD20R,1.998980X1.524000*%
%ADD21O,1.998980X1.524000*%
%ADD22C,3.200000*%
%ADD23R,1.500000X1.500000*%
%ADD24C,1.500000*%
%ADD25R,1.524000X2.199640*%
%ADD26O,1.524000X2.199640*%
%ADD27O,1.300000X0.800000*%
%ADD28C,1.711200*%
%ADD29R,1.905000X2.000000*%
%ADD30O,1.905000X2.000000*%
%ADD31C,1.727200*%
%ADD32R,1.727200X1.727200*%
G04 APERTURE END LIST*
D10*
X96849428Y-111850000D02*
X97278000Y-111850000D01*
X96763714Y-112107142D02*
X97063714Y-111207142D01*
X97363714Y-112107142D01*
X98006571Y-112064285D02*
X97920857Y-112107142D01*
X97749428Y-112107142D01*
X97663714Y-112064285D01*
X97620857Y-111978571D01*
X97620857Y-111635714D01*
X97663714Y-111550000D01*
X97749428Y-111507142D01*
X97920857Y-111507142D01*
X98006571Y-111550000D01*
X98049428Y-111635714D01*
X98049428Y-111721428D01*
X97620857Y-111807142D01*
X98306571Y-111507142D02*
X98649428Y-111507142D01*
X98435142Y-111207142D02*
X98435142Y-111978571D01*
X98478000Y-112064285D01*
X98563714Y-112107142D01*
X98649428Y-112107142D01*
X99335142Y-112107142D02*
X99335142Y-111635714D01*
X99292285Y-111550000D01*
X99206571Y-111507142D01*
X99035142Y-111507142D01*
X98949428Y-111550000D01*
X99335142Y-112064285D02*
X99249428Y-112107142D01*
X99035142Y-112107142D01*
X98949428Y-112064285D01*
X98906571Y-111978571D01*
X98906571Y-111892857D01*
X98949428Y-111807142D01*
X99035142Y-111764285D01*
X99249428Y-111764285D01*
X99335142Y-111721428D01*
X99720857Y-112064285D02*
X99806571Y-112107142D01*
X99978000Y-112107142D01*
X100063714Y-112064285D01*
X100106571Y-111978571D01*
X100106571Y-111935714D01*
X100063714Y-111850000D01*
X99978000Y-111807142D01*
X99849428Y-111807142D01*
X99763714Y-111764285D01*
X99720857Y-111678571D01*
X99720857Y-111635714D01*
X99763714Y-111550000D01*
X99849428Y-111507142D01*
X99978000Y-111507142D01*
X100063714Y-111550000D01*
D11*
X96872404Y-113897619D02*
X96872404Y-112797619D01*
X97239071Y-113583333D01*
X97605738Y-112797619D01*
X97605738Y-113897619D01*
X98600976Y-113164285D02*
X98600976Y-114264285D01*
X98600976Y-113845238D02*
X98496214Y-113897619D01*
X98286690Y-113897619D01*
X98181928Y-113845238D01*
X98129547Y-113792857D01*
X98077166Y-113688095D01*
X98077166Y-113373809D01*
X98129547Y-113269047D01*
X98181928Y-113216666D01*
X98286690Y-113164285D01*
X98496214Y-113164285D01*
X98600976Y-113216666D01*
X99700976Y-112850000D02*
X99596214Y-112797619D01*
X99439071Y-112797619D01*
X99281928Y-112850000D01*
X99177166Y-112954761D01*
X99124785Y-113059523D01*
X99072404Y-113269047D01*
X99072404Y-113426190D01*
X99124785Y-113635714D01*
X99177166Y-113740476D01*
X99281928Y-113845238D01*
X99439071Y-113897619D01*
X99543833Y-113897619D01*
X99700976Y-113845238D01*
X99753357Y-113792857D01*
X99753357Y-113426190D01*
X99543833Y-113426190D01*
X100696214Y-113897619D02*
X100696214Y-113321428D01*
X100643833Y-113216666D01*
X100539071Y-113164285D01*
X100329547Y-113164285D01*
X100224785Y-113216666D01*
X100696214Y-113845238D02*
X100591452Y-113897619D01*
X100329547Y-113897619D01*
X100224785Y-113845238D01*
X100172404Y-113740476D01*
X100172404Y-113635714D01*
X100224785Y-113530952D01*
X100329547Y-113478571D01*
X100591452Y-113478571D01*
X100696214Y-113426190D01*
X101062880Y-113164285D02*
X101481928Y-113164285D01*
X101220023Y-112797619D02*
X101220023Y-113740476D01*
X101272404Y-113845238D01*
X101377166Y-113897619D01*
X101481928Y-113897619D01*
X102267642Y-113845238D02*
X102162880Y-113897619D01*
X101953357Y-113897619D01*
X101848595Y-113845238D01*
X101796214Y-113740476D01*
X101796214Y-113321428D01*
X101848595Y-113216666D01*
X101953357Y-113164285D01*
X102162880Y-113164285D01*
X102267642Y-113216666D01*
X102320023Y-113321428D01*
X102320023Y-113426190D01*
X101796214Y-113530952D01*
X102686690Y-113164285D02*
X102896214Y-113897619D01*
X103105738Y-113373809D01*
X103315261Y-113897619D01*
X103524785Y-113164285D01*
X104415261Y-113897619D02*
X104415261Y-113321428D01*
X104362880Y-113216666D01*
X104258119Y-113164285D01*
X104048595Y-113164285D01*
X103943833Y-113216666D01*
X104415261Y-113845238D02*
X104310500Y-113897619D01*
X104048595Y-113897619D01*
X103943833Y-113845238D01*
X103891452Y-113740476D01*
X103891452Y-113635714D01*
X103943833Y-113530952D01*
X104048595Y-113478571D01*
X104310500Y-113478571D01*
X104415261Y-113426190D01*
X104834309Y-113164285D02*
X105096214Y-113897619D01*
X105358119Y-113164285D02*
X105096214Y-113897619D01*
X104991452Y-114159523D01*
X104939071Y-114211904D01*
X104834309Y-114264285D01*
D12*
X96898785Y-115807142D02*
X96898785Y-114907142D01*
X97413071Y-115807142D01*
X97413071Y-114907142D01*
X97970214Y-115807142D02*
X97884500Y-115764285D01*
X97841642Y-115721428D01*
X97798785Y-115635714D01*
X97798785Y-115378571D01*
X97841642Y-115292857D01*
X97884500Y-115250000D01*
X97970214Y-115207142D01*
X98098785Y-115207142D01*
X98184500Y-115250000D01*
X98227357Y-115292857D01*
X98270214Y-115378571D01*
X98270214Y-115635714D01*
X98227357Y-115721428D01*
X98184500Y-115764285D01*
X98098785Y-115807142D01*
X97970214Y-115807142D01*
X99041642Y-115807142D02*
X99041642Y-114907142D01*
X99041642Y-115764285D02*
X98955928Y-115807142D01*
X98784500Y-115807142D01*
X98698785Y-115764285D01*
X98655928Y-115721428D01*
X98613071Y-115635714D01*
X98613071Y-115378571D01*
X98655928Y-115292857D01*
X98698785Y-115250000D01*
X98784500Y-115207142D01*
X98955928Y-115207142D01*
X99041642Y-115250000D01*
X99813071Y-115764285D02*
X99727357Y-115807142D01*
X99555928Y-115807142D01*
X99470214Y-115764285D01*
X99427357Y-115678571D01*
X99427357Y-115335714D01*
X99470214Y-115250000D01*
X99555928Y-115207142D01*
X99727357Y-115207142D01*
X99813071Y-115250000D01*
X99855928Y-115335714D01*
X99855928Y-115421428D01*
X99427357Y-115507142D01*
D13*
X101020714Y-116461904D02*
X101020714Y-115928571D01*
X101020714Y-116080952D02*
X101058809Y-116004761D01*
X101096904Y-115966666D01*
X101173095Y-115928571D01*
X101249285Y-115928571D01*
X101820714Y-116423809D02*
X101744523Y-116461904D01*
X101592142Y-116461904D01*
X101515952Y-116423809D01*
X101477857Y-116347619D01*
X101477857Y-116042857D01*
X101515952Y-115966666D01*
X101592142Y-115928571D01*
X101744523Y-115928571D01*
X101820714Y-115966666D01*
X101858809Y-116042857D01*
X101858809Y-116119047D01*
X101477857Y-116195238D01*
X102125476Y-115928571D02*
X102315952Y-116461904D01*
X102506428Y-115928571D01*
X103839761Y-116461904D02*
X103382619Y-116461904D01*
X103611190Y-116461904D02*
X103611190Y-115661904D01*
X103535000Y-115776190D01*
X103458809Y-115852380D01*
X103382619Y-115890476D01*
X104182619Y-116385714D02*
X104220714Y-116423809D01*
X104182619Y-116461904D01*
X104144523Y-116423809D01*
X104182619Y-116385714D01*
X104182619Y-116461904D01*
X104715952Y-115661904D02*
X104792142Y-115661904D01*
X104868333Y-115700000D01*
X104906428Y-115738095D01*
X104944523Y-115814285D01*
X104982619Y-115966666D01*
X104982619Y-116157142D01*
X104944523Y-116309523D01*
X104906428Y-116385714D01*
X104868333Y-116423809D01*
X104792142Y-116461904D01*
X104715952Y-116461904D01*
X104639761Y-116423809D01*
X104601666Y-116385714D01*
X104563571Y-116309523D01*
X104525476Y-116157142D01*
X104525476Y-115966666D01*
X104563571Y-115814285D01*
X104601666Y-115738095D01*
X104639761Y-115700000D01*
X104715952Y-115661904D01*
D14*
X94016666Y-127950000D02*
X93550000Y-127950000D01*
X93616666Y-127950000D02*
X93583333Y-127916666D01*
X93550000Y-127850000D01*
X93550000Y-127750000D01*
X93583333Y-127683333D01*
X93650000Y-127650000D01*
X94016666Y-127650000D01*
X93650000Y-127650000D02*
X93583333Y-127616666D01*
X93550000Y-127550000D01*
X93550000Y-127450000D01*
X93583333Y-127383333D01*
X93650000Y-127350000D01*
X94016666Y-127350000D01*
X93550000Y-126716666D02*
X94250000Y-126716666D01*
X93983333Y-126716666D02*
X94016666Y-126783333D01*
X94016666Y-126916666D01*
X93983333Y-126983333D01*
X93950000Y-127016666D01*
X93883333Y-127050000D01*
X93683333Y-127050000D01*
X93616666Y-127016666D01*
X93583333Y-126983333D01*
X93550000Y-126916666D01*
X93550000Y-126783333D01*
X93583333Y-126716666D01*
X93550000Y-126083333D02*
X94116666Y-126083333D01*
X94183333Y-126116666D01*
X94216666Y-126150000D01*
X94250000Y-126216666D01*
X94250000Y-126316666D01*
X94216666Y-126383333D01*
X93983333Y-126083333D02*
X94016666Y-126150000D01*
X94016666Y-126283333D01*
X93983333Y-126350000D01*
X93950000Y-126383333D01*
X93883333Y-126416666D01*
X93683333Y-126416666D01*
X93616666Y-126383333D01*
X93583333Y-126350000D01*
X93550000Y-126283333D01*
X93550000Y-126150000D01*
X93583333Y-126083333D01*
X94016666Y-125450000D02*
X93650000Y-125450000D01*
X93583333Y-125483333D01*
X93550000Y-125550000D01*
X93550000Y-125683333D01*
X93583333Y-125750000D01*
X93983333Y-125450000D02*
X94016666Y-125516666D01*
X94016666Y-125683333D01*
X93983333Y-125750000D01*
X93916666Y-125783333D01*
X93850000Y-125783333D01*
X93783333Y-125750000D01*
X93750000Y-125683333D01*
X93750000Y-125516666D01*
X93716666Y-125450000D01*
X93550000Y-125216666D02*
X93550000Y-124950000D01*
X93316666Y-125116666D02*
X93916666Y-125116666D01*
X93983333Y-125083333D01*
X94016666Y-125016666D01*
X94016666Y-124950000D01*
X93983333Y-124450000D02*
X94016666Y-124516666D01*
X94016666Y-124650000D01*
X93983333Y-124716666D01*
X93916666Y-124750000D01*
X93650000Y-124750000D01*
X93583333Y-124716666D01*
X93550000Y-124650000D01*
X93550000Y-124516666D01*
X93583333Y-124450000D01*
X93650000Y-124416666D01*
X93716666Y-124416666D01*
X93783333Y-124750000D01*
X93550000Y-124183333D02*
X94016666Y-124050000D01*
X93683333Y-123916666D01*
X94016666Y-123783333D01*
X93550000Y-123650000D01*
X94016666Y-123083333D02*
X93650000Y-123083333D01*
X93583333Y-123116666D01*
X93550000Y-123183333D01*
X93550000Y-123316666D01*
X93583333Y-123383333D01*
X93983333Y-123083333D02*
X94016666Y-123150000D01*
X94016666Y-123316666D01*
X93983333Y-123383333D01*
X93916666Y-123416666D01*
X93850000Y-123416666D01*
X93783333Y-123383333D01*
X93750000Y-123316666D01*
X93750000Y-123150000D01*
X93716666Y-123083333D01*
X93550000Y-122816666D02*
X94016666Y-122650000D01*
X93550000Y-122483333D02*
X94016666Y-122650000D01*
X94183333Y-122716666D01*
X94216666Y-122750000D01*
X94250000Y-122816666D01*
X93950000Y-122216666D02*
X93983333Y-122183333D01*
X94016666Y-122216666D01*
X93983333Y-122250000D01*
X93950000Y-122216666D01*
X94016666Y-122216666D01*
X93983333Y-121583333D02*
X94016666Y-121650000D01*
X94016666Y-121783333D01*
X93983333Y-121850000D01*
X93950000Y-121883333D01*
X93883333Y-121916666D01*
X93683333Y-121916666D01*
X93616666Y-121883333D01*
X93583333Y-121850000D01*
X93550000Y-121783333D01*
X93550000Y-121650000D01*
X93583333Y-121583333D01*
X94016666Y-121183333D02*
X93983333Y-121250000D01*
X93950000Y-121283333D01*
X93883333Y-121316666D01*
X93683333Y-121316666D01*
X93616666Y-121283333D01*
X93583333Y-121250000D01*
X93550000Y-121183333D01*
X93550000Y-121083333D01*
X93583333Y-121016666D01*
X93616666Y-120983333D01*
X93683333Y-120950000D01*
X93883333Y-120950000D01*
X93950000Y-120983333D01*
X93983333Y-121016666D01*
X94016666Y-121083333D01*
X94016666Y-121183333D01*
X94016666Y-120650000D02*
X93550000Y-120650000D01*
X93616666Y-120650000D02*
X93583333Y-120616666D01*
X93550000Y-120550000D01*
X93550000Y-120450000D01*
X93583333Y-120383333D01*
X93650000Y-120350000D01*
X94016666Y-120350000D01*
X93650000Y-120350000D02*
X93583333Y-120316666D01*
X93550000Y-120250000D01*
X93550000Y-120150000D01*
X93583333Y-120083333D01*
X93650000Y-120050000D01*
X94016666Y-120050000D01*
D15*
%TO.C,J1*%
X104260000Y-90240000D02*
X109340000Y-90240000D01*
X106800000Y-87700000D02*
X109340000Y-87700000D01*
X106800000Y-90240000D02*
X106800000Y-87700000D01*
X109340000Y-85160000D02*
X109340000Y-90240000D01*
X104260000Y-85160000D02*
X109340000Y-85160000D01*
X104260000Y-90240000D02*
X104260000Y-85160000D01*
D10*
%TO.C,J4*%
X93185000Y-92020000D02*
X93185000Y-109980000D01*
X108705000Y-92020000D02*
X93185000Y-92020000D01*
X108705000Y-92020000D02*
X108705000Y-109980000D01*
X93185000Y-109980000D02*
X108705000Y-109980000D01*
X93000000Y-95900000D02*
X92500000Y-95400000D01*
X92500000Y-95400000D02*
X92500000Y-96400000D01*
X92500000Y-96400000D02*
X93000000Y-95900000D01*
D15*
%TO.C,JP1*%
X131540000Y-125830000D02*
X131540000Y-128370000D01*
X126460000Y-128370000D02*
X126460000Y-125830000D01*
X126460000Y-125830000D02*
X131540000Y-125830000D01*
X131540000Y-128370000D02*
X126460000Y-128370000D01*
X126460000Y-128370000D02*
X129000000Y-125830000D01*
%TO.C,JP2*%
X109860000Y-128370000D02*
X112400000Y-125830000D01*
X114940000Y-128370000D02*
X109860000Y-128370000D01*
X109860000Y-125830000D02*
X114940000Y-125830000D01*
X109860000Y-128370000D02*
X109860000Y-125830000D01*
X114940000Y-125830000D02*
X114940000Y-128370000D01*
D10*
%TO.C,OUT1*%
X128950000Y-87700000D02*
X128950000Y-88700000D01*
X128950000Y-87700000D02*
X129950000Y-87700000D01*
X132150000Y-94450000D02*
X132150000Y-91475000D01*
X131300000Y-94450000D02*
X132150000Y-94450000D01*
X131300000Y-94650000D02*
X131300000Y-94450000D01*
X130500000Y-94650000D02*
X131300000Y-94650000D01*
X130500000Y-94450000D02*
X130500000Y-94650000D01*
X129750000Y-94450000D02*
X130500000Y-94450000D01*
X129750000Y-91475000D02*
X129750000Y-94450000D01*
X132150000Y-88500000D02*
X132150000Y-91475000D01*
X131300000Y-88500000D02*
X132150000Y-88500000D01*
X131300000Y-88300000D02*
X131300000Y-88500000D01*
X130500000Y-88300000D02*
X131300000Y-88300000D01*
X130500000Y-88500000D02*
X130500000Y-88300000D01*
X129750000Y-88500000D02*
X130500000Y-88500000D01*
X129750000Y-91475000D02*
X129750000Y-88500000D01*
X132660000Y-94960000D02*
X132660000Y-87990000D01*
X129240000Y-94960000D02*
X132660000Y-94960000D01*
X129240000Y-87990000D02*
X129240000Y-94960000D01*
X132660000Y-87990000D02*
X129240000Y-87990000D01*
%TO.C,OUT2*%
X132660000Y-98290000D02*
X129240000Y-98290000D01*
X129240000Y-98290000D02*
X129240000Y-105260000D01*
X129240000Y-105260000D02*
X132660000Y-105260000D01*
X132660000Y-105260000D02*
X132660000Y-98290000D01*
X129750000Y-101775000D02*
X129750000Y-98800000D01*
X129750000Y-98800000D02*
X130500000Y-98800000D01*
X130500000Y-98800000D02*
X130500000Y-98600000D01*
X130500000Y-98600000D02*
X131300000Y-98600000D01*
X131300000Y-98600000D02*
X131300000Y-98800000D01*
X131300000Y-98800000D02*
X132150000Y-98800000D01*
X132150000Y-98800000D02*
X132150000Y-101775000D01*
X129750000Y-101775000D02*
X129750000Y-104750000D01*
X129750000Y-104750000D02*
X130500000Y-104750000D01*
X130500000Y-104750000D02*
X130500000Y-104950000D01*
X130500000Y-104950000D02*
X131300000Y-104950000D01*
X131300000Y-104950000D02*
X131300000Y-104750000D01*
X131300000Y-104750000D02*
X132150000Y-104750000D01*
X132150000Y-104750000D02*
X132150000Y-101775000D01*
X128950000Y-98000000D02*
X129950000Y-98000000D01*
X128950000Y-98000000D02*
X128950000Y-99000000D01*
%TO.C,OUT3*%
X128950000Y-108300000D02*
X128950000Y-109300000D01*
X128950000Y-108300000D02*
X129950000Y-108300000D01*
X132150000Y-115050000D02*
X132150000Y-112075000D01*
X131300000Y-115050000D02*
X132150000Y-115050000D01*
X131300000Y-115250000D02*
X131300000Y-115050000D01*
X130500000Y-115250000D02*
X131300000Y-115250000D01*
X130500000Y-115050000D02*
X130500000Y-115250000D01*
X129750000Y-115050000D02*
X130500000Y-115050000D01*
X129750000Y-112075000D02*
X129750000Y-115050000D01*
X132150000Y-109100000D02*
X132150000Y-112075000D01*
X131300000Y-109100000D02*
X132150000Y-109100000D01*
X131300000Y-108900000D02*
X131300000Y-109100000D01*
X130500000Y-108900000D02*
X131300000Y-108900000D01*
X130500000Y-109100000D02*
X130500000Y-108900000D01*
X129750000Y-109100000D02*
X130500000Y-109100000D01*
X129750000Y-112075000D02*
X129750000Y-109100000D01*
X132660000Y-115560000D02*
X132660000Y-108590000D01*
X129240000Y-115560000D02*
X132660000Y-115560000D01*
X129240000Y-108590000D02*
X129240000Y-115560000D01*
X132660000Y-108590000D02*
X129240000Y-108590000D01*
%TO.C,OUT4*%
X128950000Y-118600000D02*
X128950000Y-119600000D01*
X128950000Y-118600000D02*
X129950000Y-118600000D01*
X132150000Y-124100000D02*
X132150000Y-121750000D01*
X131300000Y-124100000D02*
X132150000Y-124100000D01*
X131300000Y-124300000D02*
X131300000Y-124100000D01*
X130500000Y-124300000D02*
X131300000Y-124300000D01*
X130500000Y-124100000D02*
X130500000Y-124300000D01*
X129750000Y-124100000D02*
X130500000Y-124100000D01*
X129750000Y-121750000D02*
X129750000Y-124100000D01*
X132150000Y-119400000D02*
X132150000Y-121750000D01*
X131300000Y-119400000D02*
X132150000Y-119400000D01*
X131300000Y-119200000D02*
X131300000Y-119400000D01*
X130500000Y-119200000D02*
X131300000Y-119200000D01*
X130500000Y-119400000D02*
X130500000Y-119200000D01*
X129750000Y-119400000D02*
X130500000Y-119400000D01*
X129750000Y-121750000D02*
X129750000Y-119400000D01*
X132660000Y-124610000D02*
X132660000Y-118890000D01*
X129240000Y-124610000D02*
X132660000Y-124610000D01*
X129240000Y-118890000D02*
X129240000Y-124610000D01*
X132660000Y-118890000D02*
X129240000Y-118890000D01*
%TO.C,U2*%
X100191000Y-85430000D02*
X100191000Y-86940000D01*
X96490000Y-85430000D02*
X96490000Y-86940000D01*
X93220000Y-86940000D02*
X103460000Y-86940000D01*
X103460000Y-85430000D02*
X103460000Y-90071000D01*
X93220000Y-85430000D02*
X93220000Y-90071000D01*
X93220000Y-90071000D02*
X103460000Y-90071000D01*
X93220000Y-85430000D02*
X103460000Y-85430000D01*
%TO.C,XA1*%
X118900000Y-104890000D02*
X113820000Y-109970000D01*
X123980000Y-109970000D02*
X118900000Y-104890000D01*
X118900000Y-115050000D02*
X123980000Y-109970000D01*
X113820000Y-109970000D02*
X118900000Y-115050000D01*
X121440000Y-121400000D02*
X116360000Y-121400000D01*
X121440000Y-118860000D02*
X121440000Y-121400000D01*
X116360000Y-118860000D02*
X121440000Y-118860000D01*
X116360000Y-121400000D02*
X116360000Y-118860000D01*
D16*
X127790000Y-125210000D02*
X110010000Y-125210000D01*
X127790000Y-92190000D02*
X110010000Y-92190000D01*
X110010000Y-92190000D02*
X110010000Y-125210000D01*
X127790000Y-92190000D02*
X127790000Y-125210000D01*
%TO.C,J1*%
X107357142Y-91552380D02*
X107023809Y-91076190D01*
X106785714Y-91552380D02*
X106785714Y-90552380D01*
X107166666Y-90552380D01*
X107261904Y-90600000D01*
X107309523Y-90647619D01*
X107357142Y-90742857D01*
X107357142Y-90885714D01*
X107309523Y-90980952D01*
X107261904Y-91028571D01*
X107166666Y-91076190D01*
X106785714Y-91076190D01*
X107785714Y-91028571D02*
X108119047Y-91028571D01*
X108261904Y-91552380D02*
X107785714Y-91552380D01*
X107785714Y-90552380D01*
X108261904Y-90552380D01*
X109214285Y-90600000D02*
X109119047Y-90552380D01*
X108976190Y-90552380D01*
X108833333Y-90600000D01*
X108738095Y-90695238D01*
X108690476Y-90790476D01*
X108642857Y-90980952D01*
X108642857Y-91123809D01*
X108690476Y-91314285D01*
X108738095Y-91409523D01*
X108833333Y-91504761D01*
X108976190Y-91552380D01*
X109071428Y-91552380D01*
X109214285Y-91504761D01*
X109261904Y-91457142D01*
X109261904Y-91123809D01*
X109071428Y-91123809D01*
X109852380Y-89352380D02*
X109852380Y-89733333D01*
X110328571Y-89771428D01*
X110280952Y-89733333D01*
X110233333Y-89657142D01*
X110233333Y-89466666D01*
X110280952Y-89390476D01*
X110328571Y-89352380D01*
X110423809Y-89314285D01*
X110661904Y-89314285D01*
X110757142Y-89352380D01*
X110804761Y-89390476D01*
X110852380Y-89466666D01*
X110852380Y-89657142D01*
X110804761Y-89733333D01*
X110757142Y-89771428D01*
X109852380Y-89085714D02*
X110852380Y-88819047D01*
X109852380Y-88552380D01*
X110852380Y-86895238D02*
X110852380Y-87352380D01*
X110852380Y-87123809D02*
X109852380Y-87123809D01*
X109995238Y-87200000D01*
X110090476Y-87276190D01*
X110138095Y-87352380D01*
X109947619Y-86590476D02*
X109900000Y-86552380D01*
X109852380Y-86476190D01*
X109852380Y-86285714D01*
X109900000Y-86209523D01*
X109947619Y-86171428D01*
X110042857Y-86133333D01*
X110138095Y-86133333D01*
X110280952Y-86171428D01*
X110852380Y-86628571D01*
X110852380Y-86133333D01*
X109852380Y-85904761D02*
X110852380Y-85638095D01*
X109852380Y-85371428D01*
%TO.C,JP1*%
X131900000Y-127861904D02*
X131852380Y-127957142D01*
X131852380Y-128100000D01*
X131900000Y-128242857D01*
X131995238Y-128338095D01*
X132090476Y-128385714D01*
X132280952Y-128433333D01*
X132423809Y-128433333D01*
X132614285Y-128385714D01*
X132709523Y-128338095D01*
X132804761Y-128242857D01*
X132852380Y-128100000D01*
X132852380Y-128004761D01*
X132804761Y-127861904D01*
X132757142Y-127814285D01*
X132423809Y-127814285D01*
X132423809Y-128004761D01*
X132852380Y-127385714D02*
X131852380Y-127385714D01*
X132852380Y-126814285D01*
X131852380Y-126814285D01*
X132852380Y-126338095D02*
X131852380Y-126338095D01*
X131852380Y-126100000D01*
X131900000Y-125957142D01*
X131995238Y-125861904D01*
X132090476Y-125814285D01*
X132280952Y-125766666D01*
X132423809Y-125766666D01*
X132614285Y-125814285D01*
X132709523Y-125861904D01*
X132804761Y-125957142D01*
X132852380Y-126100000D01*
X132852380Y-126338095D01*
%TO.C,JP2*%
X108452380Y-127190476D02*
X108452380Y-127666666D01*
X108928571Y-127714285D01*
X108880952Y-127666666D01*
X108833333Y-127571428D01*
X108833333Y-127333333D01*
X108880952Y-127238095D01*
X108928571Y-127190476D01*
X109023809Y-127142857D01*
X109261904Y-127142857D01*
X109357142Y-127190476D01*
X109404761Y-127238095D01*
X109452380Y-127333333D01*
X109452380Y-127571428D01*
X109404761Y-127666666D01*
X109357142Y-127714285D01*
X108452380Y-126857142D02*
X109452380Y-126523809D01*
X108452380Y-126190476D01*
%TO.C,OUT1*%
X127880952Y-96666666D02*
X128357142Y-96666666D01*
X127785714Y-96952380D02*
X128119047Y-95952380D01*
X128452380Y-96952380D01*
X128785714Y-96952380D02*
X128785714Y-95952380D01*
X129357142Y-96952380D01*
X129357142Y-95952380D01*
X129785714Y-96666666D02*
X130261904Y-96666666D01*
X129690476Y-96952380D02*
X130023809Y-95952380D01*
X130357142Y-96952380D01*
X131166666Y-96952380D02*
X130690476Y-96952380D01*
X130690476Y-95952380D01*
X131690476Y-95952380D02*
X131880952Y-95952380D01*
X131976190Y-96000000D01*
X132071428Y-96095238D01*
X132119047Y-96285714D01*
X132119047Y-96619047D01*
X132071428Y-96809523D01*
X131976190Y-96904761D01*
X131880952Y-96952380D01*
X131690476Y-96952380D01*
X131595238Y-96904761D01*
X131500000Y-96809523D01*
X131452380Y-96619047D01*
X131452380Y-96285714D01*
X131500000Y-96095238D01*
X131595238Y-96000000D01*
X131690476Y-95952380D01*
X133071428Y-96000000D02*
X132976190Y-95952380D01*
X132833333Y-95952380D01*
X132690476Y-96000000D01*
X132595238Y-96095238D01*
X132547619Y-96190476D01*
X132500000Y-96380952D01*
X132500000Y-96523809D01*
X132547619Y-96714285D01*
X132595238Y-96809523D01*
X132690476Y-96904761D01*
X132833333Y-96952380D01*
X132928571Y-96952380D01*
X133071428Y-96904761D01*
X133119047Y-96857142D01*
X133119047Y-96523809D01*
X132928571Y-96523809D01*
%TO.C,OUT2*%
X128247619Y-106919047D02*
X128247619Y-105919047D01*
X128485714Y-105919047D01*
X128628571Y-105966667D01*
X128723809Y-106061905D01*
X128771428Y-106157143D01*
X128819047Y-106347619D01*
X128819047Y-106490476D01*
X128771428Y-106680952D01*
X128723809Y-106776190D01*
X128628571Y-106871428D01*
X128485714Y-106919047D01*
X128247619Y-106919047D01*
X129247619Y-106919047D02*
X129247619Y-105919047D01*
X130247619Y-105966667D02*
X130152380Y-105919047D01*
X130009523Y-105919047D01*
X129866666Y-105966667D01*
X129771428Y-106061905D01*
X129723809Y-106157143D01*
X129676190Y-106347619D01*
X129676190Y-106490476D01*
X129723809Y-106680952D01*
X129771428Y-106776190D01*
X129866666Y-106871428D01*
X130009523Y-106919047D01*
X130104761Y-106919047D01*
X130247619Y-106871428D01*
X130295238Y-106823809D01*
X130295238Y-106490476D01*
X130104761Y-106490476D01*
X130723809Y-106919047D02*
X130723809Y-105919047D01*
X131057142Y-105919047D02*
X131628571Y-105919047D01*
X131342857Y-106919047D02*
X131342857Y-105919047D01*
X131914285Y-106633333D02*
X132390476Y-106633333D01*
X131819047Y-106919047D02*
X132152380Y-105919047D01*
X132485714Y-106919047D01*
X133295238Y-106919047D02*
X132819047Y-106919047D01*
X132819047Y-105919047D01*
%TO.C,OUT3*%
X129823809Y-117152380D02*
X129823809Y-116152380D01*
X130252380Y-116247619D02*
X130300000Y-116200000D01*
X130395238Y-116152380D01*
X130633333Y-116152380D01*
X130728571Y-116200000D01*
X130776190Y-116247619D01*
X130823809Y-116342857D01*
X130823809Y-116438095D01*
X130776190Y-116580952D01*
X130204761Y-117152380D01*
X130823809Y-117152380D01*
X131823809Y-117057142D02*
X131776190Y-117104761D01*
X131633333Y-117152380D01*
X131538095Y-117152380D01*
X131395238Y-117104761D01*
X131300000Y-117009523D01*
X131252380Y-116914285D01*
X131204761Y-116723809D01*
X131204761Y-116580952D01*
X131252380Y-116390476D01*
X131300000Y-116295238D01*
X131395238Y-116200000D01*
X131538095Y-116152380D01*
X131633333Y-116152380D01*
X131776190Y-116200000D01*
X131823809Y-116247619D01*
%TO.C,OUT4*%
X129023809Y-118352380D02*
X128452380Y-118352380D01*
X128738095Y-118352380D02*
X128738095Y-117352380D01*
X128642857Y-117495238D01*
X128547619Y-117590476D01*
X128452380Y-117638095D01*
X129357142Y-117352380D02*
X129595238Y-118352380D01*
X129785714Y-117638095D01*
X129976190Y-118352380D01*
X130214285Y-117352380D01*
X130595238Y-118352380D02*
X130595238Y-117352380D01*
X131642857Y-118352380D02*
X131309523Y-117876190D01*
X131071428Y-118352380D02*
X131071428Y-117352380D01*
X131452380Y-117352380D01*
X131547619Y-117400000D01*
X131595238Y-117447619D01*
X131642857Y-117542857D01*
X131642857Y-117685714D01*
X131595238Y-117780952D01*
X131547619Y-117828571D01*
X131452380Y-117876190D01*
X131071428Y-117876190D01*
X132071428Y-117828571D02*
X132404761Y-117828571D01*
X132547619Y-118352380D02*
X132071428Y-118352380D01*
X132071428Y-117352380D01*
X132547619Y-117352380D01*
%TO.C,U2*%
X101409523Y-85652380D02*
X100933333Y-85652380D01*
X100885714Y-86128571D01*
X100933333Y-86080952D01*
X101028571Y-86033333D01*
X101266666Y-86033333D01*
X101361904Y-86080952D01*
X101409523Y-86128571D01*
X101457142Y-86223809D01*
X101457142Y-86461904D01*
X101409523Y-86557142D01*
X101361904Y-86604761D01*
X101266666Y-86652380D01*
X101028571Y-86652380D01*
X100933333Y-86604761D01*
X100885714Y-86557142D01*
X101742857Y-85652380D02*
X102076190Y-86652380D01*
X102409523Y-85652380D01*
X94380952Y-86652380D02*
X93809523Y-86652380D01*
X94095238Y-86652380D02*
X94095238Y-85652380D01*
X94000000Y-85795238D01*
X93904761Y-85890476D01*
X93809523Y-85938095D01*
X94761904Y-85747619D02*
X94809523Y-85700000D01*
X94904761Y-85652380D01*
X95142857Y-85652380D01*
X95238095Y-85700000D01*
X95285714Y-85747619D01*
X95333333Y-85842857D01*
X95333333Y-85938095D01*
X95285714Y-86080952D01*
X94714285Y-86652380D01*
X95333333Y-86652380D01*
X95619047Y-85652380D02*
X95952380Y-86652380D01*
X96285714Y-85652380D01*
%TO.C,XA1*%
D17*
X119503333Y-94456190D02*
X119670000Y-94956190D01*
X119836666Y-94456190D01*
X120289047Y-94908571D02*
X120265238Y-94932380D01*
X120193809Y-94956190D01*
X120146190Y-94956190D01*
X120074761Y-94932380D01*
X120027142Y-94884761D01*
X120003333Y-94837142D01*
X119979523Y-94741904D01*
X119979523Y-94670476D01*
X120003333Y-94575238D01*
X120027142Y-94527619D01*
X120074761Y-94480000D01*
X120146190Y-94456190D01*
X120193809Y-94456190D01*
X120265238Y-94480000D01*
X120289047Y-94503809D01*
X120789047Y-94908571D02*
X120765238Y-94932380D01*
X120693809Y-94956190D01*
X120646190Y-94956190D01*
X120574761Y-94932380D01*
X120527142Y-94884761D01*
X120503333Y-94837142D01*
X120479523Y-94741904D01*
X120479523Y-94670476D01*
X120503333Y-94575238D01*
X120527142Y-94527619D01*
X120574761Y-94480000D01*
X120646190Y-94456190D01*
X120693809Y-94456190D01*
X120765238Y-94480000D01*
X120789047Y-94503809D01*
X111978571Y-94956190D02*
X111978571Y-94456190D01*
X112097619Y-94456190D01*
X112169047Y-94480000D01*
X112216666Y-94527619D01*
X112240476Y-94575238D01*
X112264285Y-94670476D01*
X112264285Y-94741904D01*
X112240476Y-94837142D01*
X112216666Y-94884761D01*
X112169047Y-94932380D01*
X112097619Y-94956190D01*
X111978571Y-94956190D01*
X112407142Y-94456190D02*
X112692857Y-94456190D01*
X112550000Y-94956190D02*
X112550000Y-94456190D01*
X113145238Y-94956190D02*
X112978571Y-94718095D01*
X112859523Y-94956190D02*
X112859523Y-94456190D01*
X113050000Y-94456190D01*
X113097619Y-94480000D01*
X113121428Y-94503809D01*
X113145238Y-94551428D01*
X113145238Y-94622857D01*
X113121428Y-94670476D01*
X113097619Y-94694285D01*
X113050000Y-94718095D01*
X112859523Y-94718095D01*
X117427619Y-94956190D02*
X117260952Y-94718095D01*
X117141904Y-94956190D02*
X117141904Y-94456190D01*
X117332380Y-94456190D01*
X117380000Y-94480000D01*
X117403809Y-94503809D01*
X117427619Y-94551428D01*
X117427619Y-94622857D01*
X117403809Y-94670476D01*
X117380000Y-94694285D01*
X117332380Y-94718095D01*
X117141904Y-94718095D01*
X117594285Y-94456190D02*
X117927619Y-94956190D01*
X117927619Y-94456190D02*
X117594285Y-94956190D01*
X118118095Y-94956190D02*
X118118095Y-94456190D01*
X114447142Y-94456190D02*
X114732857Y-94456190D01*
X114590000Y-94956190D02*
X114590000Y-94456190D01*
X114851904Y-94456190D02*
X115185238Y-94956190D01*
X115185238Y-94456190D02*
X114851904Y-94956190D01*
X115470952Y-94456190D02*
X115566190Y-94456190D01*
X115613809Y-94480000D01*
X115661428Y-94527619D01*
X115685238Y-94622857D01*
X115685238Y-94789523D01*
X115661428Y-94884761D01*
X115613809Y-94932380D01*
X115566190Y-94956190D01*
X115470952Y-94956190D01*
X115423333Y-94932380D01*
X115375714Y-94884761D01*
X115351904Y-94789523D01*
X115351904Y-94622857D01*
X115375714Y-94527619D01*
X115423333Y-94480000D01*
X115470952Y-94456190D01*
X112530190Y-96642857D02*
X112530190Y-96357142D01*
X113030190Y-96500000D02*
X112530190Y-96500000D01*
X112530190Y-96238095D02*
X113030190Y-95904761D01*
X112530190Y-95904761D02*
X113030190Y-96238095D01*
X112530190Y-95619047D02*
X112530190Y-95523809D01*
X112554000Y-95476190D01*
X112601619Y-95428571D01*
X112696857Y-95404761D01*
X112863523Y-95404761D01*
X112958761Y-95428571D01*
X113006380Y-95476190D01*
X113030190Y-95523809D01*
X113030190Y-95619047D01*
X113006380Y-95666666D01*
X112958761Y-95714285D01*
X112863523Y-95738095D01*
X112696857Y-95738095D01*
X112601619Y-95714285D01*
X112554000Y-95666666D01*
X112530190Y-95619047D01*
X113030190Y-98742380D02*
X112792095Y-98909047D01*
X113030190Y-99028095D02*
X112530190Y-99028095D01*
X112530190Y-98837619D01*
X112554000Y-98790000D01*
X112577809Y-98766190D01*
X112625428Y-98742380D01*
X112696857Y-98742380D01*
X112744476Y-98766190D01*
X112768285Y-98790000D01*
X112792095Y-98837619D01*
X112792095Y-99028095D01*
X112530190Y-98575714D02*
X113030190Y-98242380D01*
X112530190Y-98242380D02*
X113030190Y-98575714D01*
X113030190Y-98051904D02*
X112530190Y-98051904D01*
X113030190Y-101353809D02*
X112792095Y-101520476D01*
X113030190Y-101639523D02*
X112530190Y-101639523D01*
X112530190Y-101449047D01*
X112554000Y-101401428D01*
X112577809Y-101377619D01*
X112625428Y-101353809D01*
X112696857Y-101353809D01*
X112744476Y-101377619D01*
X112768285Y-101401428D01*
X112792095Y-101449047D01*
X112792095Y-101639523D01*
X113006380Y-101163333D02*
X113030190Y-101091904D01*
X113030190Y-100972857D01*
X113006380Y-100925238D01*
X112982571Y-100901428D01*
X112934952Y-100877619D01*
X112887333Y-100877619D01*
X112839714Y-100901428D01*
X112815904Y-100925238D01*
X112792095Y-100972857D01*
X112768285Y-101068095D01*
X112744476Y-101115714D01*
X112720666Y-101139523D01*
X112673047Y-101163333D01*
X112625428Y-101163333D01*
X112577809Y-101139523D01*
X112554000Y-101115714D01*
X112530190Y-101068095D01*
X112530190Y-100949047D01*
X112554000Y-100877619D01*
X112530190Y-100734761D02*
X112530190Y-100449047D01*
X113030190Y-100591904D02*
X112530190Y-100591904D01*
X116900000Y-96456380D02*
X116971428Y-96480190D01*
X117090476Y-96480190D01*
X117138095Y-96456380D01*
X117161904Y-96432571D01*
X117185714Y-96384952D01*
X117185714Y-96337333D01*
X117161904Y-96289714D01*
X117138095Y-96265904D01*
X117090476Y-96242095D01*
X116995238Y-96218285D01*
X116947619Y-96194476D01*
X116923809Y-96170666D01*
X116900000Y-96123047D01*
X116900000Y-96075428D01*
X116923809Y-96027809D01*
X116947619Y-96004000D01*
X116995238Y-95980190D01*
X117114285Y-95980190D01*
X117185714Y-96004000D01*
X117400000Y-96480190D02*
X117400000Y-95980190D01*
X117590476Y-95980190D01*
X117638095Y-96004000D01*
X117661904Y-96027809D01*
X117685714Y-96075428D01*
X117685714Y-96146857D01*
X117661904Y-96194476D01*
X117638095Y-96218285D01*
X117590476Y-96242095D01*
X117400000Y-96242095D01*
X117900000Y-96480190D02*
X117900000Y-95980190D01*
X118519047Y-96480190D02*
X118519047Y-95980190D01*
X118519047Y-96218285D02*
X118804761Y-96218285D01*
X118804761Y-96480190D02*
X118804761Y-95980190D01*
X119233333Y-96456380D02*
X119185714Y-96480190D01*
X119090476Y-96480190D01*
X119042857Y-96456380D01*
X119019047Y-96408761D01*
X119019047Y-96218285D01*
X119042857Y-96170666D01*
X119090476Y-96146857D01*
X119185714Y-96146857D01*
X119233333Y-96170666D01*
X119257142Y-96218285D01*
X119257142Y-96265904D01*
X119019047Y-96313523D01*
X119685714Y-96480190D02*
X119685714Y-96218285D01*
X119661904Y-96170666D01*
X119614285Y-96146857D01*
X119519047Y-96146857D01*
X119471428Y-96170666D01*
X119685714Y-96456380D02*
X119638095Y-96480190D01*
X119519047Y-96480190D01*
X119471428Y-96456380D01*
X119447619Y-96408761D01*
X119447619Y-96361142D01*
X119471428Y-96313523D01*
X119519047Y-96289714D01*
X119638095Y-96289714D01*
X119685714Y-96265904D01*
X120138095Y-96480190D02*
X120138095Y-95980190D01*
X120138095Y-96456380D02*
X120090476Y-96480190D01*
X119995238Y-96480190D01*
X119947619Y-96456380D01*
X119923809Y-96432571D01*
X119900000Y-96384952D01*
X119900000Y-96242095D01*
X119923809Y-96194476D01*
X119947619Y-96170666D01*
X119995238Y-96146857D01*
X120090476Y-96146857D01*
X120138095Y-96170666D01*
X120566666Y-96456380D02*
X120519047Y-96480190D01*
X120423809Y-96480190D01*
X120376190Y-96456380D01*
X120352380Y-96408761D01*
X120352380Y-96218285D01*
X120376190Y-96170666D01*
X120423809Y-96146857D01*
X120519047Y-96146857D01*
X120566666Y-96170666D01*
X120590476Y-96218285D01*
X120590476Y-96265904D01*
X120352380Y-96313523D01*
X120804761Y-96480190D02*
X120804761Y-96146857D01*
X120804761Y-96242095D02*
X120828571Y-96194476D01*
X120852380Y-96170666D01*
X120900000Y-96146857D01*
X120947619Y-96146857D01*
X125222190Y-101353809D02*
X124984095Y-101520476D01*
X125222190Y-101639523D02*
X124722190Y-101639523D01*
X124722190Y-101449047D01*
X124746000Y-101401428D01*
X124769809Y-101377619D01*
X124817428Y-101353809D01*
X124888857Y-101353809D01*
X124936476Y-101377619D01*
X124960285Y-101401428D01*
X124984095Y-101449047D01*
X124984095Y-101639523D01*
X125198380Y-101163333D02*
X125222190Y-101091904D01*
X125222190Y-100972857D01*
X125198380Y-100925238D01*
X125174571Y-100901428D01*
X125126952Y-100877619D01*
X125079333Y-100877619D01*
X125031714Y-100901428D01*
X125007904Y-100925238D01*
X124984095Y-100972857D01*
X124960285Y-101068095D01*
X124936476Y-101115714D01*
X124912666Y-101139523D01*
X124865047Y-101163333D01*
X124817428Y-101163333D01*
X124769809Y-101139523D01*
X124746000Y-101115714D01*
X124722190Y-101068095D01*
X124722190Y-100949047D01*
X124746000Y-100877619D01*
X124722190Y-100734761D02*
X124722190Y-100449047D01*
X125222190Y-100591904D02*
X124722190Y-100591904D01*
%TD*%
%LPC*%
D18*
%TO.C,R1*%
X107100000Y-117880000D03*
D19*
X107100000Y-125500000D03*
%TD*%
D20*
%TO.C,J1*%
X108318920Y-88970000D03*
D21*
X105281080Y-88970000D03*
X108318920Y-86430000D03*
X105281080Y-86430000D03*
%TD*%
D20*
%TO.C,J2*%
X98981080Y-126570000D03*
D21*
X102018920Y-126570000D03*
X98981080Y-124030000D03*
X102018920Y-124030000D03*
%TD*%
D20*
%TO.C,J3*%
X98981080Y-120870000D03*
D21*
X102018920Y-120870000D03*
X98981080Y-118330000D03*
X102018920Y-118330000D03*
%TD*%
D22*
%TO.C,J4*%
X106660000Y-102250000D03*
X95230000Y-102250000D03*
D23*
X96500000Y-95900000D03*
D24*
X97770000Y-93360000D03*
X99040000Y-95900000D03*
X100310000Y-93360000D03*
X101580000Y-95900000D03*
X102850000Y-93360000D03*
X104120000Y-95900000D03*
X105390000Y-93360000D03*
%TD*%
D25*
%TO.C,JP1*%
X127730000Y-127100000D03*
D26*
X130270000Y-127100000D03*
%TD*%
%TO.C,JP2*%
X113670000Y-127100000D03*
D25*
X111130000Y-127100000D03*
%TD*%
%TO.C,OUT1*%
G36*
G01*
X130050000Y-89200000D02*
X130950000Y-89200000D01*
G75*
G02*
X131150000Y-89400000I0J-200000D01*
G01*
X131150000Y-89800000D01*
G75*
G02*
X130950000Y-90000000I-200000J0D01*
G01*
X130050000Y-90000000D01*
G75*
G02*
X129850000Y-89800000I0J200000D01*
G01*
X129850000Y-89400000D01*
G75*
G02*
X130050000Y-89200000I200000J0D01*
G01*
G37*
D27*
X130500000Y-90850000D03*
X130500000Y-92100000D03*
X130500000Y-93350000D03*
%TD*%
%TO.C,OUT2*%
X130500000Y-103650000D03*
X130500000Y-102400000D03*
X130500000Y-101150000D03*
G36*
G01*
X130050000Y-99500000D02*
X130950000Y-99500000D01*
G75*
G02*
X131150000Y-99700000I0J-200000D01*
G01*
X131150000Y-100100000D01*
G75*
G02*
X130950000Y-100300000I-200000J0D01*
G01*
X130050000Y-100300000D01*
G75*
G02*
X129850000Y-100100000I0J200000D01*
G01*
X129850000Y-99700000D01*
G75*
G02*
X130050000Y-99500000I200000J0D01*
G01*
G37*
%TD*%
%TO.C,OUT3*%
G36*
G01*
X130050000Y-109800000D02*
X130950000Y-109800000D01*
G75*
G02*
X131150000Y-110000000I0J-200000D01*
G01*
X131150000Y-110400000D01*
G75*
G02*
X130950000Y-110600000I-200000J0D01*
G01*
X130050000Y-110600000D01*
G75*
G02*
X129850000Y-110400000I0J200000D01*
G01*
X129850000Y-110000000D01*
G75*
G02*
X130050000Y-109800000I200000J0D01*
G01*
G37*
X130500000Y-111450000D03*
X130500000Y-112700000D03*
X130500000Y-113950000D03*
%TD*%
%TO.C,OUT4*%
G36*
G01*
X130050000Y-120100000D02*
X130950000Y-120100000D01*
G75*
G02*
X131150000Y-120300000I0J-200000D01*
G01*
X131150000Y-120700000D01*
G75*
G02*
X130950000Y-120900000I-200000J0D01*
G01*
X130050000Y-120900000D01*
G75*
G02*
X129850000Y-120700000I0J200000D01*
G01*
X129850000Y-120300000D01*
G75*
G02*
X130050000Y-120100000I200000J0D01*
G01*
G37*
X130500000Y-121750000D03*
X130500000Y-123000000D03*
%TD*%
%TO.C,U1*%
G36*
G01*
X123856000Y-85524400D02*
X125364000Y-85524400D01*
G75*
G02*
X125465600Y-85626000I0J-101600D01*
G01*
X125465600Y-87134000D01*
G75*
G02*
X125364000Y-87235600I-101600J0D01*
G01*
X123856000Y-87235600D01*
G75*
G02*
X123754400Y-87134000I0J101600D01*
G01*
X123754400Y-85626000D01*
G75*
G02*
X123856000Y-85524400I101600J0D01*
G01*
G37*
D28*
X122070000Y-86380000D03*
X119530000Y-86380000D03*
X116990000Y-86380000D03*
G36*
G01*
X117744000Y-127875600D02*
X116236000Y-127875600D01*
G75*
G02*
X116134400Y-127774000I0J101600D01*
G01*
X116134400Y-126266000D01*
G75*
G02*
X116236000Y-126164400I101600J0D01*
G01*
X117744000Y-126164400D01*
G75*
G02*
X117845600Y-126266000I0J-101600D01*
G01*
X117845600Y-127774000D01*
G75*
G02*
X117744000Y-127875600I-101600J0D01*
G01*
G37*
X119530000Y-127020000D03*
X122070000Y-127020000D03*
X124610000Y-127020000D03*
%TD*%
D29*
%TO.C,U2*%
X95800000Y-88700000D03*
D30*
X98340000Y-88700000D03*
X100880000Y-88700000D03*
%TD*%
D31*
%TO.C,XA1*%
X123980000Y-107430000D03*
X123980000Y-104890000D03*
D32*
X118900000Y-123940000D03*
D31*
X121440000Y-123940000D03*
X123980000Y-123940000D03*
X126520000Y-123940000D03*
X126520000Y-121400000D03*
X126520000Y-118860000D03*
X126520000Y-116320000D03*
X126520000Y-113780000D03*
X126520000Y-111240000D03*
X126520000Y-108700000D03*
X126520000Y-106160000D03*
X126520000Y-103620000D03*
X126520000Y-101080000D03*
D32*
X126520000Y-98540000D03*
D31*
X126520000Y-96000000D03*
D32*
X125250000Y-93460000D03*
X122710000Y-93460000D03*
D31*
X120170000Y-93460000D03*
X117630000Y-93460000D03*
X115090000Y-93460000D03*
X112550000Y-93460000D03*
X111280000Y-96000000D03*
X111280000Y-98540000D03*
X111280000Y-101080000D03*
D32*
X111280000Y-103620000D03*
D31*
X111280000Y-106160000D03*
X111280000Y-108700000D03*
X111280000Y-111240000D03*
X111280000Y-113780000D03*
X111280000Y-116320000D03*
X111280000Y-118860000D03*
X111280000Y-121400000D03*
X111280000Y-123940000D03*
%TD*%
M02*
