%FSLAX45Y45*%
G04 Gerber Fmt 4.5, Leading zero omitted, Abs format (unit mm)*
G04 Created by KiCad (PCBNEW 5.1.9-73d0e3b20d~88~ubuntu20.04.1) date 2021-04-29 00:32:56*
%MOMM*%
%LPD*%
G01*
G04 APERTURE LIST*
%TA.AperFunction,Profile*%
%ADD10C,0.050000*%
%TD*%
%ADD11C,0.200000*%
%ADD12C,0.300000*%
G04 APERTURE END LIST*
D10*
X9270000Y-12870000D02*
X9270000Y-8470000D01*
X13370000Y-12870000D02*
X9270000Y-12870000D01*
X13370000Y-8470000D02*
X13370000Y-12870000D01*
X9270000Y-8470000D02*
X13370000Y-8470000D01*
D11*
X13025000Y-8935000D02*
X13075000Y-8985000D01*
X13075000Y-8935000D02*
X13025000Y-8985000D01*
X13025000Y-9060000D02*
X13075000Y-9110000D01*
X13075000Y-9060000D02*
X13025000Y-9110000D01*
X13025000Y-9185000D02*
X13075000Y-9235000D01*
X13075000Y-9185000D02*
X13025000Y-9235000D01*
X13025000Y-9310000D02*
X13075000Y-9360000D01*
X13075000Y-9310000D02*
X13025000Y-9360000D01*
X13025000Y-9965000D02*
X13075000Y-10015000D01*
X13075000Y-9965000D02*
X13025000Y-10015000D01*
X13025000Y-10090000D02*
X13075000Y-10140000D01*
X13075000Y-10090000D02*
X13025000Y-10140000D01*
X13025000Y-10215000D02*
X13075000Y-10265000D01*
X13075000Y-10215000D02*
X13025000Y-10265000D01*
X13025000Y-10340000D02*
X13075000Y-10390000D01*
X13075000Y-10340000D02*
X13025000Y-10390000D01*
X13025000Y-10995000D02*
X13075000Y-11045000D01*
X13075000Y-10995000D02*
X13025000Y-11045000D01*
X13025000Y-11120000D02*
X13075000Y-11170000D01*
X13075000Y-11120000D02*
X13025000Y-11170000D01*
X13025000Y-11245000D02*
X13075000Y-11295000D01*
X13075000Y-11245000D02*
X13025000Y-11295000D01*
X13025000Y-11370000D02*
X13075000Y-11420000D01*
X13075000Y-11370000D02*
X13025000Y-11420000D01*
X13025000Y-12025000D02*
X13075000Y-12075000D01*
X13075000Y-12025000D02*
X13025000Y-12075000D01*
X13025000Y-12150000D02*
X13075000Y-12200000D01*
X13075000Y-12150000D02*
X13025000Y-12200000D01*
X13025000Y-12275000D02*
X13075000Y-12325000D01*
X13075000Y-12275000D02*
X13025000Y-12325000D01*
X9501750Y-10730000D02*
G75*
G03*
X9501750Y-10730000I-31750J0D01*
G01*
X9601750Y-11140000D02*
G75*
G03*
X9601750Y-11140000I-31750J0D01*
G01*
X9621750Y-11890000D02*
G75*
G03*
X9621750Y-11890000I-31750J0D01*
G01*
X9671750Y-12530000D02*
G75*
G03*
X9671750Y-12530000I-31750J0D01*
G01*
X10171750Y-10640000D02*
G75*
G03*
X10171750Y-10640000I-31750J0D01*
G01*
X10301750Y-8770000D02*
G75*
G03*
X10301750Y-8770000I-31750J0D01*
G01*
X10451750Y-10190000D02*
G75*
G03*
X10451750Y-10190000I-31750J0D01*
G01*
X10531750Y-12730000D02*
G75*
G03*
X10531750Y-12730000I-31750J0D01*
G01*
X10831750Y-10470000D02*
G75*
G03*
X10831750Y-10470000I-31750J0D01*
G01*
X10861750Y-11260000D02*
G75*
G03*
X10861750Y-11260000I-31750J0D01*
G01*
X11563050Y-11670000D02*
G75*
G03*
X11563050Y-11670000I-31750J0D01*
G01*
X11563050Y-11840910D02*
G75*
G03*
X11563050Y-11840910I-31750J0D01*
G01*
X11721750Y-10110000D02*
G75*
G03*
X11721750Y-10110000I-31750J0D01*
G01*
X11901750Y-11660000D02*
G75*
G03*
X11901750Y-11660000I-31750J0D01*
G01*
X11901750Y-11860000D02*
G75*
G03*
X11901750Y-11860000I-31750J0D01*
G01*
X11981750Y-8960650D02*
G75*
G03*
X11981750Y-8960650I-31750J0D01*
G01*
X12001750Y-12060000D02*
G75*
G03*
X12001750Y-12060000I-31750J0D01*
G01*
X12111750Y-9640000D02*
G75*
G03*
X12111750Y-9640000I-31750J0D01*
G01*
X12131750Y-10210000D02*
G75*
G03*
X12131750Y-10210000I-31750J0D01*
G01*
X12131750Y-11020000D02*
G75*
G03*
X12131750Y-11020000I-31750J0D01*
G01*
X12165481Y-9168954D02*
G75*
G03*
X12165481Y-9168954I-31750J0D01*
G01*
X12201750Y-9900000D02*
G75*
G03*
X12201750Y-9900000I-31750J0D01*
G01*
X12241750Y-11710000D02*
G75*
G03*
X12241750Y-11710000I-31750J0D01*
G01*
X12261750Y-10890000D02*
G75*
G03*
X12261750Y-10890000I-31750J0D01*
G01*
X12375250Y-9710000D02*
G75*
G03*
X12375250Y-9710000I-31750J0D01*
G01*
X12411750Y-9930000D02*
G75*
G03*
X12411750Y-9930000I-31750J0D01*
G01*
X12521750Y-8919350D02*
G75*
G03*
X12521750Y-8919350I-31750J0D01*
G01*
X12971750Y-8620000D02*
G75*
G03*
X12971750Y-8620000I-31750J0D01*
G01*
X13071750Y-9740000D02*
G75*
G03*
X13071750Y-9740000I-31750J0D01*
G01*
X10710000Y-11753000D02*
X10710000Y-11823000D01*
X10675000Y-11788000D02*
X10745000Y-11788000D01*
X10710000Y-12515000D02*
X10710000Y-12585000D01*
X10675000Y-12550000D02*
X10745000Y-12550000D01*
X9676870Y-9616870D02*
X9676870Y-9563130D01*
X9623130Y-9563130D01*
X9623130Y-9616870D01*
X9676870Y-9616870D01*
X9803870Y-9362870D02*
X9803870Y-9309130D01*
X9750130Y-9309130D01*
X9750130Y-9362870D01*
X9803870Y-9362870D01*
X9930870Y-9616870D02*
X9930870Y-9563130D01*
X9877130Y-9563130D01*
X9877130Y-9616870D01*
X9930870Y-9616870D01*
X10057870Y-9362870D02*
X10057870Y-9309130D01*
X10004130Y-9309130D01*
X10004130Y-9362870D01*
X10057870Y-9362870D01*
X10184870Y-9616870D02*
X10184870Y-9563130D01*
X10131130Y-9563130D01*
X10131130Y-9616870D01*
X10184870Y-9616870D01*
X10311870Y-9362870D02*
X10311870Y-9309130D01*
X10258130Y-9309130D01*
X10258130Y-9362870D01*
X10311870Y-9362870D01*
X10438870Y-9616870D02*
X10438870Y-9563130D01*
X10385130Y-9563130D01*
X10385130Y-9616870D01*
X10438870Y-9616870D01*
X10565870Y-9362870D02*
X10565870Y-9309130D01*
X10512130Y-9309130D01*
X10512130Y-9362870D01*
X10565870Y-9362870D01*
X9789650Y-10624450D02*
X9834100Y-10580000D01*
X9789650Y-10535550D01*
X9745200Y-10580000D01*
X9789650Y-10624450D01*
X9800000Y-9154450D02*
X9844450Y-9110000D01*
X9800000Y-9065550D01*
X9755550Y-9110000D01*
X9800000Y-9154450D01*
X9940000Y-10034450D02*
X9984450Y-9990000D01*
X9940000Y-9945550D01*
X9895550Y-9990000D01*
X9940000Y-10034450D01*
X10060000Y-10374450D02*
X10104450Y-10330000D01*
X10060000Y-10285550D01*
X10015550Y-10330000D01*
X10060000Y-10374450D01*
X10254293Y-10368743D02*
X10298743Y-10324293D01*
X10254293Y-10279843D01*
X10209843Y-10324293D01*
X10254293Y-10368743D01*
X10430000Y-11964450D02*
X10474450Y-11920000D01*
X10430000Y-11875550D01*
X10385550Y-11920000D01*
X10430000Y-11964450D01*
X10480000Y-12354450D02*
X10524450Y-12310000D01*
X10480000Y-12265550D01*
X10435550Y-12310000D01*
X10480000Y-12354450D01*
X10640000Y-12174450D02*
X10684450Y-12130000D01*
X10640000Y-12085550D01*
X10595550Y-12130000D01*
X10640000Y-12174450D01*
X10730000Y-10004450D02*
X10774450Y-9960000D01*
X10730000Y-9915550D01*
X10685550Y-9960000D01*
X10730000Y-10004450D01*
X11270000Y-9024450D02*
X11314450Y-8980000D01*
X11270000Y-8935550D01*
X11225550Y-8980000D01*
X11270000Y-9024450D01*
X11835700Y-9094450D02*
X11880150Y-9050000D01*
X11835700Y-9005550D01*
X11791250Y-9050000D01*
X11835700Y-9094450D01*
X12080000Y-9084450D02*
X12124450Y-9040000D01*
X12080000Y-8995550D01*
X12035550Y-9040000D01*
X12080000Y-9084450D01*
X12810000Y-9144450D02*
X12854450Y-9100000D01*
X12810000Y-9055550D01*
X12765550Y-9100000D01*
X12810000Y-9144450D01*
X11649000Y-8588000D02*
X11749000Y-8688000D01*
X11749000Y-8588000D02*
X11649000Y-8688000D01*
X11749000Y-8638000D02*
G75*
G03*
X11749000Y-8638000I-50000J0D01*
G01*
X11649000Y-12652000D02*
X11749000Y-12752000D01*
X11749000Y-12652000D02*
X11649000Y-12752000D01*
X11749000Y-12702000D02*
G75*
G03*
X11749000Y-12702000I-50000J0D01*
G01*
X11903000Y-8588000D02*
X12003000Y-8688000D01*
X12003000Y-8588000D02*
X11903000Y-8688000D01*
X12003000Y-8638000D02*
G75*
G03*
X12003000Y-8638000I-50000J0D01*
G01*
X11903000Y-12652000D02*
X12003000Y-12752000D01*
X12003000Y-12652000D02*
X11903000Y-12752000D01*
X12003000Y-12702000D02*
G75*
G03*
X12003000Y-12702000I-50000J0D01*
G01*
X12157000Y-8588000D02*
X12257000Y-8688000D01*
X12257000Y-8588000D02*
X12157000Y-8688000D01*
X12257000Y-8638000D02*
G75*
G03*
X12257000Y-8638000I-50000J0D01*
G01*
X12157000Y-12652000D02*
X12257000Y-12752000D01*
X12257000Y-12652000D02*
X12157000Y-12752000D01*
X12257000Y-12702000D02*
G75*
G03*
X12257000Y-12702000I-50000J0D01*
G01*
X12411000Y-8588000D02*
X12511000Y-8688000D01*
X12511000Y-8588000D02*
X12411000Y-8688000D01*
X12511000Y-8638000D02*
G75*
G03*
X12511000Y-8638000I-50000J0D01*
G01*
X12411000Y-12652000D02*
X12511000Y-12752000D01*
X12511000Y-12652000D02*
X12411000Y-12752000D01*
X12511000Y-12702000D02*
G75*
G03*
X12511000Y-12702000I-50000J0D01*
G01*
X9872962Y-11782962D02*
X9973038Y-11883038D01*
X9973038Y-11782962D02*
X9872962Y-11883038D01*
X9923000Y-11782962D02*
X9923000Y-11883038D01*
X9872962Y-11833000D02*
X9973038Y-11833000D01*
X9872962Y-12036962D02*
X9973038Y-12137038D01*
X9973038Y-12036962D02*
X9872962Y-12137038D01*
X9923000Y-12036962D02*
X9923000Y-12137038D01*
X9872962Y-12087000D02*
X9973038Y-12087000D01*
X9872962Y-12352962D02*
X9973038Y-12453038D01*
X9973038Y-12352962D02*
X9872962Y-12453038D01*
X9923000Y-12352962D02*
X9923000Y-12453038D01*
X9872962Y-12403000D02*
X9973038Y-12403000D01*
X9872962Y-12606962D02*
X9973038Y-12707038D01*
X9973038Y-12606962D02*
X9872962Y-12707038D01*
X9923000Y-12606962D02*
X9923000Y-12707038D01*
X9872962Y-12657000D02*
X9973038Y-12657000D01*
X10126962Y-11782962D02*
X10227038Y-11883038D01*
X10227038Y-11782962D02*
X10126962Y-11883038D01*
X10177000Y-11782962D02*
X10177000Y-11883038D01*
X10126962Y-11833000D02*
X10227038Y-11833000D01*
X10126962Y-12036962D02*
X10227038Y-12137038D01*
X10227038Y-12036962D02*
X10126962Y-12137038D01*
X10177000Y-12036962D02*
X10177000Y-12137038D01*
X10126962Y-12087000D02*
X10227038Y-12087000D01*
X10126962Y-12352962D02*
X10227038Y-12453038D01*
X10227038Y-12352962D02*
X10126962Y-12453038D01*
X10177000Y-12352962D02*
X10177000Y-12453038D01*
X10126962Y-12403000D02*
X10227038Y-12403000D01*
X10126962Y-12606962D02*
X10227038Y-12707038D01*
X10227038Y-12606962D02*
X10126962Y-12707038D01*
X10177000Y-12606962D02*
X10177000Y-12707038D01*
X10126962Y-12657000D02*
X10227038Y-12657000D01*
X10502962Y-8592962D02*
X10603038Y-8693038D01*
X10603038Y-8592962D02*
X10502962Y-8693038D01*
X10553000Y-8592962D02*
X10553000Y-8693038D01*
X10502962Y-8643000D02*
X10603038Y-8643000D01*
X10502962Y-8846962D02*
X10603038Y-8947038D01*
X10603038Y-8846962D02*
X10502962Y-8947038D01*
X10553000Y-8846962D02*
X10553000Y-8947038D01*
X10502962Y-8897000D02*
X10603038Y-8897000D01*
X10756962Y-8592962D02*
X10857038Y-8693038D01*
X10857038Y-8592962D02*
X10756962Y-8693038D01*
X10807000Y-8592962D02*
X10807000Y-8693038D01*
X10756962Y-8643000D02*
X10857038Y-8643000D01*
X10756962Y-8846962D02*
X10857038Y-8947038D01*
X10857038Y-8846962D02*
X10756962Y-8947038D01*
X10807000Y-8846962D02*
X10807000Y-8947038D01*
X10756962Y-8897000D02*
X10857038Y-8897000D01*
X11062962Y-12659962D02*
X11163038Y-12760038D01*
X11163038Y-12659962D02*
X11062962Y-12760038D01*
X11113000Y-12659962D02*
X11113000Y-12760038D01*
X11062962Y-12710000D02*
X11163038Y-12710000D01*
X11316962Y-12659962D02*
X11417038Y-12760038D01*
X11417038Y-12659962D02*
X11316962Y-12760038D01*
X11367000Y-12659962D02*
X11367000Y-12760038D01*
X11316962Y-12710000D02*
X11417038Y-12710000D01*
X12722962Y-12659962D02*
X12823038Y-12760038D01*
X12823038Y-12659962D02*
X12722962Y-12760038D01*
X12773000Y-12659962D02*
X12773000Y-12760038D01*
X12722962Y-12710000D02*
X12823038Y-12710000D01*
X12976962Y-12659962D02*
X13077038Y-12760038D01*
X13077038Y-12659962D02*
X12976962Y-12760038D01*
X13027000Y-12659962D02*
X13027000Y-12760038D01*
X12976962Y-12710000D02*
X13077038Y-12710000D01*
X11077200Y-9549200D02*
X11178800Y-9650800D01*
X11178800Y-9549200D02*
X11077200Y-9650800D01*
X11163921Y-9635921D02*
X11163921Y-9564079D01*
X11092079Y-9564079D01*
X11092079Y-9635921D01*
X11163921Y-9635921D01*
X11077200Y-9803200D02*
X11178800Y-9904800D01*
X11178800Y-9803200D02*
X11077200Y-9904800D01*
X11163921Y-9889921D02*
X11163921Y-9818079D01*
X11092079Y-9818079D01*
X11092079Y-9889921D01*
X11163921Y-9889921D01*
X11077200Y-10057200D02*
X11178800Y-10158800D01*
X11178800Y-10057200D02*
X11077200Y-10158800D01*
X11163921Y-10143921D02*
X11163921Y-10072079D01*
X11092079Y-10072079D01*
X11092079Y-10143921D01*
X11163921Y-10143921D01*
X11077200Y-10311200D02*
X11178800Y-10412800D01*
X11178800Y-10311200D02*
X11077200Y-10412800D01*
X11163921Y-10397921D02*
X11163921Y-10326079D01*
X11092079Y-10326079D01*
X11092079Y-10397921D01*
X11163921Y-10397921D01*
X11077200Y-10565200D02*
X11178800Y-10666800D01*
X11178800Y-10565200D02*
X11077200Y-10666800D01*
X11163921Y-10651921D02*
X11163921Y-10580079D01*
X11092079Y-10580079D01*
X11092079Y-10651921D01*
X11163921Y-10651921D01*
X11077200Y-10819200D02*
X11178800Y-10920800D01*
X11178800Y-10819200D02*
X11077200Y-10920800D01*
X11163921Y-10905921D02*
X11163921Y-10834079D01*
X11092079Y-10834079D01*
X11092079Y-10905921D01*
X11163921Y-10905921D01*
X11077200Y-11073200D02*
X11178800Y-11174800D01*
X11178800Y-11073200D02*
X11077200Y-11174800D01*
X11163921Y-11159921D02*
X11163921Y-11088079D01*
X11092079Y-11088079D01*
X11092079Y-11159921D01*
X11163921Y-11159921D01*
X11077200Y-11327200D02*
X11178800Y-11428800D01*
X11178800Y-11327200D02*
X11077200Y-11428800D01*
X11163921Y-11413921D02*
X11163921Y-11342079D01*
X11092079Y-11342079D01*
X11092079Y-11413921D01*
X11163921Y-11413921D01*
X11077200Y-11581200D02*
X11178800Y-11682800D01*
X11178800Y-11581200D02*
X11077200Y-11682800D01*
X11163921Y-11667921D02*
X11163921Y-11596079D01*
X11092079Y-11596079D01*
X11092079Y-11667921D01*
X11163921Y-11667921D01*
X11077200Y-11835200D02*
X11178800Y-11936800D01*
X11178800Y-11835200D02*
X11077200Y-11936800D01*
X11163921Y-11921921D02*
X11163921Y-11850079D01*
X11092079Y-11850079D01*
X11092079Y-11921921D01*
X11163921Y-11921921D01*
X11077200Y-12089200D02*
X11178800Y-12190800D01*
X11178800Y-12089200D02*
X11077200Y-12190800D01*
X11163921Y-12175921D02*
X11163921Y-12104079D01*
X11092079Y-12104079D01*
X11092079Y-12175921D01*
X11163921Y-12175921D01*
X11077200Y-12343200D02*
X11178800Y-12444800D01*
X11178800Y-12343200D02*
X11077200Y-12444800D01*
X11163921Y-12429921D02*
X11163921Y-12358079D01*
X11092079Y-12358079D01*
X11092079Y-12429921D01*
X11163921Y-12429921D01*
X11204200Y-9295200D02*
X11305800Y-9396800D01*
X11305800Y-9295200D02*
X11204200Y-9396800D01*
X11290921Y-9381921D02*
X11290921Y-9310079D01*
X11219079Y-9310079D01*
X11219079Y-9381921D01*
X11290921Y-9381921D01*
X11458200Y-9295200D02*
X11559800Y-9396800D01*
X11559800Y-9295200D02*
X11458200Y-9396800D01*
X11544921Y-9381921D02*
X11544921Y-9310079D01*
X11473079Y-9310079D01*
X11473079Y-9381921D01*
X11544921Y-9381921D01*
X11712200Y-9295200D02*
X11813800Y-9396800D01*
X11813800Y-9295200D02*
X11712200Y-9396800D01*
X11798921Y-9381921D02*
X11798921Y-9310079D01*
X11727079Y-9310079D01*
X11727079Y-9381921D01*
X11798921Y-9381921D01*
X11839200Y-12343200D02*
X11940800Y-12444800D01*
X11940800Y-12343200D02*
X11839200Y-12444800D01*
X11925921Y-12429921D02*
X11925921Y-12358079D01*
X11854079Y-12358079D01*
X11854079Y-12429921D01*
X11925921Y-12429921D01*
X11966200Y-9295200D02*
X12067800Y-9396800D01*
X12067800Y-9295200D02*
X11966200Y-9396800D01*
X12052921Y-9381921D02*
X12052921Y-9310079D01*
X11981079Y-9310079D01*
X11981079Y-9381921D01*
X12052921Y-9381921D01*
X12093200Y-12343200D02*
X12194800Y-12444800D01*
X12194800Y-12343200D02*
X12093200Y-12444800D01*
X12179921Y-12429921D02*
X12179921Y-12358079D01*
X12108079Y-12358079D01*
X12108079Y-12429921D01*
X12179921Y-12429921D01*
X12220200Y-9295200D02*
X12321800Y-9396800D01*
X12321800Y-9295200D02*
X12220200Y-9396800D01*
X12306921Y-9381921D02*
X12306921Y-9310079D01*
X12235079Y-9310079D01*
X12235079Y-9381921D01*
X12306921Y-9381921D01*
X12347200Y-10438200D02*
X12448800Y-10539800D01*
X12448800Y-10438200D02*
X12347200Y-10539800D01*
X12433921Y-10524921D02*
X12433921Y-10453079D01*
X12362079Y-10453079D01*
X12362079Y-10524921D01*
X12433921Y-10524921D01*
X12347200Y-10692200D02*
X12448800Y-10793800D01*
X12448800Y-10692200D02*
X12347200Y-10793800D01*
X12433921Y-10778921D02*
X12433921Y-10707079D01*
X12362079Y-10707079D01*
X12362079Y-10778921D01*
X12433921Y-10778921D01*
X12347200Y-12343200D02*
X12448800Y-12444800D01*
X12448800Y-12343200D02*
X12347200Y-12444800D01*
X12433921Y-12429921D02*
X12433921Y-12358079D01*
X12362079Y-12358079D01*
X12362079Y-12429921D01*
X12433921Y-12429921D01*
X12474200Y-9295200D02*
X12575800Y-9396800D01*
X12575800Y-9295200D02*
X12474200Y-9396800D01*
X12560921Y-9381921D02*
X12560921Y-9310079D01*
X12489079Y-9310079D01*
X12489079Y-9381921D01*
X12560921Y-9381921D01*
X12601200Y-9549200D02*
X12702800Y-9650800D01*
X12702800Y-9549200D02*
X12601200Y-9650800D01*
X12687921Y-9635921D02*
X12687921Y-9564079D01*
X12616079Y-9564079D01*
X12616079Y-9635921D01*
X12687921Y-9635921D01*
X12601200Y-9803200D02*
X12702800Y-9904800D01*
X12702800Y-9803200D02*
X12601200Y-9904800D01*
X12687921Y-9889921D02*
X12687921Y-9818079D01*
X12616079Y-9818079D01*
X12616079Y-9889921D01*
X12687921Y-9889921D01*
X12601200Y-10057200D02*
X12702800Y-10158800D01*
X12702800Y-10057200D02*
X12601200Y-10158800D01*
X12687921Y-10143921D02*
X12687921Y-10072079D01*
X12616079Y-10072079D01*
X12616079Y-10143921D01*
X12687921Y-10143921D01*
X12601200Y-10311200D02*
X12702800Y-10412800D01*
X12702800Y-10311200D02*
X12601200Y-10412800D01*
X12687921Y-10397921D02*
X12687921Y-10326079D01*
X12616079Y-10326079D01*
X12616079Y-10397921D01*
X12687921Y-10397921D01*
X12601200Y-10565200D02*
X12702800Y-10666800D01*
X12702800Y-10565200D02*
X12601200Y-10666800D01*
X12687921Y-10651921D02*
X12687921Y-10580079D01*
X12616079Y-10580079D01*
X12616079Y-10651921D01*
X12687921Y-10651921D01*
X12601200Y-10819200D02*
X12702800Y-10920800D01*
X12702800Y-10819200D02*
X12601200Y-10920800D01*
X12687921Y-10905921D02*
X12687921Y-10834079D01*
X12616079Y-10834079D01*
X12616079Y-10905921D01*
X12687921Y-10905921D01*
X12601200Y-11073200D02*
X12702800Y-11174800D01*
X12702800Y-11073200D02*
X12601200Y-11174800D01*
X12687921Y-11159921D02*
X12687921Y-11088079D01*
X12616079Y-11088079D01*
X12616079Y-11159921D01*
X12687921Y-11159921D01*
X12601200Y-11327200D02*
X12702800Y-11428800D01*
X12702800Y-11327200D02*
X12601200Y-11428800D01*
X12687921Y-11413921D02*
X12687921Y-11342079D01*
X12616079Y-11342079D01*
X12616079Y-11413921D01*
X12687921Y-11413921D01*
X12601200Y-11581200D02*
X12702800Y-11682800D01*
X12702800Y-11581200D02*
X12601200Y-11682800D01*
X12687921Y-11667921D02*
X12687921Y-11596079D01*
X12616079Y-11596079D01*
X12616079Y-11667921D01*
X12687921Y-11667921D01*
X12601200Y-11835200D02*
X12702800Y-11936800D01*
X12702800Y-11835200D02*
X12601200Y-11936800D01*
X12687921Y-11921921D02*
X12687921Y-11850079D01*
X12616079Y-11850079D01*
X12616079Y-11921921D01*
X12687921Y-11921921D01*
X12601200Y-12089200D02*
X12702800Y-12190800D01*
X12702800Y-12089200D02*
X12601200Y-12190800D01*
X12687921Y-12175921D02*
X12687921Y-12104079D01*
X12616079Y-12104079D01*
X12616079Y-12175921D01*
X12687921Y-12175921D01*
X12601200Y-12343200D02*
X12702800Y-12444800D01*
X12702800Y-12343200D02*
X12601200Y-12444800D01*
X12687921Y-12429921D02*
X12687921Y-12358079D01*
X12616079Y-12358079D01*
X12616079Y-12429921D01*
X12687921Y-12429921D01*
X9525000Y-8815000D02*
X9635000Y-8925000D01*
X9635000Y-8815000D02*
X9525000Y-8925000D01*
X9580000Y-8925000D02*
X9635000Y-8870000D01*
X9580000Y-8815000D01*
X9525000Y-8870000D01*
X9580000Y-8925000D01*
X9779000Y-8815000D02*
X9889000Y-8925000D01*
X9889000Y-8815000D02*
X9779000Y-8925000D01*
X9834000Y-8925000D02*
X9889000Y-8870000D01*
X9834000Y-8815000D01*
X9779000Y-8870000D01*
X9834000Y-8925000D01*
X10033000Y-8815000D02*
X10143000Y-8925000D01*
X10143000Y-8815000D02*
X10033000Y-8925000D01*
X10088000Y-8925000D02*
X10143000Y-8870000D01*
X10088000Y-8815000D01*
X10033000Y-8870000D01*
X10088000Y-8925000D01*
D12*
X9553928Y-13338214D02*
X9553928Y-13038214D01*
X9625357Y-13038214D01*
X9668214Y-13052500D01*
X9696786Y-13081071D01*
X9711071Y-13109643D01*
X9725357Y-13166786D01*
X9725357Y-13209643D01*
X9711071Y-13266786D01*
X9696786Y-13295357D01*
X9668214Y-13323929D01*
X9625357Y-13338214D01*
X9553928Y-13338214D01*
X9853928Y-13338214D02*
X9853928Y-13138214D01*
X9853928Y-13195357D02*
X9868214Y-13166786D01*
X9882500Y-13152500D01*
X9911071Y-13138214D01*
X9939643Y-13138214D01*
X10039643Y-13338214D02*
X10039643Y-13138214D01*
X10039643Y-13038214D02*
X10025357Y-13052500D01*
X10039643Y-13066786D01*
X10053928Y-13052500D01*
X10039643Y-13038214D01*
X10039643Y-13066786D01*
X10225357Y-13338214D02*
X10196786Y-13323929D01*
X10182500Y-13295357D01*
X10182500Y-13038214D01*
X10382500Y-13338214D02*
X10353928Y-13323929D01*
X10339643Y-13295357D01*
X10339643Y-13038214D01*
X10725357Y-13338214D02*
X10725357Y-13038214D01*
X10825357Y-13252500D01*
X10925357Y-13038214D01*
X10925357Y-13338214D01*
X11196786Y-13338214D02*
X11196786Y-13181071D01*
X11182500Y-13152500D01*
X11153928Y-13138214D01*
X11096786Y-13138214D01*
X11068214Y-13152500D01*
X11196786Y-13323929D02*
X11168214Y-13338214D01*
X11096786Y-13338214D01*
X11068214Y-13323929D01*
X11053928Y-13295357D01*
X11053928Y-13266786D01*
X11068214Y-13238214D01*
X11096786Y-13223929D01*
X11168214Y-13223929D01*
X11196786Y-13209643D01*
X11339643Y-13138214D02*
X11339643Y-13438214D01*
X11339643Y-13152500D02*
X11368214Y-13138214D01*
X11425357Y-13138214D01*
X11453928Y-13152500D01*
X11468214Y-13166786D01*
X11482500Y-13195357D01*
X11482500Y-13281071D01*
X11468214Y-13309643D01*
X11453928Y-13323929D01*
X11425357Y-13338214D01*
X11368214Y-13338214D01*
X11339643Y-13323929D01*
X11611071Y-13309643D02*
X11625357Y-13323929D01*
X11611071Y-13338214D01*
X11596786Y-13323929D01*
X11611071Y-13309643D01*
X11611071Y-13338214D01*
X11611071Y-13152500D02*
X11625357Y-13166786D01*
X11611071Y-13181071D01*
X11596786Y-13166786D01*
X11611071Y-13152500D01*
X11611071Y-13181071D01*
X9217500Y-13807500D02*
X9267500Y-13857500D01*
X9267500Y-13807500D02*
X9217500Y-13857500D01*
X9611071Y-13668214D02*
X9639643Y-13668214D01*
X9668214Y-13682500D01*
X9682500Y-13696786D01*
X9696786Y-13725357D01*
X9711071Y-13782500D01*
X9711071Y-13853929D01*
X9696786Y-13911071D01*
X9682500Y-13939643D01*
X9668214Y-13953929D01*
X9639643Y-13968214D01*
X9611071Y-13968214D01*
X9582500Y-13953929D01*
X9568214Y-13939643D01*
X9553928Y-13911071D01*
X9539643Y-13853929D01*
X9539643Y-13782500D01*
X9553928Y-13725357D01*
X9568214Y-13696786D01*
X9582500Y-13682500D01*
X9611071Y-13668214D01*
X9839643Y-13939643D02*
X9853928Y-13953929D01*
X9839643Y-13968214D01*
X9825357Y-13953929D01*
X9839643Y-13939643D01*
X9839643Y-13968214D01*
X10125357Y-13668214D02*
X9982500Y-13668214D01*
X9968214Y-13811071D01*
X9982500Y-13796786D01*
X10011071Y-13782500D01*
X10082500Y-13782500D01*
X10111071Y-13796786D01*
X10125357Y-13811071D01*
X10139643Y-13839643D01*
X10139643Y-13911071D01*
X10125357Y-13939643D01*
X10111071Y-13953929D01*
X10082500Y-13968214D01*
X10011071Y-13968214D01*
X9982500Y-13953929D01*
X9968214Y-13939643D01*
X10325357Y-13668214D02*
X10353928Y-13668214D01*
X10382500Y-13682500D01*
X10396786Y-13696786D01*
X10411071Y-13725357D01*
X10425357Y-13782500D01*
X10425357Y-13853929D01*
X10411071Y-13911071D01*
X10396786Y-13939643D01*
X10382500Y-13953929D01*
X10353928Y-13968214D01*
X10325357Y-13968214D01*
X10296786Y-13953929D01*
X10282500Y-13939643D01*
X10268214Y-13911071D01*
X10253928Y-13853929D01*
X10253928Y-13782500D01*
X10268214Y-13725357D01*
X10282500Y-13696786D01*
X10296786Y-13682500D01*
X10325357Y-13668214D01*
X10553928Y-13968214D02*
X10553928Y-13768214D01*
X10553928Y-13796786D02*
X10568214Y-13782500D01*
X10596786Y-13768214D01*
X10639643Y-13768214D01*
X10668214Y-13782500D01*
X10682500Y-13811071D01*
X10682500Y-13968214D01*
X10682500Y-13811071D02*
X10696786Y-13782500D01*
X10725357Y-13768214D01*
X10768214Y-13768214D01*
X10796786Y-13782500D01*
X10811071Y-13811071D01*
X10811071Y-13968214D01*
X10953928Y-13968214D02*
X10953928Y-13768214D01*
X10953928Y-13796786D02*
X10968214Y-13782500D01*
X10996786Y-13768214D01*
X11039643Y-13768214D01*
X11068214Y-13782500D01*
X11082500Y-13811071D01*
X11082500Y-13968214D01*
X11082500Y-13811071D02*
X11096786Y-13782500D01*
X11125357Y-13768214D01*
X11168214Y-13768214D01*
X11196786Y-13782500D01*
X11211071Y-13811071D01*
X11211071Y-13968214D01*
X11796786Y-13653929D02*
X11539643Y-14039643D01*
X12182500Y-13668214D02*
X12211071Y-13668214D01*
X12239643Y-13682500D01*
X12253928Y-13696786D01*
X12268214Y-13725357D01*
X12282500Y-13782500D01*
X12282500Y-13853929D01*
X12268214Y-13911071D01*
X12253928Y-13939643D01*
X12239643Y-13953929D01*
X12211071Y-13968214D01*
X12182500Y-13968214D01*
X12153928Y-13953929D01*
X12139643Y-13939643D01*
X12125357Y-13911071D01*
X12111071Y-13853929D01*
X12111071Y-13782500D01*
X12125357Y-13725357D01*
X12139643Y-13696786D01*
X12153928Y-13682500D01*
X12182500Y-13668214D01*
X12411071Y-13939643D02*
X12425357Y-13953929D01*
X12411071Y-13968214D01*
X12396786Y-13953929D01*
X12411071Y-13939643D01*
X12411071Y-13968214D01*
X12611071Y-13668214D02*
X12639643Y-13668214D01*
X12668214Y-13682500D01*
X12682500Y-13696786D01*
X12696786Y-13725357D01*
X12711071Y-13782500D01*
X12711071Y-13853929D01*
X12696786Y-13911071D01*
X12682500Y-13939643D01*
X12668214Y-13953929D01*
X12639643Y-13968214D01*
X12611071Y-13968214D01*
X12582500Y-13953929D01*
X12568214Y-13939643D01*
X12553928Y-13911071D01*
X12539643Y-13853929D01*
X12539643Y-13782500D01*
X12553928Y-13725357D01*
X12568214Y-13696786D01*
X12582500Y-13682500D01*
X12611071Y-13668214D01*
X12825357Y-13696786D02*
X12839643Y-13682500D01*
X12868214Y-13668214D01*
X12939643Y-13668214D01*
X12968214Y-13682500D01*
X12982500Y-13696786D01*
X12996786Y-13725357D01*
X12996786Y-13753929D01*
X12982500Y-13796786D01*
X12811071Y-13968214D01*
X12996786Y-13968214D01*
X13182500Y-13668214D02*
X13211071Y-13668214D01*
X13239643Y-13682500D01*
X13253928Y-13696786D01*
X13268214Y-13725357D01*
X13282500Y-13782500D01*
X13282500Y-13853929D01*
X13268214Y-13911071D01*
X13253928Y-13939643D01*
X13239643Y-13953929D01*
X13211071Y-13968214D01*
X13182500Y-13968214D01*
X13153928Y-13953929D01*
X13139643Y-13939643D01*
X13125357Y-13911071D01*
X13111071Y-13853929D01*
X13111071Y-13782500D01*
X13125357Y-13725357D01*
X13139643Y-13696786D01*
X13153928Y-13682500D01*
X13182500Y-13668214D01*
X13396786Y-13668214D02*
X13396786Y-13725357D01*
X13511071Y-13668214D02*
X13511071Y-13725357D01*
X13953928Y-14082500D02*
X13939643Y-14068214D01*
X13911071Y-14025357D01*
X13896786Y-13996786D01*
X13882500Y-13953929D01*
X13868214Y-13882500D01*
X13868214Y-13825357D01*
X13882500Y-13753929D01*
X13896786Y-13711071D01*
X13911071Y-13682500D01*
X13939643Y-13639643D01*
X13953928Y-13625357D01*
X14225357Y-13968214D02*
X14053928Y-13968214D01*
X14139643Y-13968214D02*
X14139643Y-13668214D01*
X14111071Y-13711071D01*
X14082500Y-13739643D01*
X14053928Y-13753929D01*
X14496786Y-13668214D02*
X14353928Y-13668214D01*
X14339643Y-13811071D01*
X14353928Y-13796786D01*
X14382500Y-13782500D01*
X14453928Y-13782500D01*
X14482500Y-13796786D01*
X14496786Y-13811071D01*
X14511071Y-13839643D01*
X14511071Y-13911071D01*
X14496786Y-13939643D01*
X14482500Y-13953929D01*
X14453928Y-13968214D01*
X14382500Y-13968214D01*
X14353928Y-13953929D01*
X14339643Y-13939643D01*
X14868214Y-13968214D02*
X14868214Y-13668214D01*
X14996786Y-13968214D02*
X14996786Y-13811071D01*
X14982500Y-13782500D01*
X14953928Y-13768214D01*
X14911071Y-13768214D01*
X14882500Y-13782500D01*
X14868214Y-13796786D01*
X15182500Y-13968214D02*
X15153928Y-13953929D01*
X15139643Y-13939643D01*
X15125357Y-13911071D01*
X15125357Y-13825357D01*
X15139643Y-13796786D01*
X15153928Y-13782500D01*
X15182500Y-13768214D01*
X15225357Y-13768214D01*
X15253928Y-13782500D01*
X15268214Y-13796786D01*
X15282500Y-13825357D01*
X15282500Y-13911071D01*
X15268214Y-13939643D01*
X15253928Y-13953929D01*
X15225357Y-13968214D01*
X15182500Y-13968214D01*
X15453928Y-13968214D02*
X15425357Y-13953929D01*
X15411071Y-13925357D01*
X15411071Y-13668214D01*
X15682500Y-13953929D02*
X15653928Y-13968214D01*
X15596786Y-13968214D01*
X15568214Y-13953929D01*
X15553928Y-13925357D01*
X15553928Y-13811071D01*
X15568214Y-13782500D01*
X15596786Y-13768214D01*
X15653928Y-13768214D01*
X15682500Y-13782500D01*
X15696786Y-13811071D01*
X15696786Y-13839643D01*
X15553928Y-13868214D01*
X15811071Y-13953929D02*
X15839643Y-13968214D01*
X15896786Y-13968214D01*
X15925357Y-13953929D01*
X15939643Y-13925357D01*
X15939643Y-13911071D01*
X15925357Y-13882500D01*
X15896786Y-13868214D01*
X15853928Y-13868214D01*
X15825357Y-13853929D01*
X15811071Y-13825357D01*
X15811071Y-13811071D01*
X15825357Y-13782500D01*
X15853928Y-13768214D01*
X15896786Y-13768214D01*
X15925357Y-13782500D01*
X16039643Y-14082500D02*
X16053928Y-14068214D01*
X16082500Y-14025357D01*
X16096786Y-13996786D01*
X16111071Y-13953929D01*
X16125357Y-13882500D01*
X16125357Y-13825357D01*
X16111071Y-13753929D01*
X16096786Y-13711071D01*
X16082500Y-13682500D01*
X16053928Y-13639643D01*
X16039643Y-13625357D01*
X9267500Y-14228500D02*
G75*
G03*
X9267500Y-14228500I-31750J0D01*
G01*
X9611071Y-14064214D02*
X9639643Y-14064214D01*
X9668214Y-14078500D01*
X9682500Y-14092786D01*
X9696786Y-14121357D01*
X9711071Y-14178500D01*
X9711071Y-14249929D01*
X9696786Y-14307071D01*
X9682500Y-14335643D01*
X9668214Y-14349929D01*
X9639643Y-14364214D01*
X9611071Y-14364214D01*
X9582500Y-14349929D01*
X9568214Y-14335643D01*
X9553928Y-14307071D01*
X9539643Y-14249929D01*
X9539643Y-14178500D01*
X9553928Y-14121357D01*
X9568214Y-14092786D01*
X9582500Y-14078500D01*
X9611071Y-14064214D01*
X9839643Y-14335643D02*
X9853928Y-14349929D01*
X9839643Y-14364214D01*
X9825357Y-14349929D01*
X9839643Y-14335643D01*
X9839643Y-14364214D01*
X10111071Y-14064214D02*
X10053928Y-14064214D01*
X10025357Y-14078500D01*
X10011071Y-14092786D01*
X9982500Y-14135643D01*
X9968214Y-14192786D01*
X9968214Y-14307071D01*
X9982500Y-14335643D01*
X9996786Y-14349929D01*
X10025357Y-14364214D01*
X10082500Y-14364214D01*
X10111071Y-14349929D01*
X10125357Y-14335643D01*
X10139643Y-14307071D01*
X10139643Y-14235643D01*
X10125357Y-14207071D01*
X10111071Y-14192786D01*
X10082500Y-14178500D01*
X10025357Y-14178500D01*
X9996786Y-14192786D01*
X9982500Y-14207071D01*
X9968214Y-14235643D01*
X10396786Y-14164214D02*
X10396786Y-14364214D01*
X10325357Y-14049929D02*
X10253928Y-14264214D01*
X10439643Y-14264214D01*
X10553928Y-14364214D02*
X10553928Y-14164214D01*
X10553928Y-14192786D02*
X10568214Y-14178500D01*
X10596786Y-14164214D01*
X10639643Y-14164214D01*
X10668214Y-14178500D01*
X10682500Y-14207071D01*
X10682500Y-14364214D01*
X10682500Y-14207071D02*
X10696786Y-14178500D01*
X10725357Y-14164214D01*
X10768214Y-14164214D01*
X10796786Y-14178500D01*
X10811071Y-14207071D01*
X10811071Y-14364214D01*
X10953928Y-14364214D02*
X10953928Y-14164214D01*
X10953928Y-14192786D02*
X10968214Y-14178500D01*
X10996786Y-14164214D01*
X11039643Y-14164214D01*
X11068214Y-14178500D01*
X11082500Y-14207071D01*
X11082500Y-14364214D01*
X11082500Y-14207071D02*
X11096786Y-14178500D01*
X11125357Y-14164214D01*
X11168214Y-14164214D01*
X11196786Y-14178500D01*
X11211071Y-14207071D01*
X11211071Y-14364214D01*
X11796786Y-14049929D02*
X11539643Y-14435643D01*
X12182500Y-14064214D02*
X12211071Y-14064214D01*
X12239643Y-14078500D01*
X12253928Y-14092786D01*
X12268214Y-14121357D01*
X12282500Y-14178500D01*
X12282500Y-14249929D01*
X12268214Y-14307071D01*
X12253928Y-14335643D01*
X12239643Y-14349929D01*
X12211071Y-14364214D01*
X12182500Y-14364214D01*
X12153928Y-14349929D01*
X12139643Y-14335643D01*
X12125357Y-14307071D01*
X12111071Y-14249929D01*
X12111071Y-14178500D01*
X12125357Y-14121357D01*
X12139643Y-14092786D01*
X12153928Y-14078500D01*
X12182500Y-14064214D01*
X12411071Y-14335643D02*
X12425357Y-14349929D01*
X12411071Y-14364214D01*
X12396786Y-14349929D01*
X12411071Y-14335643D01*
X12411071Y-14364214D01*
X12611071Y-14064214D02*
X12639643Y-14064214D01*
X12668214Y-14078500D01*
X12682500Y-14092786D01*
X12696786Y-14121357D01*
X12711071Y-14178500D01*
X12711071Y-14249929D01*
X12696786Y-14307071D01*
X12682500Y-14335643D01*
X12668214Y-14349929D01*
X12639643Y-14364214D01*
X12611071Y-14364214D01*
X12582500Y-14349929D01*
X12568214Y-14335643D01*
X12553928Y-14307071D01*
X12539643Y-14249929D01*
X12539643Y-14178500D01*
X12553928Y-14121357D01*
X12568214Y-14092786D01*
X12582500Y-14078500D01*
X12611071Y-14064214D01*
X12825357Y-14092786D02*
X12839643Y-14078500D01*
X12868214Y-14064214D01*
X12939643Y-14064214D01*
X12968214Y-14078500D01*
X12982500Y-14092786D01*
X12996786Y-14121357D01*
X12996786Y-14149929D01*
X12982500Y-14192786D01*
X12811071Y-14364214D01*
X12996786Y-14364214D01*
X13268214Y-14064214D02*
X13125357Y-14064214D01*
X13111071Y-14207071D01*
X13125357Y-14192786D01*
X13153928Y-14178500D01*
X13225357Y-14178500D01*
X13253928Y-14192786D01*
X13268214Y-14207071D01*
X13282500Y-14235643D01*
X13282500Y-14307071D01*
X13268214Y-14335643D01*
X13253928Y-14349929D01*
X13225357Y-14364214D01*
X13153928Y-14364214D01*
X13125357Y-14349929D01*
X13111071Y-14335643D01*
X13396786Y-14064214D02*
X13396786Y-14121357D01*
X13511071Y-14064214D02*
X13511071Y-14121357D01*
X13953928Y-14478500D02*
X13939643Y-14464214D01*
X13911071Y-14421357D01*
X13896786Y-14392786D01*
X13882500Y-14349929D01*
X13868214Y-14278500D01*
X13868214Y-14221357D01*
X13882500Y-14149929D01*
X13896786Y-14107071D01*
X13911071Y-14078500D01*
X13939643Y-14035643D01*
X13953928Y-14021357D01*
X14053928Y-14092786D02*
X14068214Y-14078500D01*
X14096786Y-14064214D01*
X14168214Y-14064214D01*
X14196786Y-14078500D01*
X14211071Y-14092786D01*
X14225357Y-14121357D01*
X14225357Y-14149929D01*
X14211071Y-14192786D01*
X14039643Y-14364214D01*
X14225357Y-14364214D01*
X14368214Y-14364214D02*
X14425357Y-14364214D01*
X14453928Y-14349929D01*
X14468214Y-14335643D01*
X14496786Y-14292786D01*
X14511071Y-14235643D01*
X14511071Y-14121357D01*
X14496786Y-14092786D01*
X14482500Y-14078500D01*
X14453928Y-14064214D01*
X14396786Y-14064214D01*
X14368214Y-14078500D01*
X14353928Y-14092786D01*
X14339643Y-14121357D01*
X14339643Y-14192786D01*
X14353928Y-14221357D01*
X14368214Y-14235643D01*
X14396786Y-14249929D01*
X14453928Y-14249929D01*
X14482500Y-14235643D01*
X14496786Y-14221357D01*
X14511071Y-14192786D01*
X14868214Y-14364214D02*
X14868214Y-14064214D01*
X14996786Y-14364214D02*
X14996786Y-14207071D01*
X14982500Y-14178500D01*
X14953928Y-14164214D01*
X14911071Y-14164214D01*
X14882500Y-14178500D01*
X14868214Y-14192786D01*
X15182500Y-14364214D02*
X15153928Y-14349929D01*
X15139643Y-14335643D01*
X15125357Y-14307071D01*
X15125357Y-14221357D01*
X15139643Y-14192786D01*
X15153928Y-14178500D01*
X15182500Y-14164214D01*
X15225357Y-14164214D01*
X15253928Y-14178500D01*
X15268214Y-14192786D01*
X15282500Y-14221357D01*
X15282500Y-14307071D01*
X15268214Y-14335643D01*
X15253928Y-14349929D01*
X15225357Y-14364214D01*
X15182500Y-14364214D01*
X15453928Y-14364214D02*
X15425357Y-14349929D01*
X15411071Y-14321357D01*
X15411071Y-14064214D01*
X15682500Y-14349929D02*
X15653928Y-14364214D01*
X15596786Y-14364214D01*
X15568214Y-14349929D01*
X15553928Y-14321357D01*
X15553928Y-14207071D01*
X15568214Y-14178500D01*
X15596786Y-14164214D01*
X15653928Y-14164214D01*
X15682500Y-14178500D01*
X15696786Y-14207071D01*
X15696786Y-14235643D01*
X15553928Y-14264214D01*
X15811071Y-14349929D02*
X15839643Y-14364214D01*
X15896786Y-14364214D01*
X15925357Y-14349929D01*
X15939643Y-14321357D01*
X15939643Y-14307071D01*
X15925357Y-14278500D01*
X15896786Y-14264214D01*
X15853928Y-14264214D01*
X15825357Y-14249929D01*
X15811071Y-14221357D01*
X15811071Y-14207071D01*
X15825357Y-14178500D01*
X15853928Y-14164214D01*
X15896786Y-14164214D01*
X15925357Y-14178500D01*
X16039643Y-14478500D02*
X16053928Y-14464214D01*
X16082500Y-14421357D01*
X16096786Y-14392786D01*
X16111071Y-14349929D01*
X16125357Y-14278500D01*
X16125357Y-14221357D01*
X16111071Y-14149929D01*
X16096786Y-14107071D01*
X16082500Y-14078500D01*
X16053928Y-14035643D01*
X16039643Y-14021357D01*
X9232500Y-14589500D02*
X9232500Y-14659500D01*
X9197500Y-14624500D02*
X9267500Y-14624500D01*
X9611071Y-14460214D02*
X9639643Y-14460214D01*
X9668214Y-14474500D01*
X9682500Y-14488786D01*
X9696786Y-14517357D01*
X9711071Y-14574500D01*
X9711071Y-14645929D01*
X9696786Y-14703071D01*
X9682500Y-14731643D01*
X9668214Y-14745929D01*
X9639643Y-14760214D01*
X9611071Y-14760214D01*
X9582500Y-14745929D01*
X9568214Y-14731643D01*
X9553928Y-14703071D01*
X9539643Y-14645929D01*
X9539643Y-14574500D01*
X9553928Y-14517357D01*
X9568214Y-14488786D01*
X9582500Y-14474500D01*
X9611071Y-14460214D01*
X9839643Y-14731643D02*
X9853928Y-14745929D01*
X9839643Y-14760214D01*
X9825357Y-14745929D01*
X9839643Y-14731643D01*
X9839643Y-14760214D01*
X9953928Y-14460214D02*
X10153928Y-14460214D01*
X10025357Y-14760214D01*
X10325357Y-14460214D02*
X10353928Y-14460214D01*
X10382500Y-14474500D01*
X10396786Y-14488786D01*
X10411071Y-14517357D01*
X10425357Y-14574500D01*
X10425357Y-14645929D01*
X10411071Y-14703071D01*
X10396786Y-14731643D01*
X10382500Y-14745929D01*
X10353928Y-14760214D01*
X10325357Y-14760214D01*
X10296786Y-14745929D01*
X10282500Y-14731643D01*
X10268214Y-14703071D01*
X10253928Y-14645929D01*
X10253928Y-14574500D01*
X10268214Y-14517357D01*
X10282500Y-14488786D01*
X10296786Y-14474500D01*
X10325357Y-14460214D01*
X10553928Y-14760214D02*
X10553928Y-14560214D01*
X10553928Y-14588786D02*
X10568214Y-14574500D01*
X10596786Y-14560214D01*
X10639643Y-14560214D01*
X10668214Y-14574500D01*
X10682500Y-14603071D01*
X10682500Y-14760214D01*
X10682500Y-14603071D02*
X10696786Y-14574500D01*
X10725357Y-14560214D01*
X10768214Y-14560214D01*
X10796786Y-14574500D01*
X10811071Y-14603071D01*
X10811071Y-14760214D01*
X10953928Y-14760214D02*
X10953928Y-14560214D01*
X10953928Y-14588786D02*
X10968214Y-14574500D01*
X10996786Y-14560214D01*
X11039643Y-14560214D01*
X11068214Y-14574500D01*
X11082500Y-14603071D01*
X11082500Y-14760214D01*
X11082500Y-14603071D02*
X11096786Y-14574500D01*
X11125357Y-14560214D01*
X11168214Y-14560214D01*
X11196786Y-14574500D01*
X11211071Y-14603071D01*
X11211071Y-14760214D01*
X11796786Y-14445929D02*
X11539643Y-14831643D01*
X12182500Y-14460214D02*
X12211071Y-14460214D01*
X12239643Y-14474500D01*
X12253928Y-14488786D01*
X12268214Y-14517357D01*
X12282500Y-14574500D01*
X12282500Y-14645929D01*
X12268214Y-14703071D01*
X12253928Y-14731643D01*
X12239643Y-14745929D01*
X12211071Y-14760214D01*
X12182500Y-14760214D01*
X12153928Y-14745929D01*
X12139643Y-14731643D01*
X12125357Y-14703071D01*
X12111071Y-14645929D01*
X12111071Y-14574500D01*
X12125357Y-14517357D01*
X12139643Y-14488786D01*
X12153928Y-14474500D01*
X12182500Y-14460214D01*
X12411071Y-14731643D02*
X12425357Y-14745929D01*
X12411071Y-14760214D01*
X12396786Y-14745929D01*
X12411071Y-14731643D01*
X12411071Y-14760214D01*
X12611071Y-14460214D02*
X12639643Y-14460214D01*
X12668214Y-14474500D01*
X12682500Y-14488786D01*
X12696786Y-14517357D01*
X12711071Y-14574500D01*
X12711071Y-14645929D01*
X12696786Y-14703071D01*
X12682500Y-14731643D01*
X12668214Y-14745929D01*
X12639643Y-14760214D01*
X12611071Y-14760214D01*
X12582500Y-14745929D01*
X12568214Y-14731643D01*
X12553928Y-14703071D01*
X12539643Y-14645929D01*
X12539643Y-14574500D01*
X12553928Y-14517357D01*
X12568214Y-14488786D01*
X12582500Y-14474500D01*
X12611071Y-14460214D01*
X12825357Y-14488786D02*
X12839643Y-14474500D01*
X12868214Y-14460214D01*
X12939643Y-14460214D01*
X12968214Y-14474500D01*
X12982500Y-14488786D01*
X12996786Y-14517357D01*
X12996786Y-14545929D01*
X12982500Y-14588786D01*
X12811071Y-14760214D01*
X12996786Y-14760214D01*
X13168214Y-14588786D02*
X13139643Y-14574500D01*
X13125357Y-14560214D01*
X13111071Y-14531643D01*
X13111071Y-14517357D01*
X13125357Y-14488786D01*
X13139643Y-14474500D01*
X13168214Y-14460214D01*
X13225357Y-14460214D01*
X13253928Y-14474500D01*
X13268214Y-14488786D01*
X13282500Y-14517357D01*
X13282500Y-14531643D01*
X13268214Y-14560214D01*
X13253928Y-14574500D01*
X13225357Y-14588786D01*
X13168214Y-14588786D01*
X13139643Y-14603071D01*
X13125357Y-14617357D01*
X13111071Y-14645929D01*
X13111071Y-14703071D01*
X13125357Y-14731643D01*
X13139643Y-14745929D01*
X13168214Y-14760214D01*
X13225357Y-14760214D01*
X13253928Y-14745929D01*
X13268214Y-14731643D01*
X13282500Y-14703071D01*
X13282500Y-14645929D01*
X13268214Y-14617357D01*
X13253928Y-14603071D01*
X13225357Y-14588786D01*
X13396786Y-14460214D02*
X13396786Y-14517357D01*
X13511071Y-14460214D02*
X13511071Y-14517357D01*
X13953928Y-14874500D02*
X13939643Y-14860214D01*
X13911071Y-14817357D01*
X13896786Y-14788786D01*
X13882500Y-14745929D01*
X13868214Y-14674500D01*
X13868214Y-14617357D01*
X13882500Y-14545929D01*
X13896786Y-14503071D01*
X13911071Y-14474500D01*
X13939643Y-14431643D01*
X13953928Y-14417357D01*
X14053928Y-14488786D02*
X14068214Y-14474500D01*
X14096786Y-14460214D01*
X14168214Y-14460214D01*
X14196786Y-14474500D01*
X14211071Y-14488786D01*
X14225357Y-14517357D01*
X14225357Y-14545929D01*
X14211071Y-14588786D01*
X14039643Y-14760214D01*
X14225357Y-14760214D01*
X14582500Y-14760214D02*
X14582500Y-14460214D01*
X14711071Y-14760214D02*
X14711071Y-14603071D01*
X14696786Y-14574500D01*
X14668214Y-14560214D01*
X14625357Y-14560214D01*
X14596786Y-14574500D01*
X14582500Y-14588786D01*
X14896786Y-14760214D02*
X14868214Y-14745929D01*
X14853928Y-14731643D01*
X14839643Y-14703071D01*
X14839643Y-14617357D01*
X14853928Y-14588786D01*
X14868214Y-14574500D01*
X14896786Y-14560214D01*
X14939643Y-14560214D01*
X14968214Y-14574500D01*
X14982500Y-14588786D01*
X14996786Y-14617357D01*
X14996786Y-14703071D01*
X14982500Y-14731643D01*
X14968214Y-14745929D01*
X14939643Y-14760214D01*
X14896786Y-14760214D01*
X15168214Y-14760214D02*
X15139643Y-14745929D01*
X15125357Y-14717357D01*
X15125357Y-14460214D01*
X15396786Y-14745929D02*
X15368214Y-14760214D01*
X15311071Y-14760214D01*
X15282500Y-14745929D01*
X15268214Y-14717357D01*
X15268214Y-14603071D01*
X15282500Y-14574500D01*
X15311071Y-14560214D01*
X15368214Y-14560214D01*
X15396786Y-14574500D01*
X15411071Y-14603071D01*
X15411071Y-14631643D01*
X15268214Y-14660214D01*
X15525357Y-14745929D02*
X15553928Y-14760214D01*
X15611071Y-14760214D01*
X15639643Y-14745929D01*
X15653928Y-14717357D01*
X15653928Y-14703071D01*
X15639643Y-14674500D01*
X15611071Y-14660214D01*
X15568214Y-14660214D01*
X15539643Y-14645929D01*
X15525357Y-14617357D01*
X15525357Y-14603071D01*
X15539643Y-14574500D01*
X15568214Y-14560214D01*
X15611071Y-14560214D01*
X15639643Y-14574500D01*
X15753928Y-14874500D02*
X15768214Y-14860214D01*
X15796786Y-14817357D01*
X15811071Y-14788786D01*
X15825357Y-14745929D01*
X15839643Y-14674500D01*
X15839643Y-14617357D01*
X15825357Y-14545929D01*
X15811071Y-14503071D01*
X15796786Y-14474500D01*
X15768214Y-14431643D01*
X15753928Y-14417357D01*
X9256370Y-15047370D02*
X9256370Y-14993630D01*
X9202630Y-14993630D01*
X9202630Y-15047370D01*
X9256370Y-15047370D01*
X9611071Y-14856214D02*
X9639643Y-14856214D01*
X9668214Y-14870500D01*
X9682500Y-14884786D01*
X9696786Y-14913357D01*
X9711071Y-14970500D01*
X9711071Y-15041929D01*
X9696786Y-15099071D01*
X9682500Y-15127643D01*
X9668214Y-15141929D01*
X9639643Y-15156214D01*
X9611071Y-15156214D01*
X9582500Y-15141929D01*
X9568214Y-15127643D01*
X9553928Y-15099071D01*
X9539643Y-15041929D01*
X9539643Y-14970500D01*
X9553928Y-14913357D01*
X9568214Y-14884786D01*
X9582500Y-14870500D01*
X9611071Y-14856214D01*
X9839643Y-15127643D02*
X9853928Y-15141929D01*
X9839643Y-15156214D01*
X9825357Y-15141929D01*
X9839643Y-15127643D01*
X9839643Y-15156214D01*
X9953928Y-14856214D02*
X10153928Y-14856214D01*
X10025357Y-15156214D01*
X10396786Y-14856214D02*
X10339643Y-14856214D01*
X10311071Y-14870500D01*
X10296786Y-14884786D01*
X10268214Y-14927643D01*
X10253928Y-14984786D01*
X10253928Y-15099071D01*
X10268214Y-15127643D01*
X10282500Y-15141929D01*
X10311071Y-15156214D01*
X10368214Y-15156214D01*
X10396786Y-15141929D01*
X10411071Y-15127643D01*
X10425357Y-15099071D01*
X10425357Y-15027643D01*
X10411071Y-14999071D01*
X10396786Y-14984786D01*
X10368214Y-14970500D01*
X10311071Y-14970500D01*
X10282500Y-14984786D01*
X10268214Y-14999071D01*
X10253928Y-15027643D01*
X10553928Y-15156214D02*
X10553928Y-14956214D01*
X10553928Y-14984786D02*
X10568214Y-14970500D01*
X10596786Y-14956214D01*
X10639643Y-14956214D01*
X10668214Y-14970500D01*
X10682500Y-14999071D01*
X10682500Y-15156214D01*
X10682500Y-14999071D02*
X10696786Y-14970500D01*
X10725357Y-14956214D01*
X10768214Y-14956214D01*
X10796786Y-14970500D01*
X10811071Y-14999071D01*
X10811071Y-15156214D01*
X10953928Y-15156214D02*
X10953928Y-14956214D01*
X10953928Y-14984786D02*
X10968214Y-14970500D01*
X10996786Y-14956214D01*
X11039643Y-14956214D01*
X11068214Y-14970500D01*
X11082500Y-14999071D01*
X11082500Y-15156214D01*
X11082500Y-14999071D02*
X11096786Y-14970500D01*
X11125357Y-14956214D01*
X11168214Y-14956214D01*
X11196786Y-14970500D01*
X11211071Y-14999071D01*
X11211071Y-15156214D01*
X11796786Y-14841929D02*
X11539643Y-15227643D01*
X12182500Y-14856214D02*
X12211071Y-14856214D01*
X12239643Y-14870500D01*
X12253928Y-14884786D01*
X12268214Y-14913357D01*
X12282500Y-14970500D01*
X12282500Y-15041929D01*
X12268214Y-15099071D01*
X12253928Y-15127643D01*
X12239643Y-15141929D01*
X12211071Y-15156214D01*
X12182500Y-15156214D01*
X12153928Y-15141929D01*
X12139643Y-15127643D01*
X12125357Y-15099071D01*
X12111071Y-15041929D01*
X12111071Y-14970500D01*
X12125357Y-14913357D01*
X12139643Y-14884786D01*
X12153928Y-14870500D01*
X12182500Y-14856214D01*
X12411071Y-15127643D02*
X12425357Y-15141929D01*
X12411071Y-15156214D01*
X12396786Y-15141929D01*
X12411071Y-15127643D01*
X12411071Y-15156214D01*
X12611071Y-14856214D02*
X12639643Y-14856214D01*
X12668214Y-14870500D01*
X12682500Y-14884786D01*
X12696786Y-14913357D01*
X12711071Y-14970500D01*
X12711071Y-15041929D01*
X12696786Y-15099071D01*
X12682500Y-15127643D01*
X12668214Y-15141929D01*
X12639643Y-15156214D01*
X12611071Y-15156214D01*
X12582500Y-15141929D01*
X12568214Y-15127643D01*
X12553928Y-15099071D01*
X12539643Y-15041929D01*
X12539643Y-14970500D01*
X12553928Y-14913357D01*
X12568214Y-14884786D01*
X12582500Y-14870500D01*
X12611071Y-14856214D01*
X12811071Y-14856214D02*
X12996786Y-14856214D01*
X12896786Y-14970500D01*
X12939643Y-14970500D01*
X12968214Y-14984786D01*
X12982500Y-14999071D01*
X12996786Y-15027643D01*
X12996786Y-15099071D01*
X12982500Y-15127643D01*
X12968214Y-15141929D01*
X12939643Y-15156214D01*
X12853928Y-15156214D01*
X12825357Y-15141929D01*
X12811071Y-15127643D01*
X13182500Y-14856214D02*
X13211071Y-14856214D01*
X13239643Y-14870500D01*
X13253928Y-14884786D01*
X13268214Y-14913357D01*
X13282500Y-14970500D01*
X13282500Y-15041929D01*
X13268214Y-15099071D01*
X13253928Y-15127643D01*
X13239643Y-15141929D01*
X13211071Y-15156214D01*
X13182500Y-15156214D01*
X13153928Y-15141929D01*
X13139643Y-15127643D01*
X13125357Y-15099071D01*
X13111071Y-15041929D01*
X13111071Y-14970500D01*
X13125357Y-14913357D01*
X13139643Y-14884786D01*
X13153928Y-14870500D01*
X13182500Y-14856214D01*
X13396786Y-14856214D02*
X13396786Y-14913357D01*
X13511071Y-14856214D02*
X13511071Y-14913357D01*
X13953928Y-15270500D02*
X13939643Y-15256214D01*
X13911071Y-15213357D01*
X13896786Y-15184786D01*
X13882500Y-15141929D01*
X13868214Y-15070500D01*
X13868214Y-15013357D01*
X13882500Y-14941929D01*
X13896786Y-14899071D01*
X13911071Y-14870500D01*
X13939643Y-14827643D01*
X13953928Y-14813357D01*
X14111071Y-14984786D02*
X14082500Y-14970500D01*
X14068214Y-14956214D01*
X14053928Y-14927643D01*
X14053928Y-14913357D01*
X14068214Y-14884786D01*
X14082500Y-14870500D01*
X14111071Y-14856214D01*
X14168214Y-14856214D01*
X14196786Y-14870500D01*
X14211071Y-14884786D01*
X14225357Y-14913357D01*
X14225357Y-14927643D01*
X14211071Y-14956214D01*
X14196786Y-14970500D01*
X14168214Y-14984786D01*
X14111071Y-14984786D01*
X14082500Y-14999071D01*
X14068214Y-15013357D01*
X14053928Y-15041929D01*
X14053928Y-15099071D01*
X14068214Y-15127643D01*
X14082500Y-15141929D01*
X14111071Y-15156214D01*
X14168214Y-15156214D01*
X14196786Y-15141929D01*
X14211071Y-15127643D01*
X14225357Y-15099071D01*
X14225357Y-15041929D01*
X14211071Y-15013357D01*
X14196786Y-14999071D01*
X14168214Y-14984786D01*
X14582500Y-15156214D02*
X14582500Y-14856214D01*
X14711071Y-15156214D02*
X14711071Y-14999071D01*
X14696786Y-14970500D01*
X14668214Y-14956214D01*
X14625357Y-14956214D01*
X14596786Y-14970500D01*
X14582500Y-14984786D01*
X14896786Y-15156214D02*
X14868214Y-15141929D01*
X14853928Y-15127643D01*
X14839643Y-15099071D01*
X14839643Y-15013357D01*
X14853928Y-14984786D01*
X14868214Y-14970500D01*
X14896786Y-14956214D01*
X14939643Y-14956214D01*
X14968214Y-14970500D01*
X14982500Y-14984786D01*
X14996786Y-15013357D01*
X14996786Y-15099071D01*
X14982500Y-15127643D01*
X14968214Y-15141929D01*
X14939643Y-15156214D01*
X14896786Y-15156214D01*
X15168214Y-15156214D02*
X15139643Y-15141929D01*
X15125357Y-15113357D01*
X15125357Y-14856214D01*
X15396786Y-15141929D02*
X15368214Y-15156214D01*
X15311071Y-15156214D01*
X15282500Y-15141929D01*
X15268214Y-15113357D01*
X15268214Y-14999071D01*
X15282500Y-14970500D01*
X15311071Y-14956214D01*
X15368214Y-14956214D01*
X15396786Y-14970500D01*
X15411071Y-14999071D01*
X15411071Y-15027643D01*
X15268214Y-15056214D01*
X15525357Y-15141929D02*
X15553928Y-15156214D01*
X15611071Y-15156214D01*
X15639643Y-15141929D01*
X15653928Y-15113357D01*
X15653928Y-15099071D01*
X15639643Y-15070500D01*
X15611071Y-15056214D01*
X15568214Y-15056214D01*
X15539643Y-15041929D01*
X15525357Y-15013357D01*
X15525357Y-14999071D01*
X15539643Y-14970500D01*
X15568214Y-14956214D01*
X15611071Y-14956214D01*
X15639643Y-14970500D01*
X15753928Y-15270500D02*
X15768214Y-15256214D01*
X15796786Y-15213357D01*
X15811071Y-15184786D01*
X15825357Y-15141929D01*
X15839643Y-15070500D01*
X15839643Y-15013357D01*
X15825357Y-14941929D01*
X15811071Y-14899071D01*
X15796786Y-14870500D01*
X15768214Y-14827643D01*
X15753928Y-14813357D01*
X9223050Y-15460950D02*
X9267500Y-15416500D01*
X9223050Y-15372050D01*
X9178600Y-15416500D01*
X9223050Y-15460950D01*
X9611071Y-15252214D02*
X9639643Y-15252214D01*
X9668214Y-15266500D01*
X9682500Y-15280786D01*
X9696786Y-15309357D01*
X9711071Y-15366500D01*
X9711071Y-15437929D01*
X9696786Y-15495071D01*
X9682500Y-15523643D01*
X9668214Y-15537929D01*
X9639643Y-15552214D01*
X9611071Y-15552214D01*
X9582500Y-15537929D01*
X9568214Y-15523643D01*
X9553928Y-15495071D01*
X9539643Y-15437929D01*
X9539643Y-15366500D01*
X9553928Y-15309357D01*
X9568214Y-15280786D01*
X9582500Y-15266500D01*
X9611071Y-15252214D01*
X9839643Y-15523643D02*
X9853928Y-15537929D01*
X9839643Y-15552214D01*
X9825357Y-15537929D01*
X9839643Y-15523643D01*
X9839643Y-15552214D01*
X10025357Y-15380786D02*
X9996786Y-15366500D01*
X9982500Y-15352214D01*
X9968214Y-15323643D01*
X9968214Y-15309357D01*
X9982500Y-15280786D01*
X9996786Y-15266500D01*
X10025357Y-15252214D01*
X10082500Y-15252214D01*
X10111071Y-15266500D01*
X10125357Y-15280786D01*
X10139643Y-15309357D01*
X10139643Y-15323643D01*
X10125357Y-15352214D01*
X10111071Y-15366500D01*
X10082500Y-15380786D01*
X10025357Y-15380786D01*
X9996786Y-15395071D01*
X9982500Y-15409357D01*
X9968214Y-15437929D01*
X9968214Y-15495071D01*
X9982500Y-15523643D01*
X9996786Y-15537929D01*
X10025357Y-15552214D01*
X10082500Y-15552214D01*
X10111071Y-15537929D01*
X10125357Y-15523643D01*
X10139643Y-15495071D01*
X10139643Y-15437929D01*
X10125357Y-15409357D01*
X10111071Y-15395071D01*
X10082500Y-15380786D01*
X10282500Y-15552214D02*
X10339643Y-15552214D01*
X10368214Y-15537929D01*
X10382500Y-15523643D01*
X10411071Y-15480786D01*
X10425357Y-15423643D01*
X10425357Y-15309357D01*
X10411071Y-15280786D01*
X10396786Y-15266500D01*
X10368214Y-15252214D01*
X10311071Y-15252214D01*
X10282500Y-15266500D01*
X10268214Y-15280786D01*
X10253928Y-15309357D01*
X10253928Y-15380786D01*
X10268214Y-15409357D01*
X10282500Y-15423643D01*
X10311071Y-15437929D01*
X10368214Y-15437929D01*
X10396786Y-15423643D01*
X10411071Y-15409357D01*
X10425357Y-15380786D01*
X10553928Y-15552214D02*
X10553928Y-15352214D01*
X10553928Y-15380786D02*
X10568214Y-15366500D01*
X10596786Y-15352214D01*
X10639643Y-15352214D01*
X10668214Y-15366500D01*
X10682500Y-15395071D01*
X10682500Y-15552214D01*
X10682500Y-15395071D02*
X10696786Y-15366500D01*
X10725357Y-15352214D01*
X10768214Y-15352214D01*
X10796786Y-15366500D01*
X10811071Y-15395071D01*
X10811071Y-15552214D01*
X10953928Y-15552214D02*
X10953928Y-15352214D01*
X10953928Y-15380786D02*
X10968214Y-15366500D01*
X10996786Y-15352214D01*
X11039643Y-15352214D01*
X11068214Y-15366500D01*
X11082500Y-15395071D01*
X11082500Y-15552214D01*
X11082500Y-15395071D02*
X11096786Y-15366500D01*
X11125357Y-15352214D01*
X11168214Y-15352214D01*
X11196786Y-15366500D01*
X11211071Y-15395071D01*
X11211071Y-15552214D01*
X11796786Y-15237929D02*
X11539643Y-15623643D01*
X12182500Y-15252214D02*
X12211071Y-15252214D01*
X12239643Y-15266500D01*
X12253928Y-15280786D01*
X12268214Y-15309357D01*
X12282500Y-15366500D01*
X12282500Y-15437929D01*
X12268214Y-15495071D01*
X12253928Y-15523643D01*
X12239643Y-15537929D01*
X12211071Y-15552214D01*
X12182500Y-15552214D01*
X12153928Y-15537929D01*
X12139643Y-15523643D01*
X12125357Y-15495071D01*
X12111071Y-15437929D01*
X12111071Y-15366500D01*
X12125357Y-15309357D01*
X12139643Y-15280786D01*
X12153928Y-15266500D01*
X12182500Y-15252214D01*
X12411071Y-15523643D02*
X12425357Y-15537929D01*
X12411071Y-15552214D01*
X12396786Y-15537929D01*
X12411071Y-15523643D01*
X12411071Y-15552214D01*
X12611071Y-15252214D02*
X12639643Y-15252214D01*
X12668214Y-15266500D01*
X12682500Y-15280786D01*
X12696786Y-15309357D01*
X12711071Y-15366500D01*
X12711071Y-15437929D01*
X12696786Y-15495071D01*
X12682500Y-15523643D01*
X12668214Y-15537929D01*
X12639643Y-15552214D01*
X12611071Y-15552214D01*
X12582500Y-15537929D01*
X12568214Y-15523643D01*
X12553928Y-15495071D01*
X12539643Y-15437929D01*
X12539643Y-15366500D01*
X12553928Y-15309357D01*
X12568214Y-15280786D01*
X12582500Y-15266500D01*
X12611071Y-15252214D01*
X12811071Y-15252214D02*
X12996786Y-15252214D01*
X12896786Y-15366500D01*
X12939643Y-15366500D01*
X12968214Y-15380786D01*
X12982500Y-15395071D01*
X12996786Y-15423643D01*
X12996786Y-15495071D01*
X12982500Y-15523643D01*
X12968214Y-15537929D01*
X12939643Y-15552214D01*
X12853928Y-15552214D01*
X12825357Y-15537929D01*
X12811071Y-15523643D01*
X13268214Y-15252214D02*
X13125357Y-15252214D01*
X13111071Y-15395071D01*
X13125357Y-15380786D01*
X13153928Y-15366500D01*
X13225357Y-15366500D01*
X13253928Y-15380786D01*
X13268214Y-15395071D01*
X13282500Y-15423643D01*
X13282500Y-15495071D01*
X13268214Y-15523643D01*
X13253928Y-15537929D01*
X13225357Y-15552214D01*
X13153928Y-15552214D01*
X13125357Y-15537929D01*
X13111071Y-15523643D01*
X13396786Y-15252214D02*
X13396786Y-15309357D01*
X13511071Y-15252214D02*
X13511071Y-15309357D01*
X13953928Y-15666500D02*
X13939643Y-15652214D01*
X13911071Y-15609357D01*
X13896786Y-15580786D01*
X13882500Y-15537929D01*
X13868214Y-15466500D01*
X13868214Y-15409357D01*
X13882500Y-15337929D01*
X13896786Y-15295071D01*
X13911071Y-15266500D01*
X13939643Y-15223643D01*
X13953928Y-15209357D01*
X14225357Y-15552214D02*
X14053928Y-15552214D01*
X14139643Y-15552214D02*
X14139643Y-15252214D01*
X14111071Y-15295071D01*
X14082500Y-15323643D01*
X14053928Y-15337929D01*
X14325357Y-15252214D02*
X14511071Y-15252214D01*
X14411071Y-15366500D01*
X14453928Y-15366500D01*
X14482500Y-15380786D01*
X14496786Y-15395071D01*
X14511071Y-15423643D01*
X14511071Y-15495071D01*
X14496786Y-15523643D01*
X14482500Y-15537929D01*
X14453928Y-15552214D01*
X14368214Y-15552214D01*
X14339643Y-15537929D01*
X14325357Y-15523643D01*
X14868214Y-15552214D02*
X14868214Y-15252214D01*
X14996786Y-15552214D02*
X14996786Y-15395071D01*
X14982500Y-15366500D01*
X14953928Y-15352214D01*
X14911071Y-15352214D01*
X14882500Y-15366500D01*
X14868214Y-15380786D01*
X15182500Y-15552214D02*
X15153928Y-15537929D01*
X15139643Y-15523643D01*
X15125357Y-15495071D01*
X15125357Y-15409357D01*
X15139643Y-15380786D01*
X15153928Y-15366500D01*
X15182500Y-15352214D01*
X15225357Y-15352214D01*
X15253928Y-15366500D01*
X15268214Y-15380786D01*
X15282500Y-15409357D01*
X15282500Y-15495071D01*
X15268214Y-15523643D01*
X15253928Y-15537929D01*
X15225357Y-15552214D01*
X15182500Y-15552214D01*
X15453928Y-15552214D02*
X15425357Y-15537929D01*
X15411071Y-15509357D01*
X15411071Y-15252214D01*
X15682500Y-15537929D02*
X15653928Y-15552214D01*
X15596786Y-15552214D01*
X15568214Y-15537929D01*
X15553928Y-15509357D01*
X15553928Y-15395071D01*
X15568214Y-15366500D01*
X15596786Y-15352214D01*
X15653928Y-15352214D01*
X15682500Y-15366500D01*
X15696786Y-15395071D01*
X15696786Y-15423643D01*
X15553928Y-15452214D01*
X15811071Y-15537929D02*
X15839643Y-15552214D01*
X15896786Y-15552214D01*
X15925357Y-15537929D01*
X15939643Y-15509357D01*
X15939643Y-15495071D01*
X15925357Y-15466500D01*
X15896786Y-15452214D01*
X15853928Y-15452214D01*
X15825357Y-15437929D01*
X15811071Y-15409357D01*
X15811071Y-15395071D01*
X15825357Y-15366500D01*
X15853928Y-15352214D01*
X15896786Y-15352214D01*
X15925357Y-15366500D01*
X16039643Y-15666500D02*
X16053928Y-15652214D01*
X16082500Y-15609357D01*
X16096786Y-15580786D01*
X16111071Y-15537929D01*
X16125357Y-15466500D01*
X16125357Y-15409357D01*
X16111071Y-15337929D01*
X16096786Y-15295071D01*
X16082500Y-15266500D01*
X16053928Y-15223643D01*
X16039643Y-15209357D01*
X9167500Y-15762500D02*
X9267500Y-15862500D01*
X9267500Y-15762500D02*
X9167500Y-15862500D01*
X9267500Y-15812500D02*
G75*
G03*
X9267500Y-15812500I-50000J0D01*
G01*
X9711071Y-15948214D02*
X9539643Y-15948214D01*
X9625357Y-15948214D02*
X9625357Y-15648214D01*
X9596786Y-15691071D01*
X9568214Y-15719643D01*
X9539643Y-15733929D01*
X9839643Y-15919643D02*
X9853928Y-15933929D01*
X9839643Y-15948214D01*
X9825357Y-15933929D01*
X9839643Y-15919643D01*
X9839643Y-15948214D01*
X10039643Y-15648214D02*
X10068214Y-15648214D01*
X10096786Y-15662500D01*
X10111071Y-15676786D01*
X10125357Y-15705357D01*
X10139643Y-15762500D01*
X10139643Y-15833929D01*
X10125357Y-15891071D01*
X10111071Y-15919643D01*
X10096786Y-15933929D01*
X10068214Y-15948214D01*
X10039643Y-15948214D01*
X10011071Y-15933929D01*
X9996786Y-15919643D01*
X9982500Y-15891071D01*
X9968214Y-15833929D01*
X9968214Y-15762500D01*
X9982500Y-15705357D01*
X9996786Y-15676786D01*
X10011071Y-15662500D01*
X10039643Y-15648214D01*
X10325357Y-15648214D02*
X10353928Y-15648214D01*
X10382500Y-15662500D01*
X10396786Y-15676786D01*
X10411071Y-15705357D01*
X10425357Y-15762500D01*
X10425357Y-15833929D01*
X10411071Y-15891071D01*
X10396786Y-15919643D01*
X10382500Y-15933929D01*
X10353928Y-15948214D01*
X10325357Y-15948214D01*
X10296786Y-15933929D01*
X10282500Y-15919643D01*
X10268214Y-15891071D01*
X10253928Y-15833929D01*
X10253928Y-15762500D01*
X10268214Y-15705357D01*
X10282500Y-15676786D01*
X10296786Y-15662500D01*
X10325357Y-15648214D01*
X10553928Y-15948214D02*
X10553928Y-15748214D01*
X10553928Y-15776786D02*
X10568214Y-15762500D01*
X10596786Y-15748214D01*
X10639643Y-15748214D01*
X10668214Y-15762500D01*
X10682500Y-15791071D01*
X10682500Y-15948214D01*
X10682500Y-15791071D02*
X10696786Y-15762500D01*
X10725357Y-15748214D01*
X10768214Y-15748214D01*
X10796786Y-15762500D01*
X10811071Y-15791071D01*
X10811071Y-15948214D01*
X10953928Y-15948214D02*
X10953928Y-15748214D01*
X10953928Y-15776786D02*
X10968214Y-15762500D01*
X10996786Y-15748214D01*
X11039643Y-15748214D01*
X11068214Y-15762500D01*
X11082500Y-15791071D01*
X11082500Y-15948214D01*
X11082500Y-15791071D02*
X11096786Y-15762500D01*
X11125357Y-15748214D01*
X11168214Y-15748214D01*
X11196786Y-15762500D01*
X11211071Y-15791071D01*
X11211071Y-15948214D01*
X11796786Y-15633929D02*
X11539643Y-16019643D01*
X12182500Y-15648214D02*
X12211071Y-15648214D01*
X12239643Y-15662500D01*
X12253928Y-15676786D01*
X12268214Y-15705357D01*
X12282500Y-15762500D01*
X12282500Y-15833929D01*
X12268214Y-15891071D01*
X12253928Y-15919643D01*
X12239643Y-15933929D01*
X12211071Y-15948214D01*
X12182500Y-15948214D01*
X12153928Y-15933929D01*
X12139643Y-15919643D01*
X12125357Y-15891071D01*
X12111071Y-15833929D01*
X12111071Y-15762500D01*
X12125357Y-15705357D01*
X12139643Y-15676786D01*
X12153928Y-15662500D01*
X12182500Y-15648214D01*
X12411071Y-15919643D02*
X12425357Y-15933929D01*
X12411071Y-15948214D01*
X12396786Y-15933929D01*
X12411071Y-15919643D01*
X12411071Y-15948214D01*
X12611071Y-15648214D02*
X12639643Y-15648214D01*
X12668214Y-15662500D01*
X12682500Y-15676786D01*
X12696786Y-15705357D01*
X12711071Y-15762500D01*
X12711071Y-15833929D01*
X12696786Y-15891071D01*
X12682500Y-15919643D01*
X12668214Y-15933929D01*
X12639643Y-15948214D01*
X12611071Y-15948214D01*
X12582500Y-15933929D01*
X12568214Y-15919643D01*
X12553928Y-15891071D01*
X12539643Y-15833929D01*
X12539643Y-15762500D01*
X12553928Y-15705357D01*
X12568214Y-15676786D01*
X12582500Y-15662500D01*
X12611071Y-15648214D01*
X12811071Y-15648214D02*
X12996786Y-15648214D01*
X12896786Y-15762500D01*
X12939643Y-15762500D01*
X12968214Y-15776786D01*
X12982500Y-15791071D01*
X12996786Y-15819643D01*
X12996786Y-15891071D01*
X12982500Y-15919643D01*
X12968214Y-15933929D01*
X12939643Y-15948214D01*
X12853928Y-15948214D01*
X12825357Y-15933929D01*
X12811071Y-15919643D01*
X13139643Y-15948214D02*
X13196786Y-15948214D01*
X13225357Y-15933929D01*
X13239643Y-15919643D01*
X13268214Y-15876786D01*
X13282500Y-15819643D01*
X13282500Y-15705357D01*
X13268214Y-15676786D01*
X13253928Y-15662500D01*
X13225357Y-15648214D01*
X13168214Y-15648214D01*
X13139643Y-15662500D01*
X13125357Y-15676786D01*
X13111071Y-15705357D01*
X13111071Y-15776786D01*
X13125357Y-15805357D01*
X13139643Y-15819643D01*
X13168214Y-15833929D01*
X13225357Y-15833929D01*
X13253928Y-15819643D01*
X13268214Y-15805357D01*
X13282500Y-15776786D01*
X13396786Y-15648214D02*
X13396786Y-15705357D01*
X13511071Y-15648214D02*
X13511071Y-15705357D01*
X13953928Y-16062500D02*
X13939643Y-16048214D01*
X13911071Y-16005357D01*
X13896786Y-15976786D01*
X13882500Y-15933929D01*
X13868214Y-15862500D01*
X13868214Y-15805357D01*
X13882500Y-15733929D01*
X13896786Y-15691071D01*
X13911071Y-15662500D01*
X13939643Y-15619643D01*
X13953928Y-15605357D01*
X14111071Y-15776786D02*
X14082500Y-15762500D01*
X14068214Y-15748214D01*
X14053928Y-15719643D01*
X14053928Y-15705357D01*
X14068214Y-15676786D01*
X14082500Y-15662500D01*
X14111071Y-15648214D01*
X14168214Y-15648214D01*
X14196786Y-15662500D01*
X14211071Y-15676786D01*
X14225357Y-15705357D01*
X14225357Y-15719643D01*
X14211071Y-15748214D01*
X14196786Y-15762500D01*
X14168214Y-15776786D01*
X14111071Y-15776786D01*
X14082500Y-15791071D01*
X14068214Y-15805357D01*
X14053928Y-15833929D01*
X14053928Y-15891071D01*
X14068214Y-15919643D01*
X14082500Y-15933929D01*
X14111071Y-15948214D01*
X14168214Y-15948214D01*
X14196786Y-15933929D01*
X14211071Y-15919643D01*
X14225357Y-15891071D01*
X14225357Y-15833929D01*
X14211071Y-15805357D01*
X14196786Y-15791071D01*
X14168214Y-15776786D01*
X14582500Y-15948214D02*
X14582500Y-15648214D01*
X14711071Y-15948214D02*
X14711071Y-15791071D01*
X14696786Y-15762500D01*
X14668214Y-15748214D01*
X14625357Y-15748214D01*
X14596786Y-15762500D01*
X14582500Y-15776786D01*
X14896786Y-15948214D02*
X14868214Y-15933929D01*
X14853928Y-15919643D01*
X14839643Y-15891071D01*
X14839643Y-15805357D01*
X14853928Y-15776786D01*
X14868214Y-15762500D01*
X14896786Y-15748214D01*
X14939643Y-15748214D01*
X14968214Y-15762500D01*
X14982500Y-15776786D01*
X14996786Y-15805357D01*
X14996786Y-15891071D01*
X14982500Y-15919643D01*
X14968214Y-15933929D01*
X14939643Y-15948214D01*
X14896786Y-15948214D01*
X15168214Y-15948214D02*
X15139643Y-15933929D01*
X15125357Y-15905357D01*
X15125357Y-15648214D01*
X15396786Y-15933929D02*
X15368214Y-15948214D01*
X15311071Y-15948214D01*
X15282500Y-15933929D01*
X15268214Y-15905357D01*
X15268214Y-15791071D01*
X15282500Y-15762500D01*
X15311071Y-15748214D01*
X15368214Y-15748214D01*
X15396786Y-15762500D01*
X15411071Y-15791071D01*
X15411071Y-15819643D01*
X15268214Y-15848214D01*
X15525357Y-15933929D02*
X15553928Y-15948214D01*
X15611071Y-15948214D01*
X15639643Y-15933929D01*
X15653928Y-15905357D01*
X15653928Y-15891071D01*
X15639643Y-15862500D01*
X15611071Y-15848214D01*
X15568214Y-15848214D01*
X15539643Y-15833929D01*
X15525357Y-15805357D01*
X15525357Y-15791071D01*
X15539643Y-15762500D01*
X15568214Y-15748214D01*
X15611071Y-15748214D01*
X15639643Y-15762500D01*
X15753928Y-16062500D02*
X15768214Y-16048214D01*
X15796786Y-16005357D01*
X15811071Y-15976786D01*
X15825357Y-15933929D01*
X15839643Y-15862500D01*
X15839643Y-15805357D01*
X15825357Y-15733929D01*
X15811071Y-15691071D01*
X15796786Y-15662500D01*
X15768214Y-15619643D01*
X15753928Y-15605357D01*
X9167424Y-16158462D02*
X9267500Y-16258538D01*
X9267500Y-16158462D02*
X9167424Y-16258538D01*
X9217462Y-16158462D02*
X9217462Y-16258538D01*
X9167424Y-16208500D02*
X9267500Y-16208500D01*
X9711071Y-16344214D02*
X9539643Y-16344214D01*
X9625357Y-16344214D02*
X9625357Y-16044214D01*
X9596786Y-16087071D01*
X9568214Y-16115643D01*
X9539643Y-16129929D01*
X9839643Y-16315643D02*
X9853928Y-16329929D01*
X9839643Y-16344214D01*
X9825357Y-16329929D01*
X9839643Y-16315643D01*
X9839643Y-16344214D01*
X10039643Y-16044214D02*
X10068214Y-16044214D01*
X10096786Y-16058500D01*
X10111071Y-16072786D01*
X10125357Y-16101357D01*
X10139643Y-16158500D01*
X10139643Y-16229929D01*
X10125357Y-16287071D01*
X10111071Y-16315643D01*
X10096786Y-16329929D01*
X10068214Y-16344214D01*
X10039643Y-16344214D01*
X10011071Y-16329929D01*
X9996786Y-16315643D01*
X9982500Y-16287071D01*
X9968214Y-16229929D01*
X9968214Y-16158500D01*
X9982500Y-16101357D01*
X9996786Y-16072786D01*
X10011071Y-16058500D01*
X10039643Y-16044214D01*
X10325357Y-16044214D02*
X10353928Y-16044214D01*
X10382500Y-16058500D01*
X10396786Y-16072786D01*
X10411071Y-16101357D01*
X10425357Y-16158500D01*
X10425357Y-16229929D01*
X10411071Y-16287071D01*
X10396786Y-16315643D01*
X10382500Y-16329929D01*
X10353928Y-16344214D01*
X10325357Y-16344214D01*
X10296786Y-16329929D01*
X10282500Y-16315643D01*
X10268214Y-16287071D01*
X10253928Y-16229929D01*
X10253928Y-16158500D01*
X10268214Y-16101357D01*
X10282500Y-16072786D01*
X10296786Y-16058500D01*
X10325357Y-16044214D01*
X10553928Y-16344214D02*
X10553928Y-16144214D01*
X10553928Y-16172786D02*
X10568214Y-16158500D01*
X10596786Y-16144214D01*
X10639643Y-16144214D01*
X10668214Y-16158500D01*
X10682500Y-16187071D01*
X10682500Y-16344214D01*
X10682500Y-16187071D02*
X10696786Y-16158500D01*
X10725357Y-16144214D01*
X10768214Y-16144214D01*
X10796786Y-16158500D01*
X10811071Y-16187071D01*
X10811071Y-16344214D01*
X10953928Y-16344214D02*
X10953928Y-16144214D01*
X10953928Y-16172786D02*
X10968214Y-16158500D01*
X10996786Y-16144214D01*
X11039643Y-16144214D01*
X11068214Y-16158500D01*
X11082500Y-16187071D01*
X11082500Y-16344214D01*
X11082500Y-16187071D02*
X11096786Y-16158500D01*
X11125357Y-16144214D01*
X11168214Y-16144214D01*
X11196786Y-16158500D01*
X11211071Y-16187071D01*
X11211071Y-16344214D01*
X11796786Y-16029929D02*
X11539643Y-16415643D01*
X12182500Y-16044214D02*
X12211071Y-16044214D01*
X12239643Y-16058500D01*
X12253928Y-16072786D01*
X12268214Y-16101357D01*
X12282500Y-16158500D01*
X12282500Y-16229929D01*
X12268214Y-16287071D01*
X12253928Y-16315643D01*
X12239643Y-16329929D01*
X12211071Y-16344214D01*
X12182500Y-16344214D01*
X12153928Y-16329929D01*
X12139643Y-16315643D01*
X12125357Y-16287071D01*
X12111071Y-16229929D01*
X12111071Y-16158500D01*
X12125357Y-16101357D01*
X12139643Y-16072786D01*
X12153928Y-16058500D01*
X12182500Y-16044214D01*
X12411071Y-16315643D02*
X12425357Y-16329929D01*
X12411071Y-16344214D01*
X12396786Y-16329929D01*
X12411071Y-16315643D01*
X12411071Y-16344214D01*
X12611071Y-16044214D02*
X12639643Y-16044214D01*
X12668214Y-16058500D01*
X12682500Y-16072786D01*
X12696786Y-16101357D01*
X12711071Y-16158500D01*
X12711071Y-16229929D01*
X12696786Y-16287071D01*
X12682500Y-16315643D01*
X12668214Y-16329929D01*
X12639643Y-16344214D01*
X12611071Y-16344214D01*
X12582500Y-16329929D01*
X12568214Y-16315643D01*
X12553928Y-16287071D01*
X12539643Y-16229929D01*
X12539643Y-16158500D01*
X12553928Y-16101357D01*
X12568214Y-16072786D01*
X12582500Y-16058500D01*
X12611071Y-16044214D01*
X12811071Y-16044214D02*
X12996786Y-16044214D01*
X12896786Y-16158500D01*
X12939643Y-16158500D01*
X12968214Y-16172786D01*
X12982500Y-16187071D01*
X12996786Y-16215643D01*
X12996786Y-16287071D01*
X12982500Y-16315643D01*
X12968214Y-16329929D01*
X12939643Y-16344214D01*
X12853928Y-16344214D01*
X12825357Y-16329929D01*
X12811071Y-16315643D01*
X13139643Y-16344214D02*
X13196786Y-16344214D01*
X13225357Y-16329929D01*
X13239643Y-16315643D01*
X13268214Y-16272786D01*
X13282500Y-16215643D01*
X13282500Y-16101357D01*
X13268214Y-16072786D01*
X13253928Y-16058500D01*
X13225357Y-16044214D01*
X13168214Y-16044214D01*
X13139643Y-16058500D01*
X13125357Y-16072786D01*
X13111071Y-16101357D01*
X13111071Y-16172786D01*
X13125357Y-16201357D01*
X13139643Y-16215643D01*
X13168214Y-16229929D01*
X13225357Y-16229929D01*
X13253928Y-16215643D01*
X13268214Y-16201357D01*
X13282500Y-16172786D01*
X13396786Y-16044214D02*
X13396786Y-16101357D01*
X13511071Y-16044214D02*
X13511071Y-16101357D01*
X13953928Y-16458500D02*
X13939643Y-16444214D01*
X13911071Y-16401357D01*
X13896786Y-16372786D01*
X13882500Y-16329929D01*
X13868214Y-16258500D01*
X13868214Y-16201357D01*
X13882500Y-16129929D01*
X13896786Y-16087071D01*
X13911071Y-16058500D01*
X13939643Y-16015643D01*
X13953928Y-16001357D01*
X14225357Y-16344214D02*
X14053928Y-16344214D01*
X14139643Y-16344214D02*
X14139643Y-16044214D01*
X14111071Y-16087071D01*
X14082500Y-16115643D01*
X14053928Y-16129929D01*
X14482500Y-16044214D02*
X14425357Y-16044214D01*
X14396786Y-16058500D01*
X14382500Y-16072786D01*
X14353928Y-16115643D01*
X14339643Y-16172786D01*
X14339643Y-16287071D01*
X14353928Y-16315643D01*
X14368214Y-16329929D01*
X14396786Y-16344214D01*
X14453928Y-16344214D01*
X14482500Y-16329929D01*
X14496786Y-16315643D01*
X14511071Y-16287071D01*
X14511071Y-16215643D01*
X14496786Y-16187071D01*
X14482500Y-16172786D01*
X14453928Y-16158500D01*
X14396786Y-16158500D01*
X14368214Y-16172786D01*
X14353928Y-16187071D01*
X14339643Y-16215643D01*
X14868214Y-16344214D02*
X14868214Y-16044214D01*
X14996786Y-16344214D02*
X14996786Y-16187071D01*
X14982500Y-16158500D01*
X14953928Y-16144214D01*
X14911071Y-16144214D01*
X14882500Y-16158500D01*
X14868214Y-16172786D01*
X15182500Y-16344214D02*
X15153928Y-16329929D01*
X15139643Y-16315643D01*
X15125357Y-16287071D01*
X15125357Y-16201357D01*
X15139643Y-16172786D01*
X15153928Y-16158500D01*
X15182500Y-16144214D01*
X15225357Y-16144214D01*
X15253928Y-16158500D01*
X15268214Y-16172786D01*
X15282500Y-16201357D01*
X15282500Y-16287071D01*
X15268214Y-16315643D01*
X15253928Y-16329929D01*
X15225357Y-16344214D01*
X15182500Y-16344214D01*
X15453928Y-16344214D02*
X15425357Y-16329929D01*
X15411071Y-16301357D01*
X15411071Y-16044214D01*
X15682500Y-16329929D02*
X15653928Y-16344214D01*
X15596786Y-16344214D01*
X15568214Y-16329929D01*
X15553928Y-16301357D01*
X15553928Y-16187071D01*
X15568214Y-16158500D01*
X15596786Y-16144214D01*
X15653928Y-16144214D01*
X15682500Y-16158500D01*
X15696786Y-16187071D01*
X15696786Y-16215643D01*
X15553928Y-16244214D01*
X15811071Y-16329929D02*
X15839643Y-16344214D01*
X15896786Y-16344214D01*
X15925357Y-16329929D01*
X15939643Y-16301357D01*
X15939643Y-16287071D01*
X15925357Y-16258500D01*
X15896786Y-16244214D01*
X15853928Y-16244214D01*
X15825357Y-16229929D01*
X15811071Y-16201357D01*
X15811071Y-16187071D01*
X15825357Y-16158500D01*
X15853928Y-16144214D01*
X15896786Y-16144214D01*
X15925357Y-16158500D01*
X16039643Y-16458500D02*
X16053928Y-16444214D01*
X16082500Y-16401357D01*
X16096786Y-16372786D01*
X16111071Y-16329929D01*
X16125357Y-16258500D01*
X16125357Y-16201357D01*
X16111071Y-16129929D01*
X16096786Y-16087071D01*
X16082500Y-16058500D01*
X16053928Y-16015643D01*
X16039643Y-16001357D01*
X9165900Y-16553700D02*
X9267500Y-16655300D01*
X9267500Y-16553700D02*
X9165900Y-16655300D01*
X9252621Y-16640421D02*
X9252621Y-16568579D01*
X9180779Y-16568579D01*
X9180779Y-16640421D01*
X9252621Y-16640421D01*
X9711071Y-16740214D02*
X9539643Y-16740214D01*
X9625357Y-16740214D02*
X9625357Y-16440214D01*
X9596786Y-16483071D01*
X9568214Y-16511643D01*
X9539643Y-16525929D01*
X9839643Y-16711643D02*
X9853928Y-16725929D01*
X9839643Y-16740214D01*
X9825357Y-16725929D01*
X9839643Y-16711643D01*
X9839643Y-16740214D01*
X10039643Y-16440214D02*
X10068214Y-16440214D01*
X10096786Y-16454500D01*
X10111071Y-16468786D01*
X10125357Y-16497357D01*
X10139643Y-16554500D01*
X10139643Y-16625929D01*
X10125357Y-16683071D01*
X10111071Y-16711643D01*
X10096786Y-16725929D01*
X10068214Y-16740214D01*
X10039643Y-16740214D01*
X10011071Y-16725929D01*
X9996786Y-16711643D01*
X9982500Y-16683071D01*
X9968214Y-16625929D01*
X9968214Y-16554500D01*
X9982500Y-16497357D01*
X9996786Y-16468786D01*
X10011071Y-16454500D01*
X10039643Y-16440214D01*
X10253928Y-16468786D02*
X10268214Y-16454500D01*
X10296786Y-16440214D01*
X10368214Y-16440214D01*
X10396786Y-16454500D01*
X10411071Y-16468786D01*
X10425357Y-16497357D01*
X10425357Y-16525929D01*
X10411071Y-16568786D01*
X10239643Y-16740214D01*
X10425357Y-16740214D01*
X10553928Y-16740214D02*
X10553928Y-16540214D01*
X10553928Y-16568786D02*
X10568214Y-16554500D01*
X10596786Y-16540214D01*
X10639643Y-16540214D01*
X10668214Y-16554500D01*
X10682500Y-16583071D01*
X10682500Y-16740214D01*
X10682500Y-16583071D02*
X10696786Y-16554500D01*
X10725357Y-16540214D01*
X10768214Y-16540214D01*
X10796786Y-16554500D01*
X10811071Y-16583071D01*
X10811071Y-16740214D01*
X10953928Y-16740214D02*
X10953928Y-16540214D01*
X10953928Y-16568786D02*
X10968214Y-16554500D01*
X10996786Y-16540214D01*
X11039643Y-16540214D01*
X11068214Y-16554500D01*
X11082500Y-16583071D01*
X11082500Y-16740214D01*
X11082500Y-16583071D02*
X11096786Y-16554500D01*
X11125357Y-16540214D01*
X11168214Y-16540214D01*
X11196786Y-16554500D01*
X11211071Y-16583071D01*
X11211071Y-16740214D01*
X11796786Y-16425929D02*
X11539643Y-16811643D01*
X12182500Y-16440214D02*
X12211071Y-16440214D01*
X12239643Y-16454500D01*
X12253928Y-16468786D01*
X12268214Y-16497357D01*
X12282500Y-16554500D01*
X12282500Y-16625929D01*
X12268214Y-16683071D01*
X12253928Y-16711643D01*
X12239643Y-16725929D01*
X12211071Y-16740214D01*
X12182500Y-16740214D01*
X12153928Y-16725929D01*
X12139643Y-16711643D01*
X12125357Y-16683071D01*
X12111071Y-16625929D01*
X12111071Y-16554500D01*
X12125357Y-16497357D01*
X12139643Y-16468786D01*
X12153928Y-16454500D01*
X12182500Y-16440214D01*
X12411071Y-16711643D02*
X12425357Y-16725929D01*
X12411071Y-16740214D01*
X12396786Y-16725929D01*
X12411071Y-16711643D01*
X12411071Y-16740214D01*
X12611071Y-16440214D02*
X12639643Y-16440214D01*
X12668214Y-16454500D01*
X12682500Y-16468786D01*
X12696786Y-16497357D01*
X12711071Y-16554500D01*
X12711071Y-16625929D01*
X12696786Y-16683071D01*
X12682500Y-16711643D01*
X12668214Y-16725929D01*
X12639643Y-16740214D01*
X12611071Y-16740214D01*
X12582500Y-16725929D01*
X12568214Y-16711643D01*
X12553928Y-16683071D01*
X12539643Y-16625929D01*
X12539643Y-16554500D01*
X12553928Y-16497357D01*
X12568214Y-16468786D01*
X12582500Y-16454500D01*
X12611071Y-16440214D01*
X12968214Y-16540214D02*
X12968214Y-16740214D01*
X12896786Y-16425929D02*
X12825357Y-16640214D01*
X13011071Y-16640214D01*
X13182500Y-16440214D02*
X13211071Y-16440214D01*
X13239643Y-16454500D01*
X13253928Y-16468786D01*
X13268214Y-16497357D01*
X13282500Y-16554500D01*
X13282500Y-16625929D01*
X13268214Y-16683071D01*
X13253928Y-16711643D01*
X13239643Y-16725929D01*
X13211071Y-16740214D01*
X13182500Y-16740214D01*
X13153928Y-16725929D01*
X13139643Y-16711643D01*
X13125357Y-16683071D01*
X13111071Y-16625929D01*
X13111071Y-16554500D01*
X13125357Y-16497357D01*
X13139643Y-16468786D01*
X13153928Y-16454500D01*
X13182500Y-16440214D01*
X13396786Y-16440214D02*
X13396786Y-16497357D01*
X13511071Y-16440214D02*
X13511071Y-16497357D01*
X13953928Y-16854500D02*
X13939643Y-16840214D01*
X13911071Y-16797357D01*
X13896786Y-16768786D01*
X13882500Y-16725929D01*
X13868214Y-16654500D01*
X13868214Y-16597357D01*
X13882500Y-16525929D01*
X13896786Y-16483071D01*
X13911071Y-16454500D01*
X13939643Y-16411643D01*
X13953928Y-16397357D01*
X14039643Y-16440214D02*
X14225357Y-16440214D01*
X14125357Y-16554500D01*
X14168214Y-16554500D01*
X14196786Y-16568786D01*
X14211071Y-16583071D01*
X14225357Y-16611643D01*
X14225357Y-16683071D01*
X14211071Y-16711643D01*
X14196786Y-16725929D01*
X14168214Y-16740214D01*
X14082500Y-16740214D01*
X14053928Y-16725929D01*
X14039643Y-16711643D01*
X14496786Y-16440214D02*
X14353928Y-16440214D01*
X14339643Y-16583071D01*
X14353928Y-16568786D01*
X14382500Y-16554500D01*
X14453928Y-16554500D01*
X14482500Y-16568786D01*
X14496786Y-16583071D01*
X14511071Y-16611643D01*
X14511071Y-16683071D01*
X14496786Y-16711643D01*
X14482500Y-16725929D01*
X14453928Y-16740214D01*
X14382500Y-16740214D01*
X14353928Y-16725929D01*
X14339643Y-16711643D01*
X14868214Y-16740214D02*
X14868214Y-16440214D01*
X14996786Y-16740214D02*
X14996786Y-16583071D01*
X14982500Y-16554500D01*
X14953928Y-16540214D01*
X14911071Y-16540214D01*
X14882500Y-16554500D01*
X14868214Y-16568786D01*
X15182500Y-16740214D02*
X15153928Y-16725929D01*
X15139643Y-16711643D01*
X15125357Y-16683071D01*
X15125357Y-16597357D01*
X15139643Y-16568786D01*
X15153928Y-16554500D01*
X15182500Y-16540214D01*
X15225357Y-16540214D01*
X15253928Y-16554500D01*
X15268214Y-16568786D01*
X15282500Y-16597357D01*
X15282500Y-16683071D01*
X15268214Y-16711643D01*
X15253928Y-16725929D01*
X15225357Y-16740214D01*
X15182500Y-16740214D01*
X15453928Y-16740214D02*
X15425357Y-16725929D01*
X15411071Y-16697357D01*
X15411071Y-16440214D01*
X15682500Y-16725929D02*
X15653928Y-16740214D01*
X15596786Y-16740214D01*
X15568214Y-16725929D01*
X15553928Y-16697357D01*
X15553928Y-16583071D01*
X15568214Y-16554500D01*
X15596786Y-16540214D01*
X15653928Y-16540214D01*
X15682500Y-16554500D01*
X15696786Y-16583071D01*
X15696786Y-16611643D01*
X15553928Y-16640214D01*
X15811071Y-16725929D02*
X15839643Y-16740214D01*
X15896786Y-16740214D01*
X15925357Y-16725929D01*
X15939643Y-16697357D01*
X15939643Y-16683071D01*
X15925357Y-16654500D01*
X15896786Y-16640214D01*
X15853928Y-16640214D01*
X15825357Y-16625929D01*
X15811071Y-16597357D01*
X15811071Y-16583071D01*
X15825357Y-16554500D01*
X15853928Y-16540214D01*
X15896786Y-16540214D01*
X15925357Y-16554500D01*
X16039643Y-16854500D02*
X16053928Y-16840214D01*
X16082500Y-16797357D01*
X16096786Y-16768786D01*
X16111071Y-16725929D01*
X16125357Y-16654500D01*
X16125357Y-16597357D01*
X16111071Y-16525929D01*
X16096786Y-16483071D01*
X16082500Y-16454500D01*
X16053928Y-16411643D01*
X16039643Y-16397357D01*
X9157500Y-16945500D02*
X9267500Y-17055500D01*
X9267500Y-16945500D02*
X9157500Y-17055500D01*
X9212500Y-17055500D02*
X9267500Y-17000500D01*
X9212500Y-16945500D01*
X9157500Y-17000500D01*
X9212500Y-17055500D01*
X9711071Y-17136214D02*
X9539643Y-17136214D01*
X9625357Y-17136214D02*
X9625357Y-16836214D01*
X9596786Y-16879072D01*
X9568214Y-16907643D01*
X9539643Y-16921929D01*
X9839643Y-17107643D02*
X9853928Y-17121929D01*
X9839643Y-17136214D01*
X9825357Y-17121929D01*
X9839643Y-17107643D01*
X9839643Y-17136214D01*
X10139643Y-17136214D02*
X9968214Y-17136214D01*
X10053928Y-17136214D02*
X10053928Y-16836214D01*
X10025357Y-16879072D01*
X9996786Y-16907643D01*
X9968214Y-16921929D01*
X10325357Y-16836214D02*
X10353928Y-16836214D01*
X10382500Y-16850500D01*
X10396786Y-16864786D01*
X10411071Y-16893357D01*
X10425357Y-16950500D01*
X10425357Y-17021929D01*
X10411071Y-17079072D01*
X10396786Y-17107643D01*
X10382500Y-17121929D01*
X10353928Y-17136214D01*
X10325357Y-17136214D01*
X10296786Y-17121929D01*
X10282500Y-17107643D01*
X10268214Y-17079072D01*
X10253928Y-17021929D01*
X10253928Y-16950500D01*
X10268214Y-16893357D01*
X10282500Y-16864786D01*
X10296786Y-16850500D01*
X10325357Y-16836214D01*
X10553928Y-17136214D02*
X10553928Y-16936214D01*
X10553928Y-16964786D02*
X10568214Y-16950500D01*
X10596786Y-16936214D01*
X10639643Y-16936214D01*
X10668214Y-16950500D01*
X10682500Y-16979072D01*
X10682500Y-17136214D01*
X10682500Y-16979072D02*
X10696786Y-16950500D01*
X10725357Y-16936214D01*
X10768214Y-16936214D01*
X10796786Y-16950500D01*
X10811071Y-16979072D01*
X10811071Y-17136214D01*
X10953928Y-17136214D02*
X10953928Y-16936214D01*
X10953928Y-16964786D02*
X10968214Y-16950500D01*
X10996786Y-16936214D01*
X11039643Y-16936214D01*
X11068214Y-16950500D01*
X11082500Y-16979072D01*
X11082500Y-17136214D01*
X11082500Y-16979072D02*
X11096786Y-16950500D01*
X11125357Y-16936214D01*
X11168214Y-16936214D01*
X11196786Y-16950500D01*
X11211071Y-16979072D01*
X11211071Y-17136214D01*
X11796786Y-16821929D02*
X11539643Y-17207643D01*
X12182500Y-16836214D02*
X12211071Y-16836214D01*
X12239643Y-16850500D01*
X12253928Y-16864786D01*
X12268214Y-16893357D01*
X12282500Y-16950500D01*
X12282500Y-17021929D01*
X12268214Y-17079072D01*
X12253928Y-17107643D01*
X12239643Y-17121929D01*
X12211071Y-17136214D01*
X12182500Y-17136214D01*
X12153928Y-17121929D01*
X12139643Y-17107643D01*
X12125357Y-17079072D01*
X12111071Y-17021929D01*
X12111071Y-16950500D01*
X12125357Y-16893357D01*
X12139643Y-16864786D01*
X12153928Y-16850500D01*
X12182500Y-16836214D01*
X12411071Y-17107643D02*
X12425357Y-17121929D01*
X12411071Y-17136214D01*
X12396786Y-17121929D01*
X12411071Y-17107643D01*
X12411071Y-17136214D01*
X12611071Y-16836214D02*
X12639643Y-16836214D01*
X12668214Y-16850500D01*
X12682500Y-16864786D01*
X12696786Y-16893357D01*
X12711071Y-16950500D01*
X12711071Y-17021929D01*
X12696786Y-17079072D01*
X12682500Y-17107643D01*
X12668214Y-17121929D01*
X12639643Y-17136214D01*
X12611071Y-17136214D01*
X12582500Y-17121929D01*
X12568214Y-17107643D01*
X12553928Y-17079072D01*
X12539643Y-17021929D01*
X12539643Y-16950500D01*
X12553928Y-16893357D01*
X12568214Y-16864786D01*
X12582500Y-16850500D01*
X12611071Y-16836214D01*
X12968214Y-16936214D02*
X12968214Y-17136214D01*
X12896786Y-16821929D02*
X12825357Y-17036214D01*
X13011071Y-17036214D01*
X13096786Y-16836214D02*
X13282500Y-16836214D01*
X13182500Y-16950500D01*
X13225357Y-16950500D01*
X13253928Y-16964786D01*
X13268214Y-16979072D01*
X13282500Y-17007643D01*
X13282500Y-17079072D01*
X13268214Y-17107643D01*
X13253928Y-17121929D01*
X13225357Y-17136214D01*
X13139643Y-17136214D01*
X13111071Y-17121929D01*
X13096786Y-17107643D01*
X13396786Y-16836214D02*
X13396786Y-16893357D01*
X13511071Y-16836214D02*
X13511071Y-16893357D01*
X13953928Y-17250500D02*
X13939643Y-17236214D01*
X13911071Y-17193357D01*
X13896786Y-17164786D01*
X13882500Y-17121929D01*
X13868214Y-17050500D01*
X13868214Y-16993357D01*
X13882500Y-16921929D01*
X13896786Y-16879072D01*
X13911071Y-16850500D01*
X13939643Y-16807643D01*
X13953928Y-16793357D01*
X14039643Y-16836214D02*
X14225357Y-16836214D01*
X14125357Y-16950500D01*
X14168214Y-16950500D01*
X14196786Y-16964786D01*
X14211071Y-16979072D01*
X14225357Y-17007643D01*
X14225357Y-17079072D01*
X14211071Y-17107643D01*
X14196786Y-17121929D01*
X14168214Y-17136214D01*
X14082500Y-17136214D01*
X14053928Y-17121929D01*
X14039643Y-17107643D01*
X14582500Y-17136214D02*
X14582500Y-16836214D01*
X14711071Y-17136214D02*
X14711071Y-16979072D01*
X14696786Y-16950500D01*
X14668214Y-16936214D01*
X14625357Y-16936214D01*
X14596786Y-16950500D01*
X14582500Y-16964786D01*
X14896786Y-17136214D02*
X14868214Y-17121929D01*
X14853928Y-17107643D01*
X14839643Y-17079072D01*
X14839643Y-16993357D01*
X14853928Y-16964786D01*
X14868214Y-16950500D01*
X14896786Y-16936214D01*
X14939643Y-16936214D01*
X14968214Y-16950500D01*
X14982500Y-16964786D01*
X14996786Y-16993357D01*
X14996786Y-17079072D01*
X14982500Y-17107643D01*
X14968214Y-17121929D01*
X14939643Y-17136214D01*
X14896786Y-17136214D01*
X15168214Y-17136214D02*
X15139643Y-17121929D01*
X15125357Y-17093357D01*
X15125357Y-16836214D01*
X15396786Y-17121929D02*
X15368214Y-17136214D01*
X15311071Y-17136214D01*
X15282500Y-17121929D01*
X15268214Y-17093357D01*
X15268214Y-16979072D01*
X15282500Y-16950500D01*
X15311071Y-16936214D01*
X15368214Y-16936214D01*
X15396786Y-16950500D01*
X15411071Y-16979072D01*
X15411071Y-17007643D01*
X15268214Y-17036214D01*
X15525357Y-17121929D02*
X15553928Y-17136214D01*
X15611071Y-17136214D01*
X15639643Y-17121929D01*
X15653928Y-17093357D01*
X15653928Y-17079072D01*
X15639643Y-17050500D01*
X15611071Y-17036214D01*
X15568214Y-17036214D01*
X15539643Y-17021929D01*
X15525357Y-16993357D01*
X15525357Y-16979072D01*
X15539643Y-16950500D01*
X15568214Y-16936214D01*
X15611071Y-16936214D01*
X15639643Y-16950500D01*
X15753928Y-17250500D02*
X15768214Y-17236214D01*
X15796786Y-17193357D01*
X15811071Y-17164786D01*
X15825357Y-17121929D01*
X15839643Y-17050500D01*
X15839643Y-16993357D01*
X15825357Y-16921929D01*
X15811071Y-16879072D01*
X15796786Y-16850500D01*
X15768214Y-16807643D01*
X15753928Y-16793357D01*
M02*
